<svg fill="none" viewBox="0 0 24 24" xmlns="http://www.w3.org/2000/svg"><path fill-rule="evenodd" clip-rule="evenodd" d="M5.762 4.96a.802.802 0 0 0-.802.802v7.822H8V4.96H5.762Zm4.238 0v8.624h9.04V5.762a.802.802 0 0 0-.802-.802H10ZM8.938 15.544a1.073 1.073 0 0 0 .124 0h9.978v2.694c0 .442-.36.802-.802.802H5.762a.802.802 0 0 1-.802-.802v-2.694h3.978ZM3 5.762V18.238A2.762 2.762 0 0 0 5.762 21h12.476A2.762 2.762 0 0 0 21 18.238V5.762A2.762 2.762 0 0 0 18.238 3H5.762A2.762 2.762 0 0 0 3 5.762Z" fill="#000"/></svg>
