<svg fill="none" viewBox="0 0 24 24" xmlns="http://www.w3.org/2000/svg"><path fill-rule="evenodd" clip-rule="evenodd" d="M11.895 4.85a5.658 5.658 0 0 0-5.658 5.659c0 2.186 1.43 4.353 3.067 6.08a21.638 21.638 0 0 0 2.59 2.314 21.643 21.643 0 0 0 2.591-2.315c1.637-1.726 3.068-3.893 3.068-6.08a5.658 5.658 0 0 0-5.658-5.657Zm0 15.352c-.584.876-.584.875-.585.875l-.002-.002-.006-.003-.018-.012a21.568 21.568 0 0 1-1.094-.815 23.729 23.729 0 0 1-2.415-2.209c-1.72-1.815-3.643-4.495-3.643-7.527a7.763 7.763 0 1 1 15.526 0c0 3.032-1.924 5.712-3.644 7.527a23.73 23.73 0 0 1-3.445 2.98 5.455 5.455 0 0 1-.064.044l-.018.012-.005.004h-.002v.001l-.585-.875Zm0 0 .584.876a1.053 1.053 0 0 1-1.168 0l.584-.876Zm.584-.876Zm-1.169 0Z" fill="#000"/><path fill-rule="evenodd" clip-rule="evenodd" d="M11.895 9.325a1.184 1.184 0 1 0 0 2.368 1.184 1.184 0 0 0 0-2.368Zm-3.29 1.184a3.29 3.29 0 1 1 6.58 0 3.29 3.29 0 0 1-6.58 0Z" fill="#000"/></svg>
