<svg fill="none" viewBox="0 0 24 24" xmlns="http://www.w3.org/2000/svg"><path fill-rule="evenodd" clip-rule="evenodd" d="M5.7 4.8a.9.9 0 0 0-.9.9v12.6a.9.9 0 0 0 .9.9h12.6a.9.9 0 0 0 .9-.9V5.7a.9.9 0 0 0-.9-.9H5.7ZM3 5.7A2.7 2.7 0 0 1 5.7 3h12.6A2.7 2.7 0 0 1 21 5.7v12.6a2.7 2.7 0 0 1-2.7 2.7H5.7A2.7 2.7 0 0 1 3 18.3V5.7Z" fill="#000"/><path fill-rule="evenodd" clip-rule="evenodd" d="M8.85 8.4a.45.45 0 1 0 0 .9.45.45 0 0 0 0-.9Zm-2.25.45a2.25 2.25 0 1 1 4.5 0 2.25 2.25 0 0 1-4.5 0ZM14.964 9.564a.9.9 0 0 1 1.272 0l4.5 4.5a.9.9 0 1 1-1.272 1.272L15.6 11.473l-9.264 9.263a.9.9 0 1 1-1.272-1.272l9.9-9.9Z" fill="#000"/></svg>
