<svg fill="none" viewBox="0 0 24 24" xmlns="http://www.w3.org/2000/svg"><path fill-rule="evenodd" clip-rule="evenodd" d="M15.572 4c-1.171-.01-2.3.44-3.142 1.255l-.01.01-1.229 1.222a.895.895 0 0 0 1.26 1.269l1.225-1.219a2.679 2.679 0 0 1 4.537 1.91c.006.701-.262 1.377-.747 1.882l-2.138 2.14a2.68 2.68 0 0 1-4.042-.29.893.893 0 1 0-1.43 1.072 4.467 4.467 0 0 0 6.735.483l2.144-2.146.011-.011A4.473 4.473 0 0 0 15.572 4Zm-4.685 4.968a4.463 4.463 0 0 0-3.478 1.298l-2.144 2.146-.011.011A4.473 4.473 0 0 0 8.428 20c1.171.01 2.3-.44 3.142-1.255l.011-.01 1.222-1.224a.895.895 0 0 0-1.263-1.265l-1.216 1.218a2.68 2.68 0 0 1-4.537-1.911 2.684 2.684 0 0 1 .747-1.882l2.138-2.14a2.68 2.68 0 0 1 4.042.29.893.893 0 1 0 1.43-1.072 4.468 4.468 0 0 0-3.257-1.781Z" fill="#000"/></svg>
