<svg fill="none" viewBox="0 0 24 24" xmlns="http://www.w3.org/2000/svg"><path fill-rule="evenodd" clip-rule="evenodd" d="M11.652 3.534a.765.765 0 0 1 .696 0l7.772 3.958c.264.134.43.408.43.708s-.166.574-.43.708l-7.772 3.958a.764.764 0 0 1-.696 0L3.88 8.908a.793.793 0 0 1-.43-.708c0-.3.166-.574.43-.708l7.772-3.958ZM5.965 8.2 12 11.273 18.035 8.2 12 5.127 5.965 8.2ZM3.532 15.3a.761.761 0 0 1 1.043-.364L12 18.826l7.425-3.89a.761.761 0 0 1 1.043.364.833.833 0 0 1-.348 1.093l-7.772 4.071a.745.745 0 0 1-.696 0L3.88 16.393a.833.833 0 0 1-.348-1.093Z" fill="#000"/><path fill-rule="evenodd" clip-rule="evenodd" d="M3.532 11.5a.761.761 0 0 1 1.043-.364L12 15.026l7.425-3.89a.761.761 0 0 1 1.043.364.833.833 0 0 1-.348 1.093l-7.772 4.071a.745.745 0 0 1-.696 0L3.88 12.593a.833.833 0 0 1-.348-1.093Z" fill="#000"/></svg>
