<svg width="24" height="24" viewBox="0 0 24 24" fill="none" xmlns="http://www.w3.org/2000/svg">
<path fill-rule="evenodd" clip-rule="evenodd" d="M4.6875 12C4.6875 11.5513 5.05127 11.1875 5.5 11.1875H18.5C18.9487 11.1875 19.3125 11.5513 19.3125 12C19.3125 12.4487 18.9487 12.8125 18.5 12.8125H5.5C5.05127 12.8125 4.6875 12.4487 4.6875 12Z" fill="black"/>
<path fill-rule="evenodd" clip-rule="evenodd" d="M12.5745 4.92548C12.8918 5.24278 12.8918 5.75722 12.5745 6.07452L6.64905 12L12.5745 17.9255C12.8918 18.2428 12.8918 18.7572 12.5745 19.0745C12.2572 19.3918 11.7428 19.3918 11.4255 19.0745L4.92548 12.5745C4.60817 12.2572 4.60817 11.7428 4.92548 11.4255L11.4255 4.92548C11.7428 4.60817 12.2572 4.60817 12.5745 4.92548Z" fill="black"/>
</svg>
