<svg fill="none" viewBox="0 0 24 24" xmlns="http://www.w3.org/2000/svg" viewBox="0 0 24 24"><path fill-rule="evenodd" clip-rule="evenodd" d="M5.87 5.7a.888.888 0 0 0-.875.9v12.6c0 .497.392.9.875.9h12.25a.888.888 0 0 0 .875-.9V6.6c0-.497-.392-.9-.875-.9H5.87Zm-2.625.9c0-1.491 1.175-2.7 2.625-2.7h12.25c1.45 0 2.625 1.209 2.625 2.7v12.6c0 1.491-1.175 2.7-2.625 2.7H5.87c-1.45 0-2.625-1.209-2.625-2.7V6.6Z" fill="#000"/><path fill-rule="evenodd" clip-rule="evenodd" d="M15.495 2.1c.483 0 .875.403.875.9v3.6c0 .497-.392.9-.875.9a.888.888 0 0 1-.875-.9V3c0-.497.392-.9.875-.9ZM8.495 2.1c.483 0 .875.403.875.9v3.6c0 .497-.392.9-.875.9a.888.888 0 0 1-.875-.9V3c0-.497.392-.9.875-.9ZM3.245 10.2c0-.497.392-.9.875-.9h15.75c.483 0 .875.403.875.9s-.392.9-.875.9H4.12a.888.888 0 0 1-.875-.9Z" fill="#000"/></svg>
