<svg fill="none" viewBox="0 0 24 24" xmlns="http://www.w3.org/2000/svg"><path fill-rule="evenodd" clip-rule="evenodd" d="M2.857 4c0-.631.512-1.143 1.143-1.143h8.346c.303 0 .593.12.808.335l7.17 7.171a2.812 2.812 0 0 1 0 3.965l-.002.002-5.983 5.984a2.811 2.811 0 0 1-3.978 0l-7.168-7.16a1.143 1.143 0 0 1-.336-.808V4Zm2.286 1.143v6.729l6.834 6.827a.526.526 0 0 0 .745 0l5.982-5.982a.529.529 0 0 0 .001-.742l-6.833-6.832h-6.73Z" fill="#000"/><path fill-rule="evenodd" clip-rule="evenodd" d="M7.03 8.173c0-.631.512-1.143 1.143-1.143h.008a1.143 1.143 0 0 1 0 2.285h-.008A1.143 1.143 0 0 1 7.03 8.173Z" fill="#000"/></svg>
