<svg fill="none" viewBox="0 0 24 24" xmlns="http://www.w3.org/2000/svg"><path d="m4.264 9.593 7.695 5.471.012.009.013.006c.175.078.335.105.485.07a.659.659 0 0 0 .358-.238l.008-.012 5.45-7.998 1.63 8.332L5.892 17.91 4.264 9.593Zm-.526-1.989a1.092 1.092 0 0 0-.868 1.283 1383.09 1383.09 0 0 0 1.85 9.388c.119.588.686.966 1.28.856a2756.19 2756.19 0 0 0 14.25-2.725c.602-.116.995-.687.88-1.286a1324.62 1324.62 0 0 0-1.832-9.393 1.1 1.1 0 0 0-1.292-.857c-2.752.521-10.879 2.064-14.268 2.734Zm7.655 4.47L5.266 8.536l11.687-2.23-4.508 5.573a.826.826 0 0 1-1.053.193Z" fill="#000" stroke="#000" stroke-width=".3"/></svg>
