<svg fill="none" viewBox="0 0 24 24" xmlns="http://www.w3.org/2000/svg"><path fill-rule="evenodd" clip-rule="evenodd" d="M4 13.667a1 1 0 0 1 1 1v3.555a.778.778 0 0 0 .778.778h12.444a.778.778 0 0 0 .778-.778v-3.555a1 1 0 1 1 2 0v3.555A2.778 2.778 0 0 1 18.222 21H5.778A2.778 2.778 0 0 1 3 18.222v-3.555a1 1 0 0 1 1-1ZM11.293 3.293a1 1 0 0 1 1.414 0l4.444 4.444a1 1 0 1 1-1.414 1.415L12 5.414 8.263 9.152a1 1 0 1 1-1.415-1.415l4.445-4.444Z" fill="#000"/><path fill-rule="evenodd" clip-rule="evenodd" d="M12 3a1 1 0 0 1 1 1v10.667a1 1 0 1 1-2 0V4a1 1 0 0 1 1-1Z" fill="#000"/></svg>
