<svg fill="none" viewBox="0 0 24 24" xmlns="http://www.w3.org/2000/svg"><path d="m14.66 10.713-5.51 1.07-.295-1.52 5.51-1.07.295 1.52ZM9.777 15.013l5.51-1.07-.295-1.52-5.51 1.07.295 1.52Z" fill="#000"/><path fill-rule="evenodd" clip-rule="evenodd" d="M3.39 7.184c-.768.149-1.274.865-1.132 1.6l.65 3.348c.03.15.193.234.349.204.932-.181 1.828.395 2.001 1.287.173.892-.442 1.762-1.374 1.943-.156.03-.276.17-.247.32l.65 3.348c.143.734.88 1.209 1.648 1.06l14.89-2.891c.768-.15 1.275-.865 1.132-1.6l-.65-3.349c-.029-.149-.192-.233-.349-.203-.932.18-1.827-.396-2-1.287-.174-.892.441-1.762 1.373-1.943.156-.03.276-.17.247-.32l-.65-3.348c-.142-.734-.88-1.21-1.648-1.06L3.39 7.183Zm15.148-1.561-14.89 2.89a.096.096 0 0 0-.056.03l.474 2.441c1.213.184 2.268 1.074 2.522 2.381.254 1.307-.392 2.527-1.448 3.152l.474 2.441a.096.096 0 0 0 .063.006l14.89-2.891a.096.096 0 0 0 .057-.03l-.474-2.44c-1.214-.185-2.269-1.075-2.523-2.381-.253-1.307.392-2.527 1.449-3.152l-.474-2.441a.096.096 0 0 0-.064-.006Z" fill="#000"/></svg>
