<svg viewBox="0 0 24 24" fill="none" xmlns="http://www.w3.org/2000/svg"><g id="event-navigation"><g id="Vector"><path fill-rule="evenodd" clip-rule="evenodd" d="M24 14.5797C24 15.0072 23.6418 15.3537 23.2 15.3537L12.6 15.3537C12.1582 15.3537 11.8 15.0072 11.8 14.5797C11.8 14.1521 12.1582 13.8056 12.6 13.8056L23.2 13.8056C23.6418 13.8056 24 14.1521 24 14.5797Z" fill="black"/><path fill-rule="evenodd" clip-rule="evenodd" d="M16.2343 21.3196C15.9219 21.0173 15.9219 20.5272 16.2343 20.2249L22.0686 14.5797L16.2343 8.93442C15.9219 8.63212 15.9219 8.14201 16.2343 7.83971C16.5467 7.53742 17.0533 7.53742 17.3657 7.83971L23.7657 14.0323C24.0781 14.3346 24.0781 14.8247 23.7657 15.127L17.3657 21.3196C17.0533 21.6219 16.5467 21.6219 16.2343 21.3196Z" fill="black"/><path fill-rule="evenodd" clip-rule="evenodd" d="M0 9.51299C0 9.08548 0.358172 8.73892 0.8 8.73892L11.4 8.73892C11.8418 8.73892 12.2 9.08548 12.2 9.51299C12.2 9.9405 11.8418 10.2871 11.4 10.2871L0.8 10.2871C0.358172 10.2871 0 9.9405 0 9.51299Z" fill="black"/><path fill-rule="evenodd" clip-rule="evenodd" d="M7.76569 2.77305C8.07811 3.07534 8.07811 3.56546 7.76569 3.86775L1.93137 9.51299L7.76569 15.1582C8.07811 15.4605 8.07811 15.9506 7.76569 16.2529C7.45327 16.5552 6.94674 16.5552 6.63432 16.2529L0.234315 10.0603C-0.0781048 9.75805 -0.0781048 9.26793 0.234315 8.96564L6.63432 2.77305C6.94674 2.47075 7.45327 2.47075 7.76569 2.77305Z" fill="black"/></g></g></svg>
