<?xml version="1.0" encoding="UTF-8"?>
<svg width="21px" height="21px" viewBox="0 0 21 21" version="1.1" xmlns="http://www.w3.org/2000/svg" xmlns:xlink="http://www.w3.org/1999/xlink">
    <!-- Generator: sketchtool 55.1 (78136) - https://sketchapp.com -->
    <title>977C1F6B-9A2B-4E7A-884B-69CF4D3B1611</title>
    <desc>Created with sketchtool.</desc>
    <g id="01.Views" stroke="none" stroke-width="1" fill="none" fill-rule="evenodd">
        <g id="Design-System---Event-Bar-Elements" transform="translate(-374.000000, -1749.000000)" fill="#141827" fill-rule="nonzero">
            <g id="Mobile-Event-Bar-Icons" transform="translate(133.000000, 1682.000000)">
                <g id="Icon/Views/Day-Copy" transform="translate(241.000000, 67.000000)">
                    <path d="M0,0.502899905 L0,20.4971001 C0,20.7748437 0.189878312,21 0.424104368,21 L20.5758956,21 C20.8101217,21 21,20.7748437 21,20.4971001 L21,0.502899905 C21,0.225156334 20.8101217,0 20.5758956,0 L0.424104368,0 C0.189878312,0 0,0.225156334 0,0.502899905 Z M1.15593287,1.44559161 L19.8165246,1.44559161 L19.8165246,4.14573185 L1.15593287,4.14573185 L1.15593287,1.44559161 Z M1.15593287,5.46879117 L19.8165246,5.46879117 L19.8165246,19.5499891 L1.15593287,19.5499891 L1.15593287,5.46879117 Z M14.1806672,14.5311601 L14.1806672,16.2780755 C14.1806672,16.7604723 14.5717077,17.1515332 15.0540792,17.1515332 L16.8009031,17.1515332 C17.2832745,17.1515332 17.674315,16.7604723 17.674315,16.2780755 L17.674315,14.5311601 C17.674315,14.0487634 17.2832745,13.6577024 16.8009031,13.6577024 L15.0540792,13.6577024 C14.5717077,13.6577024 14.1806672,14.0487634 14.1806672,14.5311601 Z" id="Icon/Views/Mobile/Day"></path>
                </g>
            </g>
        </g>
    </g>
</svg>