<svg width="18" height="16" xmlns="http://www.w3.org/2000/svg"><g fill="#141827" fill-rule="nonzero"><path d="M17.055 2.864c.293 0 .533-.18.533-.4v-.398c0-.22-.24-.4-.533-.4H6.122c-.294 0-.534.18-.534.4v.398c0 .22.24.4.534.4h10.933zM1.588 3.666a1.5 1.5 0 1 0 0-3 1.5 1.5 0 0 0 0 3zM17.055 8.614c.293 0 .533-.18.533-.4v-.398c0-.22-.24-.4-.533-.4H6.122c-.294 0-.534.18-.534.4v.398c0 .22.24.4.534.4h10.933zM1.588 9.416a1.5 1.5 0 1 0 0-3 1.5 1.5 0 0 0 0 3z"/><g><path d="M17.055 14.364c.293 0 .533-.18.533-.4v-.398c0-.22-.24-.4-.533-.4H6.122c-.294 0-.534.18-.534.4v.398c0 .22.24.4.534.4h10.933zM1.588 15.166a1.5 1.5 0 1 0 0-3 1.5 1.5 0 0 0 0 3z"/></g></g></svg>