<?xml version="1.0" encoding="UTF-8"?>
<svg width="18px" height="15px" viewBox="0 0 18 15" version="1.1" xmlns="http://www.w3.org/2000/svg" xmlns:xlink="http://www.w3.org/1999/xlink">
    <!-- Generator: sketchtool 55.1 (78136) - https://sketchapp.com -->
    <title>E061CAC1-1C00-4C2B-983D-C0AD78445BE1</title>
    <desc>Created with sketchtool.</desc>
    <g id="01.Views" stroke="none" stroke-width="1" fill="none" fill-rule="evenodd">
        <g id="Design-System---Event-Bar-Elements" transform="translate(-157.000000, -3932.000000)" fill="#141827" fill-rule="nonzero">
            <g id="Mobile-View-Select" transform="translate(132.000000, 3672.000000)">
                <g id="View-Select-Open-Mobile" transform="translate(3.000000, 95.562744)">
                    <g id="List" transform="translate(22.000000, 162.437256)">
                        <g id="Icon/Views/List" transform="translate(0.000000, 2.000000)">
                            <g id="Group-2" transform="translate(0.000000, 0.250000)">
                                <g id="Group">
                                    <path d="M16.9666667,2.19812442 C17.26,2.19812442 17.5,2.01812442 17.5,1.79812442 L17.5,1.4 C17.5,1.18 17.26,1 16.9666667,1 L6.03333334,1 C5.74000001,1 5.5,1.18 5.5,1.4 L5.5,1.79812442 C5.5,2.01812442 5.74000001,2.19812442 6.03333334,2.19812442 L16.9666667,2.19812442 Z" id="Path"></path>
                                    <path d="M1.5,3 C2.32842712,3 3,2.32842713 3,1.5 C3,0.671572876 2.32842712,0 1.5,0 C0.671572875,0 0,0.671572876 0,1.5 C0,2.32842713 0.671572875,3 1.5,3 Z" id="Oval"></path>
                                </g>
                                <g id="Group" transform="translate(0.000000, 5.750000)">
                                    <path d="M16.9666667,2.19812442 C17.26,2.19812442 17.5,2.01812442 17.5,1.79812442 L17.5,1.4 C17.5,1.18 17.26,1 16.9666667,1 L6.03333334,1 C5.74000001,1 5.5,1.18 5.5,1.4 L5.5,1.79812442 C5.5,2.01812442 5.74000001,2.19812442 6.03333334,2.19812442 L16.9666667,2.19812442 Z" id="Path"></path>
                                    <path d="M1.5,3 C2.32842712,3 3,2.32842713 3,1.5 C3,0.671572876 2.32842712,0 1.5,0 C0.671572875,0 0,0.671572876 0,1.5 C0,2.32842713 0.671572875,3 1.5,3 Z" id="Oval"></path>
                                </g>
                                <g id="Group" transform="translate(0.000000, 11.500000)">
                                    <path d="M16.9666667,2.19812442 C17.26,2.19812442 17.5,2.01812442 17.5,1.79812442 L17.5,1.4 C17.5,1.18 17.26,1 16.9666667,1 L6.03333334,1 C5.74000001,1 5.5,1.18 5.5,1.4 L5.5,1.79812442 C5.5,2.01812442 5.74000001,2.19812442 6.03333334,2.19812442 L16.9666667,2.19812442 Z" id="Path"></path>
                                    <path d="M1.5,3 C2.32842712,3 3,2.32842713 3,1.5 C3,0.671572876 2.32842712,0 1.5,0 C0.671572875,0 0,0.671572876 0,1.5 C0,2.32842713 0.671572875,3 1.5,3 Z" id="Oval"></path>
                                </g>
                            </g>
                        </g>
                    </g>
                </g>
            </g>
        </g>
    </g>
</svg>