<?xml version="1.0" encoding="UTF-8"?>
<svg width="20px" height="19px" viewBox="0 0 20 19" version="1.1" xmlns="http://www.w3.org/2000/svg" xmlns:xlink="http://www.w3.org/1999/xlink">
    <!-- Generator: sketchtool 55.1 (78136) - https://sketchapp.com -->
    <title>87693708-50DC-48D0-8870-361922736891</title>
    <desc>Created with sketchtool.</desc>
    <g id="01.Views" stroke="none" stroke-width="1" fill="none" fill-rule="evenodd">
        <g id="Design-System---Event-Bar-Elements---Spacing" transform="translate(-979.000000, -1748.000000)">
            <g id="Mobile-View-Icons" transform="translate(719.000000, 1682.000000)">
                <g id="Map" transform="translate(261.000000, 66.000000)">
                    <g id="Icon/Views/Map">
                        <g id="Group-2">
                            <polyline id="Path" stroke="#141827" stroke-linejoin="round" points="11.6907398 10.5240305 14.9276643 10.5240305 18.173913 18.1435533 0 18.1435533 3.15540533 10.5240305 3.15540533 10.5240305 6.78937261 10.5240305"></polyline>
                            <path d="M9.33666838,14.0292377 C9.51875786,13.8047744 13.7971934,8.50297412 13.7971934,5.84942792 C13.7971934,3.12217928 11.7118382,0.903361345 9.1486346,0.903361345 C6.58543101,0.903361345 4.5000758,3.12217928 4.5000758,5.84942792 C4.5000758,8.5029741 8.77851136,13.8047744 8.96060084,14.0292377 C9.00779125,14.0873219 9.07645391,14.1207527 9.1486346,14.1207527 C9.22081531,14.1207527 9.28947796,14.0873219 9.33666838,14.0292377 Z M4.99697021,5.84942792 C4.99697021,3.41363309 6.85935374,1.432057 9.1486346,1.432057 C11.4379155,1.432057 13.300299,3.41363309 13.300299,5.84942792 C13.300299,8.00938715 9.98241274,12.3818396 9.1486346,13.4464592 C8.31485647,12.3819687 4.99697021,8.01029069 4.99697021,5.84942792 Z" id="Shape" stroke="#141827" stroke-width="0.4" fill="#141827" fill-rule="nonzero"></path>
                            <path d="M10.7221336,5.85988308 C10.7221336,4.94889474 10.0162426,4.20770917 9.1486346,4.20770917 C8.28102667,4.20770917 7.57513564,4.94889474 7.57513564,5.85988308 C7.57513564,6.77087142 8.28102667,7.512057 9.1486346,7.512057 C10.0162426,7.512057 10.7221336,6.77087142 10.7221336,5.85988308 Z M7.87177355,5.85988308 C7.87177355,5.12059857 8.44455411,4.51917897 9.1486346,4.51917897 C9.85271511,4.51917897 10.4254957,5.12059857 10.4254957,5.85988308 C10.4254957,6.5991676 9.85271511,7.2005872 9.1486346,7.2005872 C8.44455411,7.2005872 7.87177355,6.5991676 7.87177355,5.85988308 Z" id="Shape" stroke="#000000" stroke-width="0.7" fill="#000000" fill-rule="nonzero"></path>
                        </g>
                    </g>
                </g>
            </g>
        </g>
    </g>
</svg>