<svg width="20" height="19" xmlns="http://www.w3.org/2000/svg"><g fill="none" fill-rule="evenodd"><path stroke="#141827" stroke-linejoin="round" d="M12.69 10.524h3.238l3.246 7.62H1l3.155-7.62H7.79"/><path d="M10.337 14.03c.182-.225 4.46-5.527 4.46-8.18 0-2.728-2.085-4.947-4.648-4.947C7.585.903 5.5 3.123 5.5 5.85c0 2.654 4.279 7.956 4.46 8.18a.243.243 0 0 0 .189.092c.072 0 .14-.034.188-.092zm-4.34-8.18c0-2.436 1.862-4.418 4.152-4.418 2.289 0 4.151 1.982 4.151 4.417 0 2.16-3.318 6.533-4.151 7.597-.834-1.064-4.152-5.436-4.152-7.597z" stroke="#141827" stroke-width=".4" fill="#141827" fill-rule="nonzero"/><path d="M11.722 5.86c0-.911-.706-1.652-1.573-1.652-.868 0-1.574.74-1.574 1.652 0 .91.706 1.652 1.574 1.652.867 0 1.573-.741 1.573-1.652zm-2.85 0c0-.74.573-1.34 1.277-1.34s1.276.6 1.276 1.34c0 .74-.572 1.34-1.276 1.34-.704 0-1.277-.6-1.277-1.34z" stroke="#000" stroke-width=".7" fill="#000" fill-rule="nonzero"/></g></svg>