<svg width="19" height="19" xmlns="http://www.w3.org/2000/svg"><path d="M.55.917v17.138c0 .238.163.431.364.431h17.273c.2 0 .363-.193.363-.431V.917c0-.238-.162-.431-.363-.431H.914C.714.486.55.679.55.917zm.991.808h15.995V4.04H1.54V1.725zm0 3.449h15.995v12.07H1.54V5.173zm5.357 2.155v.862c0 .238.193.431.43.431h.863a.431.431 0 0 0 .43-.431v-.862a.431.431 0 0 0-.43-.431h-.862a.431.431 0 0 0-.431.43zm3.448 0v.862c0 .238.193.431.43.431h.863a.431.431 0 0 0 .431-.431v-.862a.431.431 0 0 0-.431-.431h-.862a.431.431 0 0 0-.431.43zm3.448 0v.862c0 .238.193.431.431.431h.862a.431.431 0 0 0 .431-.431v-.862a.431.431 0 0 0-.43-.431h-.863a.431.431 0 0 0-.43.43zm-6.896 3.448v.862c0 .238.193.431.43.431h.863a.431.431 0 0 0 .43-.43v-.863a.431.431 0 0 0-.43-.43h-.862a.431.431 0 0 0-.431.43zm3.448 0v.862c0 .238.193.431.43.431h.863a.431.431 0 0 0 .431-.43v-.863a.431.431 0 0 0-.431-.43h-.862a.431.431 0 0 0-.431.43zm3.448 0v.862c0 .238.193.431.431.431h.862a.431.431 0 0 0 .431-.43v-.863a.431.431 0 0 0-.43-.43h-.863a.431.431 0 0 0-.43.43zm-10.345 0v.862c0 .238.193.431.431.431h.862a.431.431 0 0 0 .431-.43v-.863a.431.431 0 0 0-.43-.43H3.88a.431.431 0 0 0-.43.43zm0 3.449v.862c0 .238.193.43.431.43h.862a.431.431 0 0 0 .431-.43v-.862a.431.431 0 0 0-.43-.431H3.88a.431.431 0 0 0-.43.43zm3.449 0v.862c0 .238.193.43.43.43h.863a.431.431 0 0 0 .43-.43v-.862a.431.431 0 0 0-.43-.431h-.862a.431.431 0 0 0-.431.43zm3.448 0v.862c0 .238.193.43.43.43h.863a.431.431 0 0 0 .431-.43v-.862a.431.431 0 0 0-.431-.431h-.862a.431.431 0 0 0-.431.43z" fill="#141827" fill-rule="nonzero"/></svg>