<?xml version="1.0" encoding="UTF-8"?>
<svg width="22px" height="22px" viewBox="0 0 22 22" version="1.1" xmlns="http://www.w3.org/2000/svg" xmlns:xlink="http://www.w3.org/1999/xlink">
    <!-- Generator: sketchtool 55.1 (78136) - https://sketchapp.com -->
    <title>DAB7CADE-3CCB-4C4C-B8ED-05441B629B79</title>
    <desc>Created with sketchtool.</desc>
    <g id="01.Views" stroke="none" stroke-width="1" fill="none" fill-rule="evenodd">
        <g id="Design-System---Event-Bar-Elements" transform="translate(-257.000000, -1749.000000)" fill="#141827" fill-rule="nonzero">
            <g id="Mobile-Event-Bar-Icons" transform="translate(133.000000, 1682.000000)">
                <g id="Icon/Month:Mobile" transform="translate(124.637207, 67.562744)">
                    <path d="M5.5067062e-14,0.5 L5.5067062e-14,20.3789063 C5.5067062e-14,20.6550483 0.188793293,20.8789063 0.421680915,20.8789063 L20.4583191,20.8789063 C20.6912067,20.8789063 20.88,20.6550483 20.88,20.3789063 L20.88,0.5 C20.88,0.223858 20.6912067,1.79412041e-13 20.4583191,1.79412041e-13 L0.421680915,1.79412041e-13 C0.188793293,1.79412041e-13 5.5067062e-14,0.223858 5.5067062e-14,0.5 Z M1.14932757,1.43725586 L19.7032879,1.43725586 L19.7032879,4.12182617 L1.14932757,4.12182617 L1.14932757,1.43725586 Z M1.14932757,5.43725586 L19.7032879,5.43725586 L19.7032879,19.4372559 L1.14932757,19.4372559 L1.14932757,5.43725586 Z M7.36279297,7.93725586 L7.36279297,8.93725586 C7.36279297,9.21339786 7.58665097,9.43725586 7.86279297,9.43725586 L8.86279297,9.43725586 C9.13893497,9.43725586 9.36279297,9.21339786 9.36279297,8.93725586 L9.36279297,7.93725586 C9.36279297,7.66111386 9.13893497,7.43725586 8.86279297,7.43725586 L7.86279297,7.43725586 C7.58665097,7.43725586 7.36279297,7.66111386 7.36279297,7.93725586 Z M11.362793,7.93725586 L11.362793,8.93725586 C11.362793,9.21339786 11.586651,9.43725586 11.862793,9.43725586 L12.862793,9.43725586 C13.138935,9.43725586 13.362793,9.21339786 13.362793,8.93725586 L13.362793,7.93725586 C13.362793,7.66111386 13.138935,7.43725586 12.862793,7.43725586 L11.862793,7.43725586 C11.586651,7.43725586 11.362793,7.66111386 11.362793,7.93725586 Z M15.362793,7.93725586 L15.362793,8.93725586 C15.362793,9.21339786 15.586651,9.43725586 15.862793,9.43725586 L16.862793,9.43725586 C17.138935,9.43725586 17.362793,9.21339786 17.362793,8.93725586 L17.362793,7.93725586 C17.362793,7.66111386 17.138935,7.43725586 16.862793,7.43725586 L15.862793,7.43725586 C15.586651,7.43725586 15.362793,7.66111386 15.362793,7.93725586 Z M7.36279297,11.9372559 L7.36279297,12.9372559 C7.36279297,13.2133979 7.58665097,13.4372559 7.86279297,13.4372559 L8.86279297,13.4372559 C9.13893497,13.4372559 9.36279297,13.2133979 9.36279297,12.9372559 L9.36279297,11.9372559 C9.36279297,11.6611139 9.13893497,11.4372559 8.86279297,11.4372559 L7.86279297,11.4372559 C7.58665097,11.4372559 7.36279297,11.6611139 7.36279297,11.9372559 Z M11.362793,11.9372559 L11.362793,12.9372559 C11.362793,13.2133979 11.586651,13.4372559 11.862793,13.4372559 L12.862793,13.4372559 C13.138935,13.4372559 13.362793,13.2133979 13.362793,12.9372559 L13.362793,11.9372559 C13.362793,11.6611139 13.138935,11.4372559 12.862793,11.4372559 L11.862793,11.4372559 C11.586651,11.4372559 11.362793,11.6611139 11.362793,11.9372559 Z M15.362793,11.9372559 L15.362793,12.9372559 C15.362793,13.2133979 15.586651,13.4372559 15.862793,13.4372559 L16.862793,13.4372559 C17.138935,13.4372559 17.362793,13.2133979 17.362793,12.9372559 L17.362793,11.9372559 C17.362793,11.6611139 17.138935,11.4372559 16.862793,11.4372559 L15.862793,11.4372559 C15.586651,11.4372559 15.362793,11.6611139 15.362793,11.9372559 Z M3.36279297,11.9372559 L3.36279297,12.9372559 C3.36279297,13.2133979 3.58665097,13.4372559 3.86279297,13.4372559 L4.86279297,13.4372559 C5.13893497,13.4372559 5.36279297,13.2133979 5.36279297,12.9372559 L5.36279297,11.9372559 C5.36279297,11.6611139 5.13893497,11.4372559 4.86279297,11.4372559 L3.86279297,11.4372559 C3.58665097,11.4372559 3.36279297,11.6611139 3.36279297,11.9372559 Z M3.36279297,15.9372559 L3.36279297,16.9372559 C3.36279297,17.2133979 3.58665097,17.4372559 3.86279297,17.4372559 L4.86279297,17.4372559 C5.13893497,17.4372559 5.36279297,17.2133979 5.36279297,16.9372559 L5.36279297,15.9372559 C5.36279297,15.6611139 5.13893497,15.4372559 4.86279297,15.4372559 L3.86279297,15.4372559 C3.58665097,15.4372559 3.36279297,15.6611139 3.36279297,15.9372559 Z M7.36279297,15.9372559 L7.36279297,16.9372559 C7.36279297,17.2133979 7.58665097,17.4372559 7.86279297,17.4372559 L8.86279297,17.4372559 C9.13893497,17.4372559 9.36279297,17.2133979 9.36279297,16.9372559 L9.36279297,15.9372559 C9.36279297,15.6611139 9.13893497,15.4372559 8.86279297,15.4372559 L7.86279297,15.4372559 C7.58665097,15.4372559 7.36279297,15.6611139 7.36279297,15.9372559 Z M11.362793,15.9372559 L11.362793,16.9372559 C11.362793,17.2133979 11.586651,17.4372559 11.862793,17.4372559 L12.862793,17.4372559 C13.138935,17.4372559 13.362793,17.2133979 13.362793,16.9372559 L13.362793,15.9372559 C13.362793,15.6611139 13.138935,15.4372559 12.862793,15.4372559 L11.862793,15.4372559 C11.586651,15.4372559 11.362793,15.6611139 11.362793,15.9372559 Z" id="icon/Month"></path>
                </g>
            </g>
        </g>
    </g>
</svg>