<?xml version="1.0" encoding="UTF-8"?>
<svg width="20px" height="16px" viewBox="0 0 20 16" version="1.1" xmlns="http://www.w3.org/2000/svg" xmlns:xlink="http://www.w3.org/1999/xlink">
    <!-- Generator: sketchtool 55.1 (78136) - https://sketchapp.com -->
    <title>3B65A515-C00D-4DD3-B452-FFEA2CDAAD0B</title>
    <desc>Created with sketchtool.</desc>
    <g id="01.Views" stroke="none" stroke-width="1" fill="none" fill-rule="evenodd">
        <g id="Design-System---Event-Bar-Elements" transform="translate(-156.000000, -3964.000000)" fill="#141827" fill-rule="nonzero">
            <g id="Mobile-View-Select" transform="translate(132.000000, 3672.000000)">
                <g id="View-Select-Open-Mobile" transform="translate(3.000000, 95.562744)">
                    <g id="Photo" transform="translate(21.000000, 196.437256)">
                        <g id="Icon/Views/Photo">
                            <path d="M18.7299342,0.27478992 L0.90756576,0.27478992 C0.630328917,0.27478992 0.41249997,0.487394963 0.41249997,0.757983198 L0.41249997,15.0605042 C0.41249997,15.3310924 0.630328917,15.5436975 0.90756576,15.5436975 L18.7299342,15.5436975 C19.0071711,15.5436975 19.225,15.3310924 19.225,15.0605042 L19.225,0.757983198 C19.225,0.487394963 19.0071711,0.27478992 18.7299342,0.27478992 Z M18.2150658,1.26050421 L18.2150658,11.5815126 L15.4823026,8.64369749 C14.9278289,8.06386555 13.8980921,8.06386555 13.3436184,8.64369749 L12.0168421,10.0546219 L8.17513156,5.74453782 C7.87809208,5.41596639 7.46223682,5.24201681 7.0067763,5.24201681 C7.0067763,5.24201681 7.0067763,5.24201681 7.0067763,5.24201681 C6.5711184,5.24201681 6.13546051,5.43529413 5.85822366,5.76386555 L1.42243419,10.692437 L1.42243419,1.26050421 L18.2150658,1.26050421 Z M1.42243419,14.5579832 L1.42243419,12.1806723 L6.61072366,6.38235295 C6.70973683,6.26638656 6.84835524,6.20840337 7.0067763,6.20840337 C7.14539472,6.20840337 7.3236184,6.26638656 7.42263156,6.38235295 L11.6405921,11.1176471 C11.7396052,11.2142858 11.8782237,11.2915966 12.0168421,11.2915966 C12.1752632,11.3109243 12.294079,11.2336135 12.3930921,11.1369748 L14.0961184,9.32016807 C14.2545395,9.14621849 14.5713816,9.14621849 14.7496053,9.32016807 L18.2348685,13.0504202 L18.2348685,14.5773109 L1.42243419,14.5773109 L1.42243419,14.5579832 Z" id="Shape"></path>
                            <path d="M13.81875,5.65294118 C14.8125,5.65294118 15.6374999,4.82184874 15.6374999,3.77815126 C15.6374999,2.73445379 14.83125,1.90336134 13.81875,1.90336134 C12.80625,1.90336134 12,2.73445379 12,3.77815126 C12,4.82184874 12.8249999,5.65294118 13.81875,5.65294118 Z M13.81875,2.88907563 C14.2874999,2.88907563 14.6812499,3.29495798 14.6812499,3.77815126 C14.6812499,4.26134454 14.2874999,4.6672269 13.81875,4.6672269 C13.35,4.6672269 12.95625,4.26134454 12.95625,3.77815126 C12.95625,3.29495798 13.35,2.88907563 13.81875,2.88907563 Z" id="Shape"></path>
                        </g>
                    </g>
                </g>
            </g>
        </g>
    </g>
</svg>