<svg width="19" height="16" xmlns="http://www.w3.org/2000/svg"><g fill="#141827" fill-rule="nonzero"><path d="M18.411.097H.59A.484.484 0 0 0 .094.58v14.302c0 .27.218.484.495.484H18.41a.484.484 0 0 0 .495-.484V.58a.484.484 0 0 0-.495-.483zm-.515.985v10.321l-2.732-2.937c-.555-.58-1.585-.58-2.14 0l-1.326 1.41-3.842-4.31a1.548 1.548 0 0 0-1.168-.502c-.436 0-.871.193-1.149.522l-4.435 4.928V1.082h16.792zM1.104 14.38v-2.377l5.188-5.799a.504.504 0 0 1 .396-.174c.139 0 .317.058.416.174l4.218 4.735a.568.568 0 0 0 .376.174c.159.02.277-.058.376-.154l1.703-1.817c.159-.174.476-.174.654 0l3.485 3.73V14.4H1.104v-.02z"/><path d="M13.5 5.475c.994 0 1.819-.831 1.819-1.875s-.806-1.875-1.819-1.875c-1.012 0-1.819.831-1.819 1.875s.825 1.875 1.819 1.875zm0-2.764c.469 0 .862.406.862.889s-.393.89-.862.89-.862-.407-.862-.89c0-.483.393-.89.862-.89z"/></g></svg>