<?xml version="1.0" encoding="UTF-8"?>
<svg width="32px" height="22px" viewBox="0 0 32 22" version="1.1" xmlns="http://www.w3.org/2000/svg" xmlns:xlink="http://www.w3.org/1999/xlink">
    <!-- Generator: sketchtool 55.1 (78136) - https://sketchapp.com -->
    <title>269374AE-DFE5-4585-973E-4BFB9BC33CBF</title>
    <desc>Created with sketchtool.</desc>
    <g id="01.Views" stroke="none" stroke-width="1" fill="none" fill-rule="evenodd">
        <g id="Design-System---Event-Bar-Elements" transform="translate(-134.000000, -1748.000000)">
            <g id="Mobile-Event-Bar-Icons" transform="translate(133.000000, 1682.000000)">
                <g id="Icon/Search-&amp;-Filter:Mobile" transform="translate(1.000000, 66.000000)">
                    <path d="M32.130768,18.3945044 C32.442113,18.3945044 32.6968498,18.1761585 32.6968498,17.9092913 L32.6968498,17.0601685 C32.6968498,16.7933014 32.442113,16.5749555 32.130768,16.5749555 C28.0094863,16.5749555 24.9185251,16.5749555 22.8578842,16.5749555 C22.0806194,16.5749555 22.0884422,18.3945044 22.8696185,18.3945044 C24.9276517,18.3945044 28.0147015,18.3945044 32.130768,18.3945044 Z" id="Path" fill="#141827" fill-rule="nonzero" transform="translate(27.488081, 17.484730) rotate(45.000000) translate(-27.488081, -17.484730) "></path>
                    <circle id="Oval" stroke="#141827" stroke-width="1.5" transform="translate(18.777295, 8.777295) rotate(4.000000) translate(-18.777295, -8.777295) " cx="18.7772947" cy="8.77729471" r="7.56426213"></circle>
                    <path d="M7.44237019,9.53333333 C7.74906657,9.53333333 8,9.29333333 8,9 L8,8.53333333 C8,8.24 7.74906657,8 7.44237019,8 L0.557629806,8 C0.250933418,8 0,8.24 0,8.53333333 L0,9 C0,9.29333333 0.250933418,9.53333333 0.557629806,9.53333333 L7.44237019,9.53333333 Z" id="Path" fill="#141827" fill-rule="nonzero"></path>
                    <path d="M9.53323324,2.49987793 C9.78995494,2.49987793 10,2.25987793 10,1.9665446 L10,1.53333333 C10,1.24 9.78995494,1 9.53323324,1 L0.466766763,1 C0.210045047,1 0,1.24 0,1.53333333 L0,1.9665446 C0,2.25987793 0.210045047,2.49987793 0.466766763,2.49987793 L9.53323324,2.49987793 Z" id="Path" fill="#141827" fill-rule="nonzero"></path>
                    <path d="M0.534912654,16.5333333 L4.46508735,16.5333333 C4.75928929,16.5333333 5,16.2933333 5,16 L5,15.5333333 C5,15.24 4.75928929,15 4.46508735,15 L0.534912654,15 C0.240710699,15 0,15.24 0,15.5333333 L0,16 C0,16.2933333 0.240710699,16.5333333 0.534912654,16.5333333 Z" id="Path" fill="#141827" fill-rule="nonzero"></path>
                </g>
            </g>
        </g>
    </g>
</svg>