<svg width="41" height="41" viewBox="0 0 41 41" fill="none" xmlns="http://www.w3.org/2000/svg">
<circle cx="20.9944" cy="20.6724" r="20" fill="#334AFF"/>
<path fill-rule="evenodd" clip-rule="evenodd" d="M21.9989 24.6674C21.143 25.0146 20.351 25.2019 19.7751 25.1708C19.0292 25.1293 18.7107 24.8003 18.7096 24.6766C18.709 24.5885 18.9871 24.3125 19.8456 24.2501C19.9802 24.2405 20.1223 24.2344 20.2686 24.2344C20.8552 24.2344 21.5081 24.3309 21.9989 24.6674M23.5999 32.2315C20.4617 33.0971 17.1454 32.2988 15.1501 30.1958C13.7382 28.7079 13.2648 26.8457 13.851 25.0869C15.0302 21.5482 20.6819 19.4243 24.2939 19.4243C24.3328 19.4243 24.3715 19.4245 24.4098 19.425C25.7557 19.4423 26.6877 19.7676 26.8423 20.2745C26.9288 20.5582 26.7241 21.0547 26.2946 21.6024C25.5366 22.569 24.3849 23.4449 23.2134 24.0874C22.4708 23.2726 21.2794 22.9018 19.7558 23.0115C18.0597 23.1347 17.4618 23.9578 17.4679 24.687C17.4746 25.4821 18.2456 26.3296 19.7062 26.4108C20.5902 26.459 21.6467 26.1867 22.7077 25.7225C22.8634 26.3334 22.8151 27.1348 22.5604 28.0904C22.4721 28.4216 22.669 28.762 23.0003 28.8503C23.3312 28.9386 23.6717 28.7417 23.7602 28.4103C24.1064 27.1119 24.1321 26.0228 23.8383 25.1575C25.2235 24.3802 26.5039 23.3476 27.2716 22.3688C27.9921 21.4502 28.2471 20.6237 28.0302 19.912C27.8726 19.3954 27.5014 18.9855 26.9422 18.6948C26.9849 14.029 27.812 10.8062 28.5566 10.8018H28.5612C28.6706 10.8018 28.8186 10.8263 28.9999 11.0065C29.6049 11.6078 30.3257 13.5818 30.3257 19.5719C30.3257 25.4823 29.8198 30.5145 23.5999 32.2315M17.6754 18.4465C17.6747 18.431 17.6766 18.4157 17.6747 18.4C17.672 18.3776 17.6693 18.3538 17.6664 18.3308C17.5772 17.0568 17.73 16.0527 18.1186 15.5142C18.3116 15.2468 18.5537 15.1036 18.8806 15.0634C19.3364 15.0084 19.7071 15.126 20.0185 15.4251C20.6216 16.0048 20.9735 17.2582 20.94 18.6294C19.9061 18.8845 18.8474 19.2478 17.8417 19.7154C17.7624 19.2704 17.7076 18.8464 17.6754 18.4465M23.0244 16.2829C23.253 16.0341 23.5447 15.9131 23.9168 15.9131C24.5081 15.9131 24.7651 16.1065 24.9072 16.252C25.247 16.6 25.43 17.2749 25.4551 18.2577C25.137 18.2136 24.7941 18.188 24.4256 18.1834C24.3837 18.1828 24.3419 18.1826 24.2996 18.1826C23.7391 18.1826 23.1282 18.2313 22.4904 18.3239C22.4629 17.4233 22.6511 16.6894 23.0244 16.2829M29.8755 10.1259C29.503 9.75556 29.0484 9.56004 28.56 9.56004H28.5491C26.9131 9.5698 26.3487 12.0107 26.0663 13.8459C25.9835 14.3844 25.9196 14.934 25.8698 15.466C25.8455 15.4389 25.8215 15.4107 25.7961 15.3847C25.3341 14.9114 24.7018 14.6715 23.9168 14.6715C23.1981 14.6715 22.5732 14.9381 22.1098 15.4429C21.9776 15.5869 21.8641 15.7537 21.7614 15.9326C21.5567 15.3938 21.2704 14.9061 20.8792 14.5298C20.2978 13.9712 19.5549 13.7293 18.7291 13.8308C18.0637 13.9126 17.5043 14.2431 17.1115 14.7874C17.11 14.7898 17.1086 14.7925 17.1069 14.7946C16.4265 11.4012 15.1329 7.30353 12.8758 7.53793C12.3204 7.59634 11.8296 7.89528 11.4567 8.40201C9.71558 10.769 10.5325 17.8076 11.2896 21.5932C11.3487 21.8884 11.6078 22.0927 11.8978 22.0927C11.9382 22.0927 11.9792 22.0887 12.0203 22.0804C12.3564 22.0132 12.5746 21.6861 12.5073 21.3498C11.2396 15.011 11.5224 10.4084 12.4572 9.13796C12.6768 8.8394 12.8754 8.78655 13.0058 8.77295C14.2518 8.6433 15.7867 12.9966 16.4345 18.4911C16.4864 19.1715 16.5895 19.8086 16.6888 20.3038C16.6892 20.3061 16.6904 20.3082 16.6908 20.3105C14.8249 21.386 13.2852 22.8566 12.6728 24.6945C11.9367 26.9023 12.5114 29.2194 14.2493 31.0509C15.946 32.8388 18.4494 33.8164 21.0772 33.8164C22.0226 33.8162 22.9846 33.6897 23.9302 33.4286C30.9835 31.4818 31.5676 25.7633 31.5676 19.5721C31.5676 14.2751 31.0299 11.2736 29.8755 10.1259" fill="white"/>
</svg>
