<svg width="13" height="16" viewBox="0 0 13 16" fill="none" xmlns="http://www.w3.org/2000/svg">
<path fill-rule="evenodd" clip-rule="evenodd" d="M6.66701 9.96778C6.18134 10.1648 5.73187 10.2711 5.40509 10.2535C4.98181 10.2299 4.80108 10.0432 4.80043 9.973C4.80011 9.92301 4.9579 9.76641 5.44508 9.73098C5.52148 9.72555 5.60212 9.72207 5.68514 9.72207C6.01801 9.72207 6.38848 9.77684 6.66701 9.96778M7.57551 14.2603C5.79468 14.7515 3.91279 14.2984 2.78052 13.1051C1.97927 12.2607 1.71063 11.204 2.04328 10.2059C2.71249 8.19785 5.91966 6.99255 7.96935 6.99255C7.99141 6.99255 8.01336 6.99266 8.03509 6.99299C8.79885 7.00277 9.32776 7.1874 9.41546 7.47506C9.46458 7.63601 9.34841 7.9178 9.10466 8.2286C8.67453 8.77708 8.02097 9.27415 7.35621 9.63875C6.93478 9.17634 6.25872 8.96595 5.39411 9.02822C4.43159 9.0981 4.09232 9.56518 4.09579 9.979C4.0996 10.4302 4.53712 10.9111 5.36597 10.9572C5.8676 10.9846 6.46715 10.83 7.0692 10.5666C7.15756 10.9133 7.13017 11.3681 6.98563 11.9103C6.93554 12.0982 7.04725 12.2915 7.23526 12.3416C7.42305 12.3917 7.61627 12.2799 7.66647 12.0918C7.86295 11.355 7.87752 10.737 7.71081 10.246C8.49685 9.80491 9.22344 9.21894 9.65911 8.66351C10.0679 8.14221 10.2127 7.67317 10.0896 7.26934C10.0001 6.97614 9.78952 6.74358 9.47219 6.57862C9.49642 3.9309 9.96578 2.10204 10.3883 2.09954H10.3909C10.453 2.09954 10.537 2.11345 10.6399 2.21571C10.9832 2.55694 11.3922 3.67715 11.3922 7.07634C11.3922 10.4303 11.1051 13.2859 7.57551 14.2603M4.2136 6.43756C4.21316 6.42875 4.21425 6.42006 4.21316 6.41115C4.21164 6.39843 4.21012 6.38496 4.20849 6.37192C4.15785 5.64891 4.24457 5.07914 4.46507 4.77355C4.57461 4.62184 4.71197 4.54055 4.89748 4.51773C5.15612 4.48654 5.36651 4.55327 5.54321 4.72302C5.88543 5.05197 6.08517 5.76324 6.06615 6.54134C5.47942 6.68609 4.87868 6.89225 4.30792 7.15763C4.26293 6.90507 4.23185 6.66447 4.2136 6.43756M7.24895 5.20985C7.37871 5.06868 7.54422 5 7.75537 5C8.09095 5 8.23679 5.10976 8.31743 5.19235C8.51021 5.38981 8.6141 5.77278 8.62834 6.33049C8.44783 6.30549 8.2532 6.29093 8.04411 6.28832C8.02031 6.288 7.99662 6.28789 7.97261 6.28789C7.65452 6.28789 7.30785 6.31549 6.94597 6.36809C6.93032 5.857 7.03715 5.44056 7.24895 5.20985M11.1367 1.71589C10.9254 1.50571 10.6674 1.39476 10.3903 1.39476H10.3841C9.45567 1.4003 9.13541 2.78545 8.97512 3.82687C8.92817 4.13246 8.89188 4.44435 8.86362 4.74624C8.84982 4.73081 8.83624 4.71484 8.82178 4.70006C8.55966 4.43153 8.20082 4.29536 7.75537 4.29536C7.34752 4.29536 6.99292 4.44663 6.72993 4.73309C6.65494 4.81482 6.5905 4.90947 6.53225 5.01097C6.41608 4.70527 6.25361 4.42848 6.03159 4.21494C5.70166 3.89794 5.28012 3.76069 4.81152 3.81828C4.43388 3.86469 4.11644 4.05226 3.89356 4.36111C3.89269 4.36252 3.89193 4.36404 3.89095 4.36524C3.50483 2.43954 2.77074 0.114261 1.48992 0.247277C1.17477 0.280423 0.896236 0.450062 0.684649 0.737611C-0.303408 2.08081 0.160192 6.07499 0.589778 8.22325C0.623358 8.39071 0.770393 8.50667 0.934924 8.50667C0.957854 8.50667 0.98111 8.50439 1.00448 8.49971C1.1952 8.46157 1.31898 8.27595 1.28083 8.08512C0.561414 4.48804 0.721924 1.87618 1.25236 1.15524C1.37701 0.985821 1.4897 0.955827 1.56371 0.948112C2.27074 0.87454 3.14175 3.3449 3.5094 6.46285C3.53885 6.84896 3.59731 7.21052 3.65371 7.49155C3.65393 7.49285 3.65458 7.49405 3.6548 7.49535C2.596 8.10566 1.72226 8.94017 1.37473 9.9831C0.956985 11.236 1.28311 12.5508 2.26932 13.5902C3.23217 14.6048 4.65275 15.1595 6.14396 15.1595C6.68048 15.1594 7.22635 15.0876 7.76298 14.9395C11.7655 13.8347 12.097 10.5896 12.097 7.07631C12.097 4.0704 11.7918 2.36717 11.1367 1.71589" fill="#0F1031"/>
</svg>
