<?xml version="1.0" encoding="UTF-8"?>
<!-- Generated by Pixelmator Pro 2.4.1 -->
<svg width="600" height="600" viewBox="0 0 600 600" xmlns="http://www.w3.org/2000/svg" xmlns:xlink="http://www.w3.org/1999/xlink">
    <g id="icomoon-ignore"/>
    <path id="Path-copy" fill="#ffcf48" fill-rule="evenodd" stroke="#000000" stroke-width="43" stroke-linecap="round" stroke-linejoin="round" d="M 310.328125 23.53125 L 319.828125 26.765625 L 329.390625 32.453125 L 336.8125 38.96875 L 343.6875 47.09375 L 349.15625 55.671875 L 570.828125 497.359375 L 575.25 509.015625 L 577.515625 522.125 L 577.015625 533.21875 L 575.625 539.640625 L 573 546.890625 L 568.328125 554.875 L 563.15625 560.890625 L 557.296875 565.875 L 550.765625 569.953125 L 543.734375 573.09375 L 536.21875 575.390625 L 527.59375 576.9375 L 519.65625 577.484375 L 81.8125 577.5 L 68.953125 576.46875 L 61.71875 574.84375 L 54.4375 572.390625 L 47.515625 568.984375 L 41.1875 564.71875 L 35.5 559.53125 L 30.65625 553.4375 L 26.890625 546.65625 L 24.28125 539.453125 L 22.828125 532.0625 L 22.46875 525.875 L 22.890625 518.453125 L 24.296875 510.890625 L 26.34375 504.15625 L 29.296875 497.046875 L 250.828125 55.671875 L 256.296875 47.09375 L 263.171875 38.96875 L 270.453125 32.578125 L 278.609375 27.546875 L 287.78125 23.984375 L 299.03125 22.328125 Z"/>
    <path id="Path" fill="#000000" stroke="none" visibility="hidden" d="M 300 90.386993 L 514.550964 518 L 85.447998 518 L 300 90.386993 Z M 300 44 C 288.964996 44 277.929993 51.44104 269.557983 66.323975 L 51.021 501.880005 C 34.278 531.645996 48.521 556 82.672997 556 L 517.326965 556 C 551.47699 556 565.723022 531.645996 548.97699 501.880005 L 548.977966 501.880005 L 330.44101 66.323975 C 322.070007 51.44104 311.035004 44 300 44 L 300 44 Z"/>
    <path id="path1" fill="#000000" stroke="none" d="M 332 460 C 332 477.673004 317.673004 492 300 492 C 282.326996 492 268 477.673004 268 460 C 268 442.326996 282.326996 428 300 428 C 317.673004 428 332 442.326996 332 460 Z"/>
    <path id="path2" fill="#000000" stroke="none" d="M 300 396 C 282.326996 396 268 377.91217 268 355.600006 L 268 234.399994 C 268 212.08783 282.326996 194 300 194 C 317.673004 194 332 212.08783 332 234.399994 L 332 355.600006 C 332 377.91217 317.673004 396 300 396 Z"/>
</svg>
