<svg width="18" height="18" xmlns="http://www.w3.org/2000/svg"><path d="M0 .431V17.57c0 .238.163.431.364.431h17.272c.201 0 .364-.193.364-.431V.43C18 .193 17.837 0 17.636 0H.364C.163 0 0 .193 0 .431zm.99.808h15.996v2.314H.99V1.24zm0 3.449h15.996v12.07H.99V4.687zm5.357 5.603v.862c0 .238.193.431.431.431h.862a.431.431 0 0 0 .431-.43v-.863a.431.431 0 0 0-.43-.43h-.863a.431.431 0 0 0-.43.43zm3.449 0v.862c0 .238.192.431.43.431h.863a.431.431 0 0 0 .43-.43v-.863a.431.431 0 0 0-.43-.43h-.862a.431.431 0 0 0-.431.43zm3.448 0v.862c0 .238.193.431.43.431h.863a.431.431 0 0 0 .43-.43v-.863a.431.431 0 0 0-.43-.43h-.862a.431.431 0 0 0-.431.43zm-10.345 0v.862c0 .238.193.431.431.431h.862a.431.431 0 0 0 .431-.43v-.863a.431.431 0 0 0-.43-.43H3.33a.431.431 0 0 0-.431.43z" fill="#141827" fill-rule="nonzero"/></svg>