<?xml version="1.0" encoding="UTF-8"?>
<svg width="21px" height="21px" viewBox="0 0 21 21" version="1.1" xmlns="http://www.w3.org/2000/svg" xmlns:xlink="http://www.w3.org/1999/xlink">
    <!-- Generator: sketchtool 55.1 (78136) - https://sketchapp.com -->
    <title>59572DF4-0D57-4029-824F-1D0ACEC2E4D2</title>
    <desc>Created with sketchtool.</desc>
    <g id="01.Views" stroke="none" stroke-width="1" fill="none" fill-rule="evenodd">
        <g id="Design-System---Event-Bar-Elements" transform="translate(-716.000000, -3768.000000)" fill="#141827" fill-rule="nonzero">
            <g id="Mobile-View-Select" transform="translate(132.000000, 3672.000000)">
                <g id="View-Select-Open-Mobile-Week" transform="translate(442.000000, 95.562744)">
                    <g id="Week" transform="translate(21.000000, 0.437256)">
                        <g id="Icon/Views/Week" transform="translate(121.000000, 0.000000)">
                            <path d="M0,0.502899905 L0,20.4971001 C0,20.7748437 0.189878312,21 0.424104368,21 L20.5758956,21 C20.8101217,21 21,20.7748437 21,20.4971001 L21,0.502899905 C21,0.225156334 20.8101217,0 20.5758956,0 L0.424104368,0 C0.189878312,0 0,0.225156334 0,0.502899905 Z M1.15593287,1.44559161 L19.8165246,1.44559161 L19.8165246,4.14573185 L1.15593287,4.14573185 L1.15593287,1.44559161 Z M1.15593287,5.46879117 L19.8165246,5.46879117 L19.8165246,19.5499891 L1.15593287,19.5499891 L1.15593287,5.46879117 Z M7.40510774,12.0064899 L7.40510774,13.0122897 C7.40510774,13.2900333 7.63025227,13.5151896 7.90798129,13.5151896 L8.9137284,13.5151896 C9.19145742,13.5151896 9.41660196,13.2900333 9.41660196,13.0122897 L9.41660196,12.0064899 C9.41660196,11.7287463 9.19145742,11.5035899 8.9137284,11.5035899 L7.90798129,11.5035899 C7.63025227,11.5035899 7.40510774,11.7287463 7.40510774,12.0064899 Z M11.4280965,12.0064899 L11.4280965,13.0122897 C11.4280965,13.2900333 11.653241,13.5151896 11.93097,13.5151896 L12.9367171,13.5151896 C13.2144461,13.5151896 13.4395907,13.2900333 13.4395907,13.0122897 L13.4395907,12.0064899 C13.4395907,11.7287463 13.2144461,11.5035899 12.9367171,11.5035899 L11.93097,11.5035899 C11.653241,11.5035899 11.4280965,11.7287463 11.4280965,12.0064899 Z M15.4510846,12.0064899 L15.4510846,13.0122897 C15.4510846,13.2900333 15.6762292,13.5151896 15.9539582,13.5151896 L16.9597053,13.5151896 C17.2374343,13.5151896 17.4625788,13.2900333 17.4625788,13.0122897 L17.4625788,12.0064899 C17.4625788,11.7287463 17.2374343,11.5035899 16.9597053,11.5035899 L15.9539582,11.5035899 C15.6762292,11.5035899 15.4510846,11.7287463 15.4510846,12.0064899 Z M3.3821193,12.0064899 L3.3821193,13.0122897 C3.3821193,13.2900333 3.60726383,13.5151896 3.88499285,13.5151896 L4.89073996,13.5151896 C5.16846898,13.5151896 5.39361352,13.2900333 5.39361352,13.0122897 L5.39361352,12.0064899 C5.39361352,11.7287463 5.16846898,11.5035899 4.89073996,11.5035899 L3.88499285,11.5035899 C3.60726383,11.5035899 3.3821193,11.7287463 3.3821193,12.0064899 Z"></path>
                        </g>
                    </g>
                </g>
            </g>
        </g>
    </g>
</svg>