<svg width="80" height="86" viewBox="0 0 80 86" fill="none" xmlns="http://www.w3.org/2000/svg">
<g id="EventAggregator-icon">
<path id="Fill" fill-rule="evenodd" clip-rule="evenodd" d="M53.2931 42.2056C53.2931 50.6446 46.4514 57.4874 38.0113 57.4874C29.5712 57.4874 22.7295 50.6446 22.7295 42.2056C22.7295 33.7655 29.5712 26.9238 38.0113 26.9238C46.4514 26.9238 53.2931 33.7655 53.2931 42.2056Z" fill="#334AFF"/>
<path id="Shape" fill-rule="evenodd" clip-rule="evenodd" d="M32.3763 11.2623C35.1902 9.83914 36.4203 6.44424 35.1241 3.53188C33.7873 0.529764 30.2696 -0.820825 27.2662 0.515876C24.2641 1.85268 22.9135 5.37042 24.2504 8.37405C25.1893 10.4812 27.2013 11.7745 29.3559 11.8963L32.3022 22.4749L32.3543 22.6295C32.6335 23.3293 33.4011 23.7207 34.1434 23.5139C34.882 23.3082 35.3358 22.5827 35.2195 21.8433L35.1824 21.6727L32.2936 11.3019L32.3763 11.2623ZM79.3338 17.4223C80.63 20.3347 79.3998 23.7296 76.5859 25.1527L76.3175 25.2803C73.9789 26.3211 71.329 25.7328 69.6391 24.0037L69.5015 24.0959L56.4308 31.797L56.286 31.8722C55.5994 32.1825 54.7751 31.9318 54.3839 31.2679C53.9927 30.604 54.173 29.7614 54.7771 29.3113L54.913 29.221L67.9837 21.5198L68.1613 21.4303C67.383 18.6379 68.7473 15.6213 71.4759 14.4063C74.4792 13.0696 77.997 14.4202 79.3338 17.4223ZM38.0115 25.4285C47.2772 25.4285 54.7882 32.9395 54.7882 42.2052C54.7882 51.4702 47.2768 58.982 38.0115 58.982C28.7461 58.982 21.2347 51.4702 21.2347 42.2052C21.2347 32.9395 28.7457 25.4285 38.0115 25.4285ZM55.9487 53.8145L56.0981 53.8977L56.2399 53.9995L60.9248 57.7912C61.2785 57.5248 61.6675 57.2941 62.0891 57.1063C65.0925 55.7696 68.6102 57.1202 69.947 60.1223C71.2837 63.1257 69.9337 66.6422 66.9307 67.9803C63.9276 69.3169 60.4111 67.9669 59.0733 64.9645C58.3615 63.3652 58.4116 61.6201 59.0672 60.1361L54.3586 56.3234L54.2375 56.2141C53.7064 55.6797 53.6525 54.8197 54.1373 54.2208C54.5826 53.6708 55.3379 53.5194 55.9487 53.8145ZM33.7287 62.5353C33.92 61.8066 33.5352 61.0356 32.8153 60.7608C32.0954 60.486 31.2947 60.8045 30.9518 61.4753L30.8855 61.6244L26.1069 74.14C25.0676 74.0102 23.9807 74.1531 22.954 74.6101C19.9518 75.9469 18.6013 79.4647 19.9381 82.4683C21.2759 85.4707 24.7924 86.8207 27.7956 85.4841L28.064 85.3565C30.8779 83.9334 32.108 80.5385 30.8118 77.6261C30.3734 76.6416 29.7004 75.8346 28.8879 75.2418L33.6789 62.6906L33.7287 62.5353ZM22.6694 81.2519C22.0042 79.7573 22.6764 78.0067 24.17 77.3416C25.6646 76.6764 27.4153 77.3485 28.0803 78.8421C28.7457 80.3369 28.0739 82.0868 26.5798 82.7525C25.085 83.4178 23.3352 82.746 22.6694 81.2519ZM61.8047 63.7482C61.1395 62.2536 61.8117 60.5029 63.3053 59.8378C64.7999 59.1726 66.5506 59.8447 67.2156 61.3383C67.881 62.8332 67.2092 64.583 65.7151 65.2487C64.2203 65.914 62.4705 65.2423 61.8047 63.7482ZM24.2246 42.2052C24.2246 34.5908 30.397 28.4184 38.0115 28.4184C45.6259 28.4184 51.7983 34.5908 51.7983 42.2052C51.7983 49.8189 45.6255 55.9921 38.0115 55.9921C30.3974 55.9921 24.2246 49.8189 24.2246 42.2052ZM11.3897 38.1488C11.5617 38.5353 11.6892 38.9303 11.7745 39.3281L17.351 39.6541L17.5131 39.6723C18.2561 39.7971 18.8011 40.4644 18.7562 41.2337C18.7112 42.003 18.0921 42.6023 17.3397 42.6396L17.1765 42.6389L11.6427 42.3146C11.1552 43.9018 10.0097 45.2776 8.37343 46.0067C5.3703 47.3433 1.85376 45.9933 0.515963 42.9909C-0.820884 39.9873 0.529706 36.4696 3.53183 35.1328C6.53513 33.7961 10.0529 35.1466 11.3897 38.1488ZM3.2473 41.7746C2.58208 40.28 3.25423 38.5293 4.74784 37.8642C6.24245 37.199 7.99313 37.8711 8.65821 39.3648C9.32352 40.8596 8.65177 42.6094 7.15711 43.2754L6.96136 43.3544C5.51274 43.8805 3.88409 43.2037 3.2473 41.7746ZM72.6919 17.1378C71.1983 17.8028 70.5262 19.5535 71.1914 21.0481C71.8571 22.5422 73.6069 23.214 75.1017 22.5487C76.5958 21.8829 77.2676 20.1331 76.6023 18.6383C75.9372 17.1447 74.1865 16.4725 72.6919 17.1378ZM26.9817 7.15771C26.3165 5.6631 26.9887 3.91242 28.4823 3.24734C29.9769 2.58212 31.7275 3.25427 32.3926 4.74788C33.0579 6.2427 32.3862 7.99252 30.8921 8.65825C29.3973 9.32356 27.6475 8.65181 26.9817 7.15771Z" fill="#0F1031"/>
</g>
</svg>
