<?xml version="1.0" encoding="utf-8"?>
<!-- Generator: Adobe Illustrator 22.1.0, SVG Export Plug-In . SVG Version: 6.00 Build 0)  -->
<svg version="1.1" id="Layer_1" xmlns="http://www.w3.org/2000/svg" xmlns:xlink="http://www.w3.org/1999/xlink" x="0px" y="0px"
	 viewBox="0 0 357.9 244.1" style="enable-background:new 0 0 357.9 244.1;" xml:space="preserve">
<style type="text/css">
	.st0{fill:#FFFFFF;}
	.st1{fill:#064F69;}
	.st2{fill:#70C6EF;}
</style>
<g>
	<path class="st0" d="M76.7,98.4l222-51.7l6.6,24.4L300,82.4l-1,10.8l5.4,3.9l7.2,3.2l2.6,9.3l-6.4,10.8l1.9,11.9l11.6,7.1l5.2,23.4
		l-222.8,52.8l-7-26.9l6.8-7.6l-1.9-9.3l-9-8.9l-3.3-2.1L87,152l5.3-8.3l1-9.4l-4.4-5.7l-9-7.1C80,121.4,76.7,98.4,76.7,98.4z"/>
	<path class="st1" d="M330.3,163.6l-6.1-26.6c-0.4-1.5-1.7-2.6-3.2-2.6c-4.8-0.3-8.7-3.7-9.8-8.3c-1.1-4.6,1-9.4,5.1-11.7
		c1.4-0.7,2.1-2.2,1.7-3.8l-2.8-12.1c-0.4-1.5-1.7-2.6-3.2-2.6c-3.6-0.2-6.8-2.3-8.6-5.3c-2.9-5.2-1.1-11.7,4-14.6
		c1.4-0.7,2.1-2.2,1.7-3.8l-6.1-26.6c-0.4-1.9-2.4-3.2-4.3-2.7L75.2,94.3c-1.9,0.4-3.2,2.4-2.7,4.3l6.3,27.2
		c0.3,1.3,1.3,2.3,2.6,2.6c2.4,0.5,4.5,1.8,6.1,3.8c3.7,4.7,2.9,11.5-1.7,15.2c-1,0.8-1.5,2.2-1.2,3.5l3.1,13.6
		c0.3,1.3,1.3,2.3,2.6,2.6c2.4,0.5,4.5,1.8,6.1,3.8c3.7,4.7,2.9,11.5-1.7,15.2c-1,0.8-1.5,2.2-1.2,3.5l6.3,27.3h0
		c0.4,1.9,2.4,3.2,4.3,2.7l223.6-51.5C329.6,167.5,330.8,165.5,330.3,163.6z M319.5,162.8l-210.6,48.4c-1.9,0.4-3.7-0.7-4.1-2.6
		l-3.9-17.1v0c-0.2-1,0.1-2.2,0.7-2.9c0.9-1.1,1.6-2.3,2.2-3.5c4.2-8.9,0.4-19.4-8.4-23.6c-1-0.4-1.7-1.3-2-2.4L92,153
		c-0.2-1,0.1-2.2,0.7-3c0.9-1.1,1.6-2.3,2.2-3.5c4.2-8.9,0.4-19.4-8.4-23.6c-1-0.5-1.7-1.4-2-2.4l-3.9-17.1
		c-0.4-1.9,0.7-3.7,2.6-4.1L293.8,51c1.9-0.4,3.7,0.7,4.1,2.6l3.6,15.8c0.3,1.1-0.1,2.4-0.9,3.2c-2.1,2-3.6,4.5-4.5,7.2
		c-3,9.2,2,19.1,11.2,22.2c1.2,0.4,2,1.3,2.2,2.4l0.8,3.6c0.3,1.1-0.1,2.4-0.9,3.2c-4.4,4.3-6.3,10.5-4.9,16.6
		c1.4,6,5.8,10.8,11.7,12.7c1.2,0.4,2,1.3,2.2,2.4l3.6,15.8C322.5,160.5,321.4,162.3,319.5,162.8z"/>
	<path class="st2" d="M110.7,111l162-38.6c0.8-0.1,1.5,0.3,1.7,1.1l3.1,13.3c0.1,0.8-0.3,1.5-1.1,1.7l-162,38.6
		c-0.8,0.1-1.5-0.3-1.7-1.1l-3.1-13.3C109.5,112,109.9,111.2,110.7,111L110.7,111z M126.6,175.3l162-38.6c0.8-0.1,1.5,0.3,1.7,1.1
		l3.1,13.3c0.1,0.8-0.3,1.5-1.1,1.7l-162,38.6c-0.8,0.1-1.5-0.3-1.7-1.1l-3.1-13.3C125.4,176.2,125.8,175.4,126.6,175.3z"/>
	<path class="st1" d="M209.5,126.8l-2.7-11.8c-0.1-0.6-0.1-0.7,0.5-0.9c0.6-0.1,1.1-0.3,1.7-0.3c1.3,0.1,2.2,0.8,2.8,1.9
		c0.2,0.4,0.4,0.9,0.5,1.4c0.3,1.3,0.6,2.6,0.9,3.8c0.1,0.5,0.1,0.5,0.6,0.2c1-0.7,2.1-1.2,3.2-1.5c1.4-0.4,2.8-0.4,4.2-0.2
		c2.7,0.5,4.8,2.1,6,4.5c1,1.9,1.4,3.9,1.3,6c-0.2,3-1.6,5.3-4.2,7c-1.1,0.8-2.4,1.3-3.8,1.7c-2.3,0.6-4.7,0.9-7.1,0.7
		c-0.9-0.1-0.9-0.1-1.2-1c-0.3-1.2-0.6-2.4-0.8-3.6C210.8,132.2,210.1,129.4,209.5,126.8L209.5,126.8z M215.4,130.4
		c0.3,1.4,0.6,2.7,1,4c0.1,0.6,0.3,0.7,0.9,0.7c1.2,0,2.3-0.2,3.4-0.7c1.9-0.9,2.9-2.3,3-4.4c0.1-1-0.1-2-0.4-2.9
		c-0.6-1.4-1.5-2.4-3-2.7c-2.1-0.6-3.9,0-5.5,1.3c-0.3,0.2-0.3,0.4-0.2,0.8C214.7,127.7,215,129.1,215.4,130.4L215.4,130.4z
		 M117.6,151.5l-2.2-9.3c-0.1-0.4-0.1-0.9-0.2-1.3c0-1.9,1.4-3.4,2.9-3.8l0.4-0.1l10.4-2.4c0.6-0.1,0.6-0.1,0.8,0.5l0.8,3.3l0.1,0.4
		c0,0.1-0.1,0.2-0.2,0.3c-0.1,0.1-0.3,0.1-0.4,0.1l-8.9,2.1c-0.7,0.1-0.7,0.2-0.6,0.9l0.9,3.7l0.1,0.3c0.1,0.3,0.2,0.4,0.5,0.4
		l0.4-0.1c2.6-0.6,5.2-1.2,7.7-1.8c0.6-0.1,0.6-0.1,0.8,0.5l0.7,3.2l0.1,0.4c0,0.1-0.1,0.3-0.2,0.4l-0.3,0.1l-7.8,1.8l-0.4,0.1
		c-0.2,0.1-0.4,0.2-0.3,0.4c0,0.1,0,0.2,0.1,0.3c0.3,1.3,0.6,2.6,0.9,4l0.1,0.3c0.1,0.2,0.2,0.3,0.4,0.3l0.4-0.1
		c3.1-0.7,6.1-1.5,9.2-2.1c0.6-0.1,0.6-0.1,0.9,0.5c0.1,0.5,0.3,1,0.3,1.6c-0.1,1.3-0.7,2.2-1.9,2.7c-0.4,0.2-0.9,0.4-1.4,0.5
		l-11.3,2.7c-0.1,0-0.1,0-0.2,0.1c-0.1,0-0.3-0.1-0.4-0.2l-0.1-0.4C119.2,158,118.4,154.8,117.6,151.5L117.6,151.5z M279.1,116.5
		l-4.7,1.1l-0.3,0.1c-0.4,0.1-0.5,0.2-0.3,0.6c0.3,0.6,0.8,1.1,1.4,1.6c1,0.7,2.2,0.9,3.4,0.9c1.4,0,2.6-0.5,3.8-1
		c0.9-0.4,1.7-0.9,2.5-1.5c0.4-0.3,0.4-0.3,0.7,0.1c0.9,1.1,1.2,2.8-0.1,4.1c-0.6,0.7-1.4,1.1-2.3,1.5c-1.2,0.5-2.4,0.9-3.7,1.1
		c-1.7,0.3-3.5,0.2-5.1-0.3c-2-0.7-3.5-2.1-4.6-3.9c-1.3-2.4-1.8-5-1.3-7.8c0.6-3.2,2.4-5.3,5.4-6.4c1.3-0.5,2.7-0.7,4-0.7
		c2,0.1,3.7,0.9,4.9,2.5c0.8,1,1.3,2.1,1.7,3.3c0.2,0.6,0.4,1.1,0.5,1.7c0.4,1.1-0.3,1.8-1.2,2C282.3,115.6,280.7,116.1,279.1,116.5
		L279.1,116.5z M276.7,114l3.2-0.7c0.4-0.1,0.5-0.2,0.4-0.6l-0.4-0.9c-0.5-0.9-1.2-1.6-2.3-1.8c-1.4-0.2-2.7,0.2-3.7,1.3
		c-0.6,0.7-0.9,1.6-0.9,2.5c0,0.3-0.1,0.5,0,0.8c0,0.2,0.1,0.3,0.4,0.3l0.3-0.1C274.6,114.5,275.6,114.2,276.7,114z M165.2,143.2
		c-1.6,0.4-3.2,0.7-4.7,1.1l-0.3,0.1c-0.4,0.1-0.4,0.2-0.3,0.6c0.1,0.3,0.3,0.5,0.4,0.7c0.6,0.7,1.4,1.2,2.2,1.5
		c1.4,0.4,2.7,0.3,4.1-0.1c1.6-0.5,3-1.2,4.4-2.2c0.3-0.2,0.4-0.2,0.6,0.1c1,1.1,1.2,2.7,0.2,4c-0.6,0.7-1.3,1.1-2.1,1.5
		c-1.4,0.7-2.7,1.1-4.2,1.3c-1.3,0.2-2.6,0.2-3.9,0c-2.5-0.6-4.5-1.9-5.6-4.2c-1.4-2.5-1.8-5.2-1.3-7.9c0.6-2.9,2.2-4.9,4.9-6.1
		c1.4-0.7,3-1,4.6-0.9c2,0.1,3.6,0.9,4.9,2.5c0.8,1,1.3,2.1,1.7,3.3c0.2,0.6,0.4,1.2,0.5,1.9c0.3,0.9-0.3,1.7-1.2,2
		C168.5,142.4,166.9,142.9,165.2,143.2L165.2,143.2z M162.9,140.8l3.2-0.7c0.4-0.1,0.5-0.2,0.4-0.7c-0.1-0.4-0.3-0.7-0.5-1.1
		c-0.5-0.9-1.3-1.4-2.3-1.6c-1.2-0.1-2.4,0.2-3.3,1.1c-0.9,0.9-1.2,2.2-1.2,3.5c0,0.2,0.1,0.3,0.3,0.3l0.3-0.1
		C160.8,141.3,161.8,141,162.9,140.8L162.9,140.8z M174.8,140.2l-1.8-7.6l-0.1-0.4c-0.1-0.4-0.1-0.4,0.3-0.6l1.9-1.1
		c2.2-1.2,4.4-2,6.9-2.5c1-0.2,2-0.3,3.1-0.2c2,0.2,3.5,1.3,4.4,3.1c0.4,0.8,0.7,1.6,0.9,2.4l2.7,11.1l0.1,0.3
		c0,0.2-0.1,0.3-0.2,0.4c-0.9,0.4-1.9,0.6-2.9,0.3c-0.9-0.3-1.6-0.9-2-1.8c-0.2-0.4-0.4-0.9-0.5-1.4l-1.7-7.3
		c-0.1-0.4-0.2-0.7-0.4-1.1c-0.5-1.1-1.4-1.6-2.7-1.5c-0.6,0.1-1.2,0.2-1.9,0.4s-1.3,0.5-1.9,0.8c-0.5,0.2-0.5,0.4-0.4,0.9l2.9,12.4
		c0.1,0.6,0.1,0.6-0.5,0.8l-3.4,0.8c-0.6,0.1-0.6,0.1-0.8-0.5C175.9,145.4,175.4,142.8,174.8,140.2L174.8,140.2z M146.9,155.7
		l-2.4,0.6c-0.4,0.1-0.4,0.1-0.6-0.3c-2.3-3.4-4.6-6.8-6.9-10.2l-3.3-4.9l-0.1-0.2c-0.1-0.2-0.1-0.4,0.1-0.5c1.1-1.2,3.2-2,5-0.4
		c0.4,0.4,0.8,0.9,1.2,1.4l5.7,9c0.1,0.1,0.1,0.3,0.2,0.4c0.1,0.1,0.1,0.1,0.3,0.1c0.1,0,0.1-0.1,0.1-0.2l0.1-0.4l1.4-12.9l0-0.3
		c0-0.2,0.1-0.3,0.4-0.4l0.9-0.2l3.1-0.7l0.3-0.1c0.1,0,0.3,0.1,0.3,0.3c0,0.1,0,0.2-0.1,0.4c-0.8,6.1-1.7,12.2-2.5,18.4
		c-0.1,0.4-0.1,0.5-0.5,0.6C148.4,155.3,147.7,155.5,146.9,155.7L146.9,155.7z M256,120.8l-0.9-3.8c-0.2-0.9-1-1.4-1.9-1.1l-0.2,0.1
		c-1.1,0.2-0.9,0.4-1.2-0.8l-0.6-2.4c-0.1-0.5-0.1-0.6,0.4-0.7l1.6-0.4c0.5-0.1,0.6-0.2,0.4-0.7l-0.8-3.4l-0.1-0.3
		c-0.1-0.2,0-0.3,0.2-0.4l0.3-0.1c1.2-0.3,2.4-0.6,3.6-0.8l0.2-0.1c0.3-0.1,0.4,0,0.4,0.3l0.4,1.9l0.4,1.8c0.1,0.5,0.2,0.6,0.8,0.4
		l3.9-0.9l0.3-0.1c0.3-0.1,0.4,0,0.5,0.3l0.1,0.2c0.2,0.9,0.4,1.7,0.6,2.7c0.1,0.6,0.1,0.6-0.5,0.9c-1.3,0.3-2.6,0.6-3.8,0.9
		l-0.3,0.1c-0.2,0.1-0.3,0.2-0.3,0.4c0,0.1,0,0.2,0.1,0.3l1.6,6.7c0.1,0.4,0.3,0.9,0.5,1.3c0.4,0.7,1.1,1,1.9,1
		c0.9,0,1.7-0.4,2.4-0.7c0.3-0.1,0.6-0.4,0.9-0.6c0.4-0.2,0.5-0.2,0.7,0.1c0.9,1.2,1.2,2.8-0.1,4.1c-0.6,0.6-1.3,1-2,1.3
		c-1.1,0.4-2.2,0.7-3.5,0.7c-2.3,0-4.1-1.3-4.9-3.5c-0.3-0.8-0.4-1.6-0.7-2.4C256.3,122.2,256.2,121.5,256,120.8L256,120.8z
		 M196.2,134.7c-0.3-1.2-0.6-2.4-0.8-3.6c-0.1-0.9-1.1-1.5-2-1.2l-0.6,0.1c-0.5,0.1-0.5,0.1-0.7-0.4l-0.3-1.2
		c-0.1-0.6-0.3-1.1-0.4-1.8c-0.1-0.4-0.1-0.4,0.4-0.5l1.5-0.4c0.8-0.1,0.8-0.1,0.6-1l-0.8-3.4c-0.1-0.4-0.1-0.5,0.4-0.6l3.7-0.9
		c0.4-0.1,0.5-0.1,0.6,0.4c0.3,1.1,0.5,2.3,0.8,3.4c0.1,0.7,0.2,0.7,0.9,0.6c1.3-0.3,2.6-0.6,3.8-0.9l0.3-0.1c0.1,0,0.3,0,0.3,0.2
		c0.3,1.1,0.5,2.3,0.8,3.4c0.1,0.2-0.1,0.3-0.2,0.4l-0.3,0.1c-1.3,0.3-2.6,0.6-3.8,0.9l-0.3,0.1c-0.2,0.1-0.3,0.2-0.3,0.4l0.1,0.4
		l1.5,6.5c0.1,0.5,0.3,0.9,0.5,1.4c0.4,0.7,1.1,1.1,1.9,1c0.9-0.1,1.8-0.4,2.6-0.9l0.6-0.4c0.3-0.2,0.4-0.2,0.6,0.1
		c0.9,0.9,1.3,2.5,0.2,3.9c-0.5,0.6-1.1,1-1.7,1.3c-1.4,0.7-2.9,1-4.5,0.9c-2-0.2-3.4-1.2-4.2-3.1c-0.2-0.6-0.4-1.1-0.6-1.7
		C196.8,136.9,196.5,135.8,196.2,134.7L196.2,134.7z M231.5,126.9c-0.6-2.6-1.2-5.2-1.8-7.8c-0.1-0.4,0-0.7,0.4-1
		c1.2-0.9,2.6-1.6,3.9-2.2c0.9-0.4,1.9-0.7,2.9-0.9c0.6-0.1,1.3-0.2,1.9,0c1.2,0.2,2,0.9,2.3,2.1c0.1,0.6,0.2,1.2,0.2,1.8
		c-0.1,0.4-0.1,0.4-0.5,0.4c-1.5-0.1-2.9,0.1-4.4,0.6c-0.4,0.1-0.8,0.4-1.1,0.5c-0.3,0.1-0.3,0.2-0.2,0.6l0.1,0.4l2.8,11.9
		c0.2,1,0.1,0.9-0.6,1c-1.1,0.3-2.3,0.5-3.4,0.8c-0.5,0.1-0.6,0.1-0.7-0.4l-1.8-7.6L231.5,126.9L231.5,126.9z M250.4,122
		c0.7,2.9,1.3,5.7,2,8.6c0.1,0.5,0.1,0.6-0.4,0.7c-0.8,0.3-1.7,0.4-2.5,0.2c-1.1-0.3-1.8-1-2.2-2c-0.1-0.4-0.3-0.8-0.4-1.1
		l-3.2-13.8c-0.1-0.6-0.1-0.6,0.4-0.7c1.2-0.3,2.4-0.6,3.6-0.8l0.3-0.1c0.1,0,0.3,0.1,0.4,0.2l0.1,0.4
		C249,116.3,249.7,119.1,250.4,122L250.4,122z M243.9,105c1.4-0.4,3.1,0.4,3.5,2.2c0.4,1.8-0.8,3.2-2.2,3.5s-3.1-0.4-3.5-2.1
		C241.2,106.8,242.3,105.3,243.9,105z"/>
</g>
<g>
	<path class="st0" d="M32.2,115.6l206.7-96.2L250.4,42l-2.9,12l1.2,10.8l6.1,2.7l7.7,1.6l4.4,8.6l-4,11.9l4.3,11.2l12.8,4.6
		l9.9,21.8L82.7,224.7l-12.4-24.9l5.1-8.8l-3.7-8.8l-10.7-6.9l-3.6-1.4l-3.9-8l3.5-9.2l-0.9-9.4l-5.4-4.7l-10.3-5.1L32.2,115.6z"/>
	<path class="st1" d="M293.9,127.2l-11.5-24.8c-0.7-1.4-2.2-2.2-3.7-1.9c-4.7,0.7-9.3-1.8-11.3-6.1c-2-4.3-0.9-9.4,2.6-12.5
		c1.2-1,1.6-2.6,0.9-4l-5.2-11.3c-0.7-1.4-2.2-2.2-3.7-1.9c-3.6,0.5-7.1-0.8-9.5-3.5c-3.9-4.5-3.5-11.2,0.9-15.1
		c1.2-1,1.6-2.6,0.9-4l-11.5-24.8c-0.8-1.8-3-2.6-4.8-1.8L29.9,111.9c-1.8,0.8-2.6,3-1.8,4.8L39.9,142c0.6,1.2,1.8,2,3.1,2
		c2.4,0,4.8,0.9,6.7,2.5c4.6,3.8,5.2,10.6,1.5,15.2c-0.8,1-1,2.4-0.5,3.6l5.8,12.7c0.6,1.2,1.8,2,3.1,2c2.4,0,4.8,0.9,6.7,2.5
		c4.6,3.8,5.2,10.6,1.5,15.2c-0.8,1-1,2.4-0.5,3.6L79,226.6l0,0c0.8,1.8,3,2.6,4.8,1.8L292.1,132C293.9,131.2,294.7,129,293.9,127.2
		z M283.1,128.7L87,219.4c-1.7,0.8-3.7,0.1-4.6-1.7l-7.3-15.9l0,0c-0.4-0.9-0.4-2.1,0.1-3c0.6-1.2,1.1-2.6,1.4-3.9
		c2.3-9.5-3.6-19-13.1-21.3c-1.1-0.2-2-0.9-2.4-1.9l-2.6-5.8c-0.4-0.9-0.4-2.1,0.1-3c0.6-1.2,1.1-2.6,1.4-3.9
		c2.3-9.5-3.6-19-13.1-21.3c-1.1-0.3-2-1-2.4-1.9l-7.3-15.9c-0.8-1.7-0.1-3.7,1.7-4.6l196.1-90.6c1.7-0.8,3.7-0.1,4.6,1.7l6.8,14.7
		c0.5,1.1,0.4,2.3-0.2,3.3c-1.6,2.4-2.6,5.1-2.9,7.9c-1.1,9.7,5.9,18.3,15.5,19.4c1.2,0.1,2.2,0.9,2.7,1.9l1.5,3.3
		c0.5,1.1,0.4,2.3-0.2,3.3c-3.4,5.1-4,11.6-1.4,17.2c2.6,5.5,7.9,9.4,14,10.1c1.2,0.1,2.2,0.9,2.7,1.9l6.8,14.7
		C285.6,125.9,284.9,127.9,283.1,128.7z"/>
	<path class="st2" d="M68.1,121l150.6-71.1c0.7-0.3,1.5,0,1.9,0.7l5.8,12.4c0.3,0.7,0,1.5-0.7,1.9L75.1,136c-0.7,0.3-1.5,0-1.9-0.7
		l-5.8-12.4C67.1,122.2,67.4,121.3,68.1,121L68.1,121z M96.9,180.6l150.6-71.1c0.7-0.3,1.5,0,1.9,0.7l5.8,12.4
		c0.3,0.7,0,1.5-0.7,1.9l-150.6,71.1c-0.7,0.3-1.5,0-1.9-0.7l-5.8-12.4C95.9,181.7,96.2,180.9,96.9,180.6z"/>
	<path class="st1" d="M168.1,116.1l-5.1-11c-0.3-0.6-0.3-0.7,0.3-1c0.5-0.3,1.1-0.5,1.6-0.6c1.3-0.2,2.3,0.3,3.2,1.3
		c0.3,0.4,0.5,0.8,0.8,1.2c0.6,1.2,1.1,2.4,1.6,3.5c0.2,0.5,0.2,0.5,0.6,0.1c0.8-0.9,1.8-1.6,2.9-2.1c1.3-0.7,2.7-1,4.1-1.1
		c2.8-0.1,5.1,1,6.8,3.2c1.4,1.6,2.2,3.6,2.5,5.6c0.4,3-0.5,5.6-2.7,7.7c-1,1-2.1,1.8-3.4,2.4c-2.1,1-4.4,1.8-6.8,2.1
		c-0.9,0.1-0.9,0.1-1.3-0.7c-0.5-1.1-1.1-2.2-1.5-3.3C170.4,121.1,169.2,118.6,168.1,116.1L168.1,116.1z M174.5,118.4
		c0.6,1.3,1.1,2.5,1.8,3.7c0.3,0.5,0.4,0.6,1,0.5c1.1-0.2,2.2-0.7,3.2-1.4c1.6-1.2,2.4-2.9,2-4.9c-0.1-1-0.5-2-1-2.8
		c-0.9-1.2-2-2-3.5-2c-2.2-0.1-3.8,0.8-5.1,2.4c-0.2,0.3-0.2,0.5,0,0.8C173.3,115.9,173.9,117.2,174.5,118.4L174.5,118.4z
		 M83.2,159.2l-4.1-8.7c-0.2-0.4-0.3-0.8-0.4-1.2c-0.4-1.9,0.7-3.6,2.1-4.4l0.4-0.2l9.7-4.5c0.6-0.3,0.6-0.3,0.9,0.3l1.5,3.1
		l0.1,0.3c0,0.1,0,0.2-0.2,0.3c-0.1,0.1-0.3,0.1-0.3,0.1l-8.3,3.9c-0.7,0.3-0.7,0.4-0.4,1l1.6,3.4L86,153c0.1,0.3,0.3,0.3,0.6,0.2
		l0.4-0.2c2.4-1.1,4.8-2.2,7.1-3.4c0.6-0.3,0.6-0.3,0.9,0.3l1.4,2.9l0.1,0.3c0,0.1,0,0.3-0.1,0.4l-0.3,0.1l-7.3,3.4l-0.3,0.1
		c-0.2,0.1-0.3,0.3-0.2,0.5c0,0.1,0,0.2,0.1,0.3c0.6,1.2,1.1,2.4,1.7,3.7l0.1,0.3c0.1,0.2,0.3,0.2,0.5,0.2l0.4-0.2
		c2.9-1.4,5.7-2.7,8.6-4c0.6-0.3,0.6-0.3,1,0.3c0.2,0.5,0.5,0.9,0.6,1.5c0.2,1.3-0.2,2.3-1.3,3.1c-0.4,0.3-0.8,0.5-1.2,0.8
		l-10.5,4.9c-0.1,0-0.1,0-0.2,0.1c-0.1,0-0.3,0-0.4-0.1l-0.2-0.4C86.1,165.2,84.7,162.2,83.2,159.2L83.2,159.2z M234,91.7l-4.3,2
		l-0.3,0.1c-0.3,0.1-0.4,0.3-0.2,0.6c0.4,0.6,1,1,1.7,1.3c1.1,0.5,2.3,0.5,3.5,0.2c1.3-0.3,2.4-1,3.5-1.8c0.8-0.5,1.5-1.3,2.1-2
		c0.3-0.4,0.4-0.4,0.7-0.1c1.2,0.9,1.7,2.5,0.7,4c-0.5,0.8-1.2,1.4-1.9,1.9c-1.1,0.8-2.2,1.4-3.4,1.8c-1.6,0.6-3.3,0.9-5.1,0.7
		c-2.1-0.3-3.9-1.3-5.3-2.9c-1.8-2.1-2.8-4.6-2.8-7.3c0-3.2,1.3-5.7,4-7.4c1.2-0.8,2.5-1.3,3.8-1.5c2-0.4,3.8,0.1,5.3,1.4
		c1,0.8,1.7,1.8,2.4,2.9c0.3,0.5,0.6,1,0.9,1.6c0.6,1,0,1.8-0.8,2.2C237,90.2,235.5,91,234,91.7L234,91.7z M231.2,89.8l3-1.4
		c0.4-0.2,0.4-0.3,0.2-0.7l-0.5-0.8c-0.7-0.8-1.5-1.4-2.6-1.3c-1.5,0.1-2.6,0.8-3.3,2c-0.4,0.8-0.5,1.7-0.4,2.6
		c0.1,0.3,0,0.5,0.2,0.8c0,0.2,0.2,0.3,0.4,0.2l0.3-0.1C229.3,90.7,230.2,90.2,231.2,89.8z M128.1,141.3c-1.5,0.7-2.9,1.4-4.3,2
		l-0.3,0.1c-0.3,0.1-0.4,0.3-0.2,0.6c0.2,0.3,0.4,0.4,0.6,0.6c0.7,0.6,1.6,0.9,2.5,1c1.4,0.1,2.7-0.2,4-0.9c1.4-0.8,2.7-1.8,3.8-3
		c0.2-0.3,0.3-0.3,0.6-0.1c1.2,0.8,1.8,2.4,1,3.8c-0.4,0.8-1,1.3-1.7,1.8c-1.2,0.9-2.4,1.6-3.9,2.2c-1.2,0.5-2.5,0.8-3.8,0.8
		c-2.6,0-4.8-1-6.4-3c-1.9-2.2-2.9-4.7-2.9-7.5c0-2.9,1.1-5.3,3.6-7c1.3-0.9,2.8-1.6,4.3-1.8c2-0.4,3.7,0.2,5.3,1.4
		c1,0.8,1.7,1.8,2.3,2.9c0.3,0.6,0.6,1.1,0.9,1.7c0.5,0.9,0.1,1.7-0.8,2.2C131.2,139.8,129.6,140.6,128.1,141.3L128.1,141.3z
		 M125.3,139.4l3-1.4c0.4-0.2,0.4-0.3,0.2-0.8c-0.2-0.3-0.4-0.6-0.7-0.9c-0.7-0.7-1.6-1.1-2.6-1.1c-1.2,0.1-2.3,0.7-3,1.8
		c-0.7,1.1-0.7,2.4-0.5,3.7c0,0.2,0.2,0.3,0.3,0.2l0.3-0.1C123.4,140.2,124.3,139.8,125.3,139.4L125.3,139.4z M136.8,136.4l-3.3-7.1
		l-0.1-0.3c-0.1-0.3-0.2-0.4,0.1-0.7l1.6-1.5c1.9-1.6,4-2.8,6.2-3.9c0.9-0.4,1.9-0.7,3-0.8c2-0.2,3.6,0.5,4.9,2.1
		c0.6,0.7,1,1.4,1.4,2.2l4.9,10.4l0.1,0.3c0,0.2,0,0.3-0.1,0.4c-0.8,0.6-1.7,1-2.8,0.9c-1-0.1-1.7-0.6-2.3-1.3
		c-0.3-0.4-0.5-0.8-0.8-1.3l-3.2-6.8c-0.1-0.3-0.4-0.7-0.6-1c-0.7-0.9-1.8-1.3-2.9-0.9c-0.6,0.2-1.2,0.4-1.8,0.7
		c-0.6,0.3-1.2,0.8-1.7,1.2c-0.4,0.3-0.4,0.5-0.2,0.9l5.4,11.5c0.3,0.6,0.3,0.6-0.3,0.9l-3.2,1.5c-0.6,0.3-0.6,0.3-0.9-0.3
		C139,141.2,137.9,138.8,136.8,136.4L136.8,136.4z M112.7,157.2l-2.3,1.1c-0.4,0.2-0.4,0.2-0.7-0.1c-3-2.8-5.9-5.7-8.8-8.5l-4.3-4.2
		l-0.2-0.2c-0.2-0.2-0.2-0.3,0-0.5c0.9-1.4,2.8-2.6,4.8-1.4c0.5,0.3,1,0.7,1.4,1.1l7.5,7.7c0.1,0.1,0.2,0.3,0.3,0.3s0.2,0.1,0.3,0.1
		c0.1,0,0.1-0.2,0.1-0.2l0-0.4l-1.3-12.9l-0.1-0.3c0-0.2,0.1-0.3,0.3-0.4l0.9-0.4l2.9-1.4l0.3-0.1c0.1,0,0.3,0,0.3,0.2
		c0,0.1,0,0.2,0,0.4c0.4,6.2,0.9,12.3,1.4,18.6c0,0.4,0,0.5-0.4,0.7C114.2,156.5,113.4,156.9,112.7,157.2L112.7,157.2z M212.4,100.7
		l-1.6-3.5c-0.4-0.9-1.3-1.1-2.1-0.7l-0.2,0.1c-1,0.4-0.8,0.5-1.3-0.5l-1.1-2.3c-0.2-0.5-0.2-0.5,0.3-0.7l1.5-0.7
		c0.5-0.2,0.5-0.3,0.3-0.8l-1.5-3.2l-0.1-0.3c-0.1-0.2-0.1-0.3,0.1-0.4l0.3-0.1c1.1-0.5,2.2-1.1,3.3-1.5l0.2-0.1
		c0.3-0.1,0.4-0.1,0.5,0.2l0.8,1.7l0.8,1.7c0.2,0.5,0.3,0.5,0.9,0.3l3.6-1.7l0.3-0.1c0.3-0.1,0.4-0.1,0.6,0.2l0.1,0.2
		c0.4,0.8,0.8,1.6,1.1,2.5c0.3,0.6,0.3,0.6-0.3,1c-1.2,0.6-2.4,1.1-3.5,1.6l-0.3,0.1c-0.2,0.1-0.2,0.3-0.2,0.5c0,0.1,0,0.2,0.1,0.3
		l2.9,6.2c0.2,0.4,0.5,0.8,0.8,1.2c0.6,0.6,1.3,0.8,2,0.6c0.8-0.2,1.5-0.7,2.2-1.2c0.3-0.2,0.5-0.5,0.7-0.7c0.3-0.3,0.4-0.3,0.7-0.1
		c1.2,1,1.7,2.5,0.7,4c-0.4,0.7-1.1,1.3-1.7,1.7c-1,0.7-2,1.1-3.2,1.4c-2.3,0.5-4.3-0.4-5.5-2.4c-0.4-0.7-0.8-1.5-1.1-2.2
		S212.6,101.3,212.4,100.7L212.4,100.7z M156.7,126.6c-0.5-1.1-1.1-2.2-1.5-3.3c-0.3-0.8-1.4-1.2-2.2-0.8l-0.5,0.3
		c-0.5,0.2-0.5,0.2-0.7-0.3l-0.5-1.1c-0.3-0.5-0.5-1.1-0.8-1.7c-0.1-0.3-0.2-0.4,0.2-0.6l1.4-0.7c0.7-0.3,0.7-0.3,0.3-1.1l-1.5-3.1
		c-0.2-0.4-0.2-0.5,0.2-0.6l3.5-1.6c0.4-0.2,0.5-0.2,0.6,0.2c0.5,1.1,1,2.1,1.5,3.1c0.3,0.7,0.4,0.7,1,0.4c1.2-0.6,2.4-1.1,3.5-1.6
		l0.3-0.1c0.1,0,0.3-0.1,0.3,0.2c0.5,1.1,1,2.1,1.5,3.1c0.1,0.2,0,0.3-0.1,0.4l-0.3,0.1c-1.2,0.6-2.4,1.1-3.5,1.6l-0.3,0.1
		c-0.2,0.1-0.2,0.3-0.2,0.5l0.1,0.3l2.9,6.1c0.2,0.5,0.5,0.9,0.8,1.2c0.6,0.6,1.3,0.8,2.1,0.6c0.9-0.3,1.7-0.8,2.3-1.4l0.5-0.6
		c0.2-0.3,0.4-0.3,0.6-0.1c1,0.7,1.8,2.2,1,3.8c-0.4,0.7-0.8,1.2-1.4,1.6c-1.3,0.9-2.6,1.6-4.2,1.8c-2,0.2-3.6-0.5-4.7-2.1
		c-0.3-0.5-0.7-1-0.9-1.6C157.7,128.6,157.1,127.6,156.7,126.6L156.7,126.6z M189.6,111.7c-1.1-2.4-2.2-4.8-3.4-7.2
		c-0.2-0.4-0.2-0.7,0.1-1.1c1-1.1,2.2-2.1,3.4-2.9c0.8-0.5,1.8-1,2.7-1.5c0.6-0.3,1.2-0.4,1.9-0.4c1.2,0,2.2,0.5,2.7,1.6
		c0.3,0.5,0.5,1.1,0.5,1.7c0,0.4,0,0.4-0.4,0.5c-1.5,0.2-2.9,0.7-4.2,1.5c-0.4,0.2-0.7,0.5-1,0.7c-0.3,0.2-0.2,0.3-0.1,0.6l0.1,0.3
		l5.2,11.1c0.4,0.9,0.3,0.8-0.4,1.1c-1.1,0.5-2.1,1-3.1,1.5c-0.5,0.2-0.5,0.3-0.7-0.3l-3.3-7.1L189.6,111.7L189.6,111.7z M207,103
		c1.2,2.7,2.5,5.4,3.7,8c0.2,0.5,0.2,0.5-0.2,0.8c-0.7,0.4-1.5,0.8-2.4,0.7c-1.1-0.1-2-0.6-2.6-1.5c-0.2-0.3-0.4-0.7-0.6-1l-6-12.8
		c-0.3-0.5-0.3-0.5,0.3-0.8c1.1-0.5,2.2-1.1,3.3-1.5l0.3-0.1c0.1,0,0.3,0,0.4,0.1l0.1,0.3C204.6,97.7,205.8,100.3,207,103L207,103z
		 M197.2,87.7c1.3-0.7,3.1-0.2,3.9,1.4c0.7,1.7-0.2,3.3-1.5,3.8c-1.3,0.6-3.1,0.2-3.9-1.4C195,90,195.8,88.3,197.2,87.7z"/>
</g>
</svg>
