<svg id="Layer_1" xmlns="http://www.w3.org/2000/svg" viewBox="0 0 357.9 244.1"><style>.st0{fill:#fff}.st1{fill:#064f69}.st2{fill:#70c6ef}</style><path class="st0" d="M76.7 98.4l222-51.7 6.6 24.4-5.3 11.3-1 10.8 5.4 3.9 7.2 3.2 2.6 9.3-6.4 10.8 1.9 11.9 11.6 7.1 5.2 23.4-222.8 52.8-7-26.9 6.8-7.6-1.9-9.3-9-8.9-3.3-2.1L87 152l5.3-8.3 1-9.4-4.4-5.7-9-7.1c.1-.1-3.2-23.1-3.2-23.1z"/><path class="st1" d="M330.3 163.6l-6.1-26.6c-.4-1.5-1.7-2.6-3.2-2.6-4.8-.3-8.7-3.7-9.8-8.3-1.1-4.6 1-9.4 5.1-11.7 1.4-.7 2.1-2.2 1.7-3.8l-2.8-12.1c-.4-1.5-1.7-2.6-3.2-2.6-3.6-.2-6.8-2.3-8.6-5.3-2.9-5.2-1.1-11.7 4-14.6 1.4-.7 2.1-2.2 1.7-3.8L303 45.6c-.4-1.9-2.4-3.2-4.3-2.7L75.2 94.3c-1.9.4-3.2 2.4-2.7 4.3l6.3 27.2c.3 1.3 1.3 2.3 2.6 2.6 2.4.5 4.5 1.8 6.1 3.8 3.7 4.7 2.9 11.5-1.7 15.2-1 .8-1.5 2.2-1.2 3.5l3.1 13.6c.3 1.3 1.3 2.3 2.6 2.6 2.4.5 4.5 1.8 6.1 3.8 3.7 4.7 2.9 11.5-1.7 15.2-1 .8-1.5 2.2-1.2 3.5l6.3 27.3c.4 1.9 2.4 3.2 4.3 2.7l223.6-51.5c1.9-.6 3.1-2.6 2.6-4.5zm-10.8-.8l-210.6 48.4c-1.9.4-3.7-.7-4.1-2.6l-3.9-17.1c-.2-1 .1-2.2.7-2.9.9-1.1 1.6-2.3 2.2-3.5 4.2-8.9.4-19.4-8.4-23.6-1-.4-1.7-1.3-2-2.4L92 153c-.2-1 .1-2.2.7-3 .9-1.1 1.6-2.3 2.2-3.5 4.2-8.9.4-19.4-8.4-23.6-1-.5-1.7-1.4-2-2.4l-3.9-17.1c-.4-1.9.7-3.7 2.6-4.1L293.8 51c1.9-.4 3.7.7 4.1 2.6l3.6 15.8c.3 1.1-.1 2.4-.9 3.2-2.1 2-3.6 4.5-4.5 7.2-3 9.2 2 19.1 11.2 22.2 1.2.4 2 1.3 2.2 2.4l.8 3.6c.3 1.1-.1 2.4-.9 3.2-4.4 4.3-6.3 10.5-4.9 16.6 1.4 6 5.8 10.8 11.7 12.7 1.2.4 2 1.3 2.2 2.4l3.6 15.8c.5 1.8-.6 3.6-2.5 4.1z"/><path class="st2" d="M110.7 111l162-38.6c.8-.1 1.5.3 1.7 1.1l3.1 13.3c.1.8-.3 1.5-1.1 1.7l-162 38.6c-.8.1-1.5-.3-1.7-1.1l-3.1-13.3c-.1-.7.3-1.5 1.1-1.7zm15.9 64.3l162-38.6c.8-.1 1.5.3 1.7 1.1l3.1 13.3c.1.8-.3 1.5-1.1 1.7l-162 38.6c-.8.1-1.5-.3-1.7-1.1l-3.1-13.3c-.1-.8.3-1.6 1.1-1.7z"/><path class="st1" d="M209.5 126.8l-2.7-11.8c-.1-.6-.1-.7.5-.9.6-.1 1.1-.3 1.7-.3 1.3.1 2.2.8 2.8 1.9.2.4.4.9.5 1.4.3 1.3.6 2.6.9 3.8.1.5.1.5.6.2 1-.7 2.1-1.2 3.2-1.5 1.4-.4 2.8-.4 4.2-.2 2.7.5 4.8 2.1 6 4.5 1 1.9 1.4 3.9 1.3 6-.2 3-1.6 5.3-4.2 7-1.1.8-2.4 1.3-3.8 1.7-2.3.6-4.7.9-7.1.7-.9-.1-.9-.1-1.2-1-.3-1.2-.6-2.4-.8-3.6-.6-2.5-1.3-5.3-1.9-7.9zm5.9 3.6c.3 1.4.6 2.7 1 4 .1.6.3.7.9.7 1.2 0 2.3-.2 3.4-.7 1.9-.9 2.9-2.3 3-4.4.1-1-.1-2-.4-2.9-.6-1.4-1.5-2.4-3-2.7-2.1-.6-3.9 0-5.5 1.3-.3.2-.3.4-.2.8.1 1.2.4 2.6.8 3.9zm-97.8 21.1l-2.2-9.3c-.1-.4-.1-.9-.2-1.3 0-1.9 1.4-3.4 2.9-3.8l.4-.1 10.4-2.4c.6-.1.6-.1.8.5l.8 3.3.1.4c0 .1-.1.2-.2.3-.1.1-.3.1-.4.1l-8.9 2.1c-.7.1-.7.2-.6.9l.9 3.7.1.3c.1.3.2.4.5.4l.4-.1c2.6-.6 5.2-1.2 7.7-1.8.6-.1.6-.1.8.5l.7 3.2.1.4c0 .1-.1.3-.2.4l-.3.1-7.8 1.8-.4.1c-.2.1-.4.2-.3.4 0 .1 0 .2.1.3.3 1.3.6 2.6.9 4l.1.3c.1.2.2.3.4.3l.4-.1c3.1-.7 6.1-1.5 9.2-2.1.6-.1.6-.1.9.5.1.5.3 1 .3 1.6-.1 1.3-.7 2.2-1.9 2.7-.4.2-.9.4-1.4.5l-11.3 2.7c-.1 0-.1 0-.2.1-.1 0-.3-.1-.4-.2l-.1-.4c-.5-3.8-1.3-7-2.1-10.3zm161.5-35l-4.7 1.1-.3.1c-.4.1-.5.2-.3.6.3.6.8 1.1 1.4 1.6 1 .7 2.2.9 3.4.9 1.4 0 2.6-.5 3.8-1 .9-.4 1.7-.9 2.5-1.5.4-.3.4-.3.7.1.9 1.1 1.2 2.8-.1 4.1-.6.7-1.4 1.1-2.3 1.5-1.2.5-2.4.9-3.7 1.1-1.7.3-3.5.2-5.1-.3-2-.7-3.5-2.1-4.6-3.9-1.3-2.4-1.8-5-1.3-7.8.6-3.2 2.4-5.3 5.4-6.4 1.3-.5 2.7-.7 4-.7 2 .1 3.7.9 4.9 2.5.8 1 1.3 2.1 1.7 3.3.2.6.4 1.1.5 1.7.4 1.1-.3 1.8-1.2 2-1.5.1-3.1.6-4.7 1zm-2.4-2.5l3.2-.7c.4-.1.5-.2.4-.6l-.4-.9c-.5-.9-1.2-1.6-2.3-1.8-1.4-.2-2.7.2-3.7 1.3-.6.7-.9 1.6-.9 2.5 0 .3-.1.5 0 .8 0 .2.1.3.4.3l.3-.1c.9-.3 1.9-.6 3-.8zm-111.5 29.2c-1.6.4-3.2.7-4.7 1.1l-.3.1c-.4.1-.4.2-.3.6.1.3.3.5.4.7.6.7 1.4 1.2 2.2 1.5 1.4.4 2.7.3 4.1-.1 1.6-.5 3-1.2 4.4-2.2.3-.2.4-.2.6.1 1 1.1 1.2 2.7.2 4-.6.7-1.3 1.1-2.1 1.5-1.4.7-2.7 1.1-4.2 1.3-1.3.2-2.6.2-3.9 0-2.5-.6-4.5-1.9-5.6-4.2-1.4-2.5-1.8-5.2-1.3-7.9.6-2.9 2.2-4.9 4.9-6.1 1.4-.7 3-1 4.6-.9 2 .1 3.6.9 4.9 2.5.8 1 1.3 2.1 1.7 3.3.2.6.4 1.2.5 1.9.3.9-.3 1.7-1.2 2-1.6 0-3.2.5-4.9.8zm-2.3-2.4l3.2-.7c.4-.1.5-.2.4-.7-.1-.4-.3-.7-.5-1.1-.5-.9-1.3-1.4-2.3-1.6-1.2-.1-2.4.2-3.3 1.1-.9.9-1.2 2.2-1.2 3.5 0 .2.1.3.3.3l.3-.1c1-.2 2-.5 3.1-.7zm11.9-.6l-1.8-7.6-.1-.4c-.1-.4-.1-.4.3-.6l1.9-1.1c2.2-1.2 4.4-2 6.9-2.5 1-.2 2-.3 3.1-.2 2 .2 3.5 1.3 4.4 3.1.4.8.7 1.6.9 2.4l2.7 11.1.1.3c0 .2-.1.3-.2.4-.9.4-1.9.6-2.9.3-.9-.3-1.6-.9-2-1.8-.2-.4-.4-.9-.5-1.4l-1.7-7.3c-.1-.4-.2-.7-.4-1.1-.5-1.1-1.4-1.6-2.7-1.5-.6.1-1.2.2-1.9.4s-1.3.5-1.9.8c-.5.2-.5.4-.4.9l2.9 12.4c.1.6.1.6-.5.8l-3.4.8c-.6.1-.6.1-.8-.5-.9-2.5-1.4-5.1-2-7.7zm-27.9 15.5l-2.4.6c-.4.1-.4.1-.6-.3l-6.9-10.2-3.3-4.9-.1-.2c-.1-.2-.1-.4.1-.5 1.1-1.2 3.2-2 5-.4.4.4.8.9 1.2 1.4l5.7 9c.1.1.1.3.2.4.1.1.1.1.3.1.1 0 .1-.1.1-.2l.1-.4 1.4-12.9v-.3c0-.2.1-.3.4-.4l.9-.2 3.1-.7.3-.1c.1 0 .3.1.3.3 0 .1 0 .2-.1.4-.8 6.1-1.7 12.2-2.5 18.4-.1.4-.1.5-.5.6-1.2.1-1.9.3-2.7.5zM256 120.8l-.9-3.8c-.2-.9-1-1.4-1.9-1.1l-.2.1c-1.1.2-.9.4-1.2-.8l-.6-2.4c-.1-.5-.1-.6.4-.7l1.6-.4c.5-.1.6-.2.4-.7l-.8-3.4-.1-.3c-.1-.2 0-.3.2-.4l.3-.1c1.2-.3 2.4-.6 3.6-.8l.2-.1c.3-.1.4 0 .4.3l.4 1.9.4 1.8c.1.5.2.6.8.4l3.9-.9.3-.1c.3-.1.4 0 .5.3l.1.2c.2.9.4 1.7.6 2.7.1.6.1.6-.5.9-1.3.3-2.6.6-3.8.9l-.3.1c-.2.1-.3.2-.3.4 0 .1 0 .2.1.3l1.6 6.7c.1.4.3.9.5 1.3.4.7 1.1 1 1.9 1 .9 0 1.7-.4 2.4-.7.3-.1.6-.4.9-.6.4-.2.5-.2.7.1.9 1.2 1.2 2.8-.1 4.1-.6.6-1.3 1-2 1.3-1.1.4-2.2.7-3.5.7-2.3 0-4.1-1.3-4.9-3.5-.3-.8-.4-1.6-.7-2.4-.1-.9-.2-1.6-.4-2.3zm-59.8 13.9c-.3-1.2-.6-2.4-.8-3.6-.1-.9-1.1-1.5-2-1.2l-.6.1c-.5.1-.5.1-.7-.4l-.3-1.2c-.1-.6-.3-1.1-.4-1.8-.1-.4-.1-.4.4-.5l1.5-.4c.8-.1.8-.1.6-1l-.8-3.4c-.1-.4-.1-.5.4-.6l3.7-.9c.4-.1.5-.1.6.4.3 1.1.5 2.3.8 3.4.1.7.2.7.9.6 1.3-.3 2.6-.6 3.8-.9l.3-.1c.1 0 .3 0 .3.2.3 1.1.5 2.3.8 3.4.1.2-.1.3-.2.4l-.3.1c-1.3.3-2.6.6-3.8.9l-.3.1c-.2.1-.3.2-.3.4l.1.4 1.5 6.5c.1.5.3.9.5 1.4.4.7 1.1 1.1 1.9 1 .9-.1 1.8-.4 2.6-.9l.6-.4c.3-.2.4-.2.6.1.9.9 1.3 2.5.2 3.9-.5.6-1.1 1-1.7 1.3-1.4.7-2.9 1-4.5.9-2-.2-3.4-1.2-4.2-3.1-.2-.6-.4-1.1-.6-1.7 0-1.2-.3-2.3-.6-3.4zm35.3-7.8l-1.8-7.8c-.1-.4 0-.7.4-1 1.2-.9 2.6-1.6 3.9-2.2.9-.4 1.9-.7 2.9-.9.6-.1 1.3-.2 1.9 0 1.2.2 2 .9 2.3 2.1.1.6.2 1.2.2 1.8-.1.4-.1.4-.5.4-1.5-.1-2.9.1-4.4.6-.4.1-.8.4-1.1.5-.3.1-.3.2-.2.6l.1.4 2.8 11.9c.2 1 .1.9-.6 1-1.1.3-2.3.5-3.4.8-.5.1-.6.1-.7-.4l-1.8-7.6v-.2zm18.9-4.9c.7 2.9 1.3 5.7 2 8.6.1.5.1.6-.4.7-.8.3-1.7.4-2.5.2-1.1-.3-1.8-1-2.2-2-.1-.4-.3-.8-.4-1.1l-3.2-13.8c-.1-.6-.1-.6.4-.7 1.2-.3 2.4-.6 3.6-.8l.3-.1c.1 0 .3.1.4.2l.1.4c.5 2.7 1.2 5.5 1.9 8.4zm-6.5-17c1.4-.4 3.1.4 3.5 2.2.4 1.8-.8 3.2-2.2 3.5s-3.1-.4-3.5-2.1c-.5-1.8.6-3.3 2.2-3.6z"/><g><path class="st0" d="M32.2 115.6l206.7-96.2L250.4 42l-2.9 12 1.2 10.8 6.1 2.7 7.7 1.6 4.4 8.6-4 11.9 4.3 11.2 12.8 4.6 9.9 21.8-207.2 97.5-12.4-24.9 5.1-8.8-3.7-8.8-10.7-6.9-3.6-1.4-3.9-8 3.5-9.2-.9-9.4-5.4-4.7-10.3-5.1-8.2-21.9z"/><path class="st1" d="M293.9 127.2l-11.5-24.8c-.7-1.4-2.2-2.2-3.7-1.9-4.7.7-9.3-1.8-11.3-6.1s-.9-9.4 2.6-12.5c1.2-1 1.6-2.6.9-4l-5.2-11.3c-.7-1.4-2.2-2.2-3.7-1.9-3.6.5-7.1-.8-9.5-3.5-3.9-4.5-3.5-11.2.9-15.1 1.2-1 1.6-2.6.9-4l-11.5-24.8c-.8-1.8-3-2.6-4.8-1.8L29.9 111.9c-1.8.8-2.6 3-1.8 4.8L39.9 142c.6 1.2 1.8 2 3.1 2 2.4 0 4.8.9 6.7 2.5 4.6 3.8 5.2 10.6 1.5 15.2-.8 1-1 2.4-.5 3.6l5.8 12.7c.6 1.2 1.8 2 3.1 2 2.4 0 4.8.9 6.7 2.5 4.6 3.8 5.2 10.6 1.5 15.2-.8 1-1 2.4-.5 3.6L79 226.6c.8 1.8 3 2.6 4.8 1.8L292.1 132c1.8-.8 2.6-3 1.8-4.8zm-10.8 1.5L87 219.4c-1.7.8-3.7.1-4.6-1.7l-7.3-15.9c-.4-.9-.4-2.1.1-3 .6-1.2 1.1-2.6 1.4-3.9 2.3-9.5-3.6-19-13.1-21.3-1.1-.2-2-.9-2.4-1.9l-2.6-5.8c-.4-.9-.4-2.1.1-3 .6-1.2 1.1-2.6 1.4-3.9 2.3-9.5-3.6-19-13.1-21.3-1.1-.3-2-1-2.4-1.9l-7.3-15.9c-.8-1.7-.1-3.7 1.7-4.6L235 24.7c1.7-.8 3.7-.1 4.6 1.7l6.8 14.7c.5 1.1.4 2.3-.2 3.3-1.6 2.4-2.6 5.1-2.9 7.9-1.1 9.7 5.9 18.3 15.5 19.4 1.2.1 2.2.9 2.7 1.9l1.5 3.3c.5 1.1.4 2.3-.2 3.3-3.4 5.1-4 11.6-1.4 17.2 2.6 5.5 7.9 9.4 14 10.1 1.2.1 2.2.9 2.7 1.9l6.8 14.7c.7 1.8 0 3.8-1.8 4.6z"/><path class="st2" d="M68.1 121l150.6-71.1c.7-.3 1.5 0 1.9.7l5.8 12.4c.3.7 0 1.5-.7 1.9L75.1 136c-.7.3-1.5 0-1.9-.7l-5.8-12.4c-.3-.7 0-1.6.7-1.9zm28.8 59.6l150.6-71.1c.7-.3 1.5 0 1.9.7l5.8 12.4c.3.7 0 1.5-.7 1.9l-150.6 71.1c-.7.3-1.5 0-1.9-.7l-5.8-12.4c-.3-.8 0-1.6.7-1.9z"/><path class="st1" d="M168.1 116.1l-5.1-11c-.3-.6-.3-.7.3-1 .5-.3 1.1-.5 1.6-.6 1.3-.2 2.3.3 3.2 1.3.3.4.5.8.8 1.2.6 1.2 1.1 2.4 1.6 3.5.2.5.2.5.6.1.8-.9 1.8-1.6 2.9-2.1 1.3-.7 2.7-1 4.1-1.1 2.8-.1 5.1 1 6.8 3.2 1.4 1.6 2.2 3.6 2.5 5.6.4 3-.5 5.6-2.7 7.7-1 1-2.1 1.8-3.4 2.4-2.1 1-4.4 1.8-6.8 2.1-.9.1-.9.1-1.3-.7-.5-1.1-1.1-2.2-1.5-3.3-1.3-2.3-2.5-4.8-3.6-7.3zm6.4 2.3c.6 1.3 1.1 2.5 1.8 3.7.3.5.4.6 1 .5 1.1-.2 2.2-.7 3.2-1.4 1.6-1.2 2.4-2.9 2-4.9-.1-1-.5-2-1-2.8-.9-1.2-2-2-3.5-2-2.2-.1-3.8.8-5.1 2.4-.2.3-.2.5 0 .8.4 1.2 1 2.5 1.6 3.7zm-91.3 40.8l-4.1-8.7c-.2-.4-.3-.8-.4-1.2-.4-1.9.7-3.6 2.1-4.4l.4-.2 9.7-4.5c.6-.3.6-.3.9.3l1.5 3.1.1.3c0 .1 0 .2-.2.3-.1.1-.3.1-.3.1l-8.3 3.9c-.7.3-.7.4-.4 1l1.6 3.4.2.4c.1.3.3.3.6.2l.4-.2c2.4-1.1 4.8-2.2 7.1-3.4.6-.3.6-.3.9.3l1.4 2.9.1.3c0 .1 0 .3-.1.4l-.3.1-7.3 3.4-.3.1c-.2.1-.3.3-.2.5 0 .1 0 .2.1.3.6 1.2 1.1 2.4 1.7 3.7l.1.3c.1.2.3.2.5.2l.4-.2c2.9-1.4 5.7-2.7 8.6-4 .6-.3.6-.3 1 .3.2.5.5.9.6 1.5.2 1.3-.2 2.3-1.3 3.1-.4.3-.8.5-1.2.8l-10.5 4.9c-.1 0-.1 0-.2.1-.1 0-.3 0-.4-.1l-.2-.4c-1.4-2.9-2.8-5.9-4.3-8.9zM234 91.7l-4.3 2-.3.1c-.3.1-.4.3-.2.6.4.6 1 1 1.7 1.3 1.1.5 2.3.5 3.5.2 1.3-.3 2.4-1 3.5-1.8.8-.5 1.5-1.3 2.1-2 .3-.4.4-.4.7-.1 1.2.9 1.7 2.5.7 4-.5.8-1.2 1.4-1.9 1.9-1.1.8-2.2 1.4-3.4 1.8-1.6.6-3.3.9-5.1.7-2.1-.3-3.9-1.3-5.3-2.9-1.8-2.1-2.8-4.6-2.8-7.3 0-3.2 1.3-5.7 4-7.4 1.2-.8 2.5-1.3 3.8-1.5 2-.4 3.8.1 5.3 1.4 1 .8 1.7 1.8 2.4 2.9.3.5.6 1 .9 1.6.6 1 0 1.8-.8 2.2-1.5.8-3 1.6-4.5 2.3zm-2.8-1.9l3-1.4c.4-.2.4-.3.2-.7l-.5-.8c-.7-.8-1.5-1.4-2.6-1.3-1.5.1-2.6.8-3.3 2-.4.8-.5 1.7-.4 2.6.1.3 0 .5.2.8 0 .2.2.3.4.2l.3-.1c.8-.4 1.7-.9 2.7-1.3zm-103.1 51.5c-1.5.7-2.9 1.4-4.3 2l-.3.1c-.3.1-.4.3-.2.6s.4.4.6.6c.7.6 1.6.9 2.5 1 1.4.1 2.7-.2 4-.9 1.4-.8 2.7-1.8 3.8-3 .2-.3.3-.3.6-.1 1.2.8 1.8 2.4 1 3.8-.4.8-1 1.3-1.7 1.8-1.2.9-2.4 1.6-3.9 2.2-1.2.5-2.5.8-3.8.8-2.6 0-4.8-1-6.4-3-1.9-2.2-2.9-4.7-2.9-7.5 0-2.9 1.1-5.3 3.6-7 1.3-.9 2.8-1.6 4.3-1.8 2-.4 3.7.2 5.3 1.4 1 .8 1.7 1.8 2.3 2.9.3.6.6 1.1.9 1.7.5.9.1 1.7-.8 2.2-1.5.7-3.1 1.5-4.6 2.2zm-2.8-1.9l3-1.4c.4-.2.4-.3.2-.8-.2-.3-.4-.6-.7-.9-.7-.7-1.6-1.1-2.6-1.1-1.2.1-2.3.7-3 1.8-.7 1.1-.7 2.4-.5 3.7 0 .2.2.3.3.2l.3-.1c1.1-.6 2-1 3-1.4zm11.5-3l-3.3-7.1-.1-.3c-.1-.3-.2-.4.1-.7l1.6-1.5c1.9-1.6 4-2.8 6.2-3.9.9-.4 1.9-.7 3-.8 2-.2 3.6.5 4.9 2.1.6.7 1 1.4 1.4 2.2l4.9 10.4.1.3c0 .2 0 .3-.1.4-.8.6-1.7 1-2.8.9-1-.1-1.7-.6-2.3-1.3-.3-.4-.5-.8-.8-1.3l-3.2-6.8c-.1-.3-.4-.7-.6-1-.7-.9-1.8-1.3-2.9-.9-.6.2-1.2.4-1.8.7-.6.3-1.2.8-1.7 1.2-.4.3-.4.5-.2.9l5.4 11.5c.3.6.3.6-.3.9l-3.2 1.5c-.6.3-.6.3-.9-.3-1.2-2.3-2.3-4.7-3.4-7.1zm-24.1 20.8l-2.3 1.1c-.4.2-.4.2-.7-.1-3-2.8-5.9-5.7-8.8-8.5l-4.3-4.2-.2-.2c-.2-.2-.2-.3 0-.5.9-1.4 2.8-2.6 4.8-1.4.5.3 1 .7 1.4 1.1l7.5 7.7c.1.1.2.3.3.3s.2.1.3.1c.1 0 .1-.2.1-.2v-.4l-1.3-12.9-.1-.3c0-.2.1-.3.3-.4l.9-.4 2.9-1.4.3-.1c.1 0 .3 0 .3.2v.4c.4 6.2.9 12.3 1.4 18.6 0 .4 0 .5-.4.7-.9.1-1.7.5-2.4.8zm99.7-56.5l-1.6-3.5c-.4-.9-1.3-1.1-2.1-.7l-.2.1c-1 .4-.8.5-1.3-.5l-1.1-2.3c-.2-.5-.2-.5.3-.7l1.5-.7c.5-.2.5-.3.3-.8l-1.5-3.2-.1-.3c-.1-.2-.1-.3.1-.4l.3-.1c1.1-.5 2.2-1.1 3.3-1.5l.2-.1c.3-.1.4-.1.5.2l.8 1.7.8 1.7c.2.5.3.5.9.3l3.6-1.7.3-.1c.3-.1.4-.1.6.2l.1.2c.4.8.8 1.6 1.1 2.5.3.6.3.6-.3 1-1.2.6-2.4 1.1-3.5 1.6l-.3.1c-.2.1-.2.3-.2.5 0 .1 0 .2.1.3l2.9 6.2c.2.4.5.8.8 1.2.6.6 1.3.8 2 .6.8-.2 1.5-.7 2.2-1.2.3-.2.5-.5.7-.7.3-.3.4-.3.7-.1 1.2 1 1.7 2.5.7 4-.4.7-1.1 1.3-1.7 1.7-1 .7-2 1.1-3.2 1.4-2.3.5-4.3-.4-5.5-2.4-.4-.7-.8-1.5-1.1-2.2s-.9-1.7-1.1-2.3zm-55.7 25.9c-.5-1.1-1.1-2.2-1.5-3.3-.3-.8-1.4-1.2-2.2-.8l-.5.3c-.5.2-.5.2-.7-.3l-.5-1.1c-.3-.5-.5-1.1-.8-1.7-.1-.3-.2-.4.2-.6l1.4-.7c.7-.3.7-.3.3-1.1l-1.5-3.1c-.2-.4-.2-.5.2-.6l3.5-1.6c.4-.2.5-.2.6.2.5 1.1 1 2.1 1.5 3.1.3.7.4.7 1 .4 1.2-.6 2.4-1.1 3.5-1.6l.3-.1c.1 0 .3-.1.3.2.5 1.1 1 2.1 1.5 3.1.1.2 0 .3-.1.4l-.3.1c-1.2.6-2.4 1.1-3.5 1.6l-.3.1c-.2.1-.2.3-.2.5l.1.3 2.9 6.1c.2.5.5.9.8 1.2.6.6 1.3.8 2.1.6.9-.3 1.7-.8 2.3-1.4l.5-.6c.2-.3.4-.3.6-.1 1 .7 1.8 2.2 1 3.8-.4.7-.8 1.2-1.4 1.6-1.3.9-2.6 1.6-4.2 1.8-2 .2-3.6-.5-4.7-2.1-.3-.5-.7-1-.9-1.6-.3-1-.9-2-1.3-3zm32.9-14.9c-1.1-2.4-2.2-4.8-3.4-7.2-.2-.4-.2-.7.1-1.1 1-1.1 2.2-2.1 3.4-2.9.8-.5 1.8-1 2.7-1.5.6-.3 1.2-.4 1.9-.4 1.2 0 2.2.5 2.7 1.6.3.5.5 1.1.5 1.7 0 .4 0 .4-.4.5-1.5.2-2.9.7-4.2 1.5-.4.2-.7.5-1 .7-.3.2-.2.3-.1.6l.1.3 5.2 11.1c.4.9.3.8-.4 1.1-1.1.5-2.1 1-3.1 1.5-.5.2-.5.3-.7-.3l-3.3-7.1v-.1zM207 103c1.2 2.7 2.5 5.4 3.7 8 .2.5.2.5-.2.8-.7.4-1.5.8-2.4.7-1.1-.1-2-.6-2.6-1.5-.2-.3-.4-.7-.6-1l-6-12.8c-.3-.5-.3-.5.3-.8 1.1-.5 2.2-1.1 3.3-1.5l.3-.1c.1 0 .3 0 .4.1l.1.3c1.3 2.5 2.5 5.1 3.7 7.8zm-9.8-15.3c1.3-.7 3.1-.2 3.9 1.4.7 1.7-.2 3.3-1.5 3.8-1.3.6-3.1.2-3.9-1.4-.7-1.5.1-3.2 1.5-3.8z"/></g></svg>