<svg xmlns="http://www.w3.org/2000/svg" fill="none" viewBox="0 0 48 48">
  <path fill="#fff" d="m10.786 8.096.047.038 4.198 3.807a.5.5 0 0 1 .03.713 2.893 2.893 0 0 0-.784 1.983c0 1.615 1.323 2.923 2.952 2.923.842 0 1.625-.35 2.181-.954.192-.208.556.238.766.429l3.426 3.367s4.897-4.189 5.708-5.387c.165-.244.287-.589.519-.42l.045.037 3.876 3.544a.5.5 0 0 1 .001.739l-.103.098a3.688 3.688 0 1 0 5.516 4.871.52.52 0 0 1 .712-.1l.046.037 3.868 3.537a.499.499 0 0 1 .081.644c-3.11 4.722-11.226 9.454-15.66 9.884-3.888.376-6.562-.141-9.563-2.074l-.192-.125c-2.043-1.35-5.79-4.391-11.256-9.134l-.699-.608c-1.642-.836-2.574-2.541-2.497-5.237.112-3.932 2.285-8.4 6.1-12.542a.52.52 0 0 1 .682-.07Z"/>
  <path fill="#334AFF" fill-rule="evenodd" d="M33.309 36.144c2.952-1.198 8.5-5.141 10.69-8.369l-4.422-3.87a4.236 4.236 0 0 1-3.316 1.577c-2.317 0-4.196-1.82-4.196-4.063 0-1.122 1.229-2.874 1.229-2.874l-3.753-3.543c-1.006 1.443-3.083 3.81-5.735 5.72-1.222.878-2.565 1.66-3.981 2.208" clip-rule="evenodd"/>
  <path fill="#0F1031" fill-rule="evenodd" d="m10.833 8.134-.047-.038a.52.52 0 0 0-.682.07c-3.815 4.143-5.988 8.61-6.1 12.542-.077 2.696.855 4.4 2.497 5.238l.699.607c5.467 4.743 9.213 7.783 11.256 9.134l.192.125c3.001 1.933 5.675 2.45 9.564 2.074 4.433-.43 12.55-5.162 15.66-9.884a.499.499 0 0 0-.082-.644l-3.868-3.537-.046-.038a.52.52 0 0 0-.712.101 3.688 3.688 0 1 1-5.516-4.871l.103-.099a.5.5 0 0 0-.001-.738l-3.876-3.544-.045-.037a.52.52 0 0 0-.733.127c-1.228 1.815-3.05 3.528-5.742 5.603l-.237.174c-5.23 3.814-10.014 5.671-14.71 4.984-2.206-.324-3.462-1.724-3.375-4.747l.007-.2c.166-3.486 2.08-7.479 5.433-11.257l.049-.054 3.461 3.14-.046.064a3.884 3.884 0 0 0-.686 2.208c0 2.171 1.78 3.933 3.979 3.933l.141-.002a3.99 3.99 0 0 0 2.403-.906l.026-.022 1.797 1.63a.52.52 0 0 0 .726-.03.499.499 0 0 0-.029-.713l-2.154-1.953a.52.52 0 0 0-.729.032 2.954 2.954 0 0 1-2.181.954c-1.63 0-2.952-1.308-2.952-2.923 0-.746.283-1.447.784-1.983a.5.5 0 0 0-.03-.713l-4.198-3.807Zm18.724 7.703.05-.07 3.064 2.802-.066.078a4.673 4.673 0 0 0-1.068 2.977c0 2.593 2.11 4.698 4.715 4.698l.152-.002a4.705 4.705 0 0 0 3.183-1.377l.025-.026 3.156 2.886-.092.128c-3.16 4.303-10.586 8.564-14.565 8.95-3.747.362-6.215-.138-9.082-2.032l-.293-.198c-1.769-1.213-4.699-3.57-8.78-7.066l-1.21-1.04c4.785.535 9.576-1.343 14.734-5.054l.5-.365.274-.212c2.364-1.84 4.066-3.42 5.303-5.077Z" clip-rule="evenodd"/>
  <path fill="#fff" fill-rule="evenodd" d="M33.91 30.404a1.304 1.304 0 0 0 .078 1.867c.548.495 1.401.46 1.905-.077a1.303 1.303 0 0 0-.078-1.867 1.368 1.368 0 0 0-1.905.077M29.866 26.88a1.303 1.303 0 0 0 .078 1.867c.548.495 1.4.46 1.905-.076a1.303 1.303 0 0 0-.079-1.868 1.367 1.367 0 0 0-1.904.077M25.821 23.357a1.303 1.303 0 0 0 .078 1.867c.548.494 1.401.46 1.905-.077a1.303 1.303 0 0 0-.078-1.867 1.368 1.368 0 0 0-1.905.077" clip-rule="evenodd"/>
</svg>
