<svg xmlns="http://www.w3.org/2000/svg" fill="none" viewBox="0 0 48 48">
  <path fill="#0F1031" d="M9.581 13.729c.152.047.213.283.137.528-.07.227-.235.381-.38.365l-.032-.007-7.032-2.185c-.151-.047-.212-.284-.136-.528.07-.228.234-.382.379-.365l.032.007 7.032 2.185ZM11.532 10.845c.101.121.024.353-.174.517-.183.152-.404.192-.516.1l-.024-.024-4.706-5.664c-.101-.122-.024-.353.173-.517.183-.152.405-.192.517-.1l.024.024 4.706 5.664ZM15.078 9.636c.01.158-.19.3-.445.315-.237.015-.44-.084-.475-.225l-.006-.033-.454-7.35c-.01-.158.19-.299.445-.314.238-.015.44.083.476.224l.005.033.454 7.35Z"/>
  <path fill="#334AFF" d="M35.711 36.97s-1.768.032-2.59-3.818c-.82-3.85 1.421-5.144 2.906-6.564 1.484-1.42 1.834-2.915 1.963-3.772.13-.858 1.36-2.556 2.12-3.914.762-1.359 1.393-1.763 1.393-1.763l1.538-1.391c-.308-.922-1.667-.954-1.667-.954s-.389-.275-2.736 1.035c-2.347 1.31-3.383 4.124-3.383 4.124-.907-.793.048-6.324.048-6.324s1.052-4.658 1.587-6.647c.534-1.99.372-2.685.372-2.685s-.826-1.602-2.46 1.067c-1.636 2.669-3.07 10.32-3.07 9.98 0-.339.397-6.955.397-6.955s.584-4.19.584-4.61c0-.42-.502-2.668-2.25.631-1.748 3.3-2.012 12.477-2.077 11.102-.065-1.375-.062-7.878-.062-7.878s.15-2.715-.754-2.743c-.904-.028-1.45 1.939-1.45 1.939-1.723 5.162-1.289 10.394-1.289 10.394s-.52-3.555-.379-5.498c.06-.816.135-2.204-.055-2.47a.527.527 0 0 0-.73-.118c-1.37.955-1.568 4.32-1.568 4.32l-.755 7.336s-.508 3.547.693 6.488c.18.44.387.842.603 1.2 1.525 2.528 2.79 5.204 3.72 8.006l.066.198"/>
  <g clip-path="url(#a)">
    <path fill="#fff" d="M26.627 42.354s2.899-2.21 2.956-8.175c.04-4.272-3.36-14.383-3.908-15.126-.547-.743-.876-.804-1.326-.755-.573.061-.462.73-.462.73l.592 7.353s-.808-4.287-1.543-7.401c-.734-3.115-1.935-5.356-3.236-5.09-.049.018-.347.092-.337.388.012.347 1.942 12.625 1.976 13.258 0 .016-1.488-6.54-1.491-6.557-.387-1.791-1.331-6.144-1.337-6.171-.375-1.782-1.475-2.59-2.481-2.222-.69.253-.218 2.639.119 5.23.273 2.1.762 5.582.854 6.706.002.017.265 2.351.262 2.334-.599-3.685-2.526-9.755-2.547-9.804-.017-.028-.61-1-1.504-.788-.898.213-.579 1.669-.573 1.695.005.041.481 3.89 1.146 7.715.62 3.572.202 5.105.14 5.304-.004.01-.017.012-.024.004l-.105-.123c-1.357-1.678-2.076-2.477-3.193-2.477-1.118 0-.967.673-.959.717l.002.004c.021.035.356.578 1.243 1.806.917 1.27 2.446 5.845 2.446 5.845s1.042 2.103 2.472 3.566c1.43 1.463 2.892 3.054 2.13 6.044"/>
    <path fill="#000" d="m18.866 46-.926-.239c.716-2.806-.668-4.218-2.005-5.593-1.47-1.498-2.51-3.598-2.558-3.693-.439-1.318-1.689-4.782-2.405-5.775-.878-1.221-1.231-1.775-1.26-1.832l-.047-.096c-.077-.362 0-.668.181-.897.248-.296.659-.448 1.222-.448 1.164 0 1.947.706 3.016 1.985.057-.792.048-2.129-.306-4.133-.64-3.684-1.097-7.33-1.145-7.731-.2-.926 0-2.004.935-2.224.974-.239 1.728.525 2.024 1.002.038.077.324.983.706 2.281l-.162-1.212c-.057-.41-.115-.82-.162-1.212-.363-2.605-.583-4.18.353-4.524a1.892 1.892 0 0 1 1.584.134c.668.372 1.174 1.097 1.441 2.08v-.057c0-.143.029-.649.65-.85 1.593-.324 2.977 1.652 3.865 5.422 0-.182.048-.449.22-.678.162-.21.4-.334.677-.372.62-.067 1.117.067 1.756.945.573.773 4.047 11.052 4 15.414-.058 6.128-3.017 8.457-3.14 8.552l-.583-.754.286.382-.286-.382s2.71-2.176 2.768-7.798c.038-4.285-3.388-14.24-3.818-14.841-.448-.611-.63-.592-.887-.564-.039.02-.048.124-.039.182l.592 7.387-.945.124s-.811-4.314-1.537-7.378c-.792-3.369-1.908-4.8-2.624-4.743.067.525.448 2.987.811 5.383.687 4.476 1.136 7.435 1.155 7.779l.029.439-.44.057c-.19.029-.333.038-.524-.449v-.028c-.277-.707-.669-2.415-1.48-6.462-.382-1.775-1.326-6.118-1.336-6.166-.181-.878-.573-1.536-1.06-1.803a.896.896 0 0 0-.792-.067c-.19.286.067 2.138.258 3.493.057.4.115.811.162 1.222l.258 1.966c.248 1.842.525 3.932.592 4.762l.038.335c.086.792.153 1.336.172 1.698.019.086.028.172.047.258h-.028c0 .497-.105.506-.372.544l-.468.067-.076-.468c-.573-3.502-2.33-9.096-2.51-9.668-.106-.143-.487-.64-.965-.535-.362.086-.267.917-.22 1.127.03.21.507 4.008 1.146 7.73.63 3.628.22 5.24.124 5.527l-.086.267-.563.115-.296-.344c-1.326-1.642-1.956-2.31-2.834-2.31-.363 0-.468.086-.487.096.133.21.487.744 1.155 1.67.945 1.317 2.443 5.774 2.51 5.975 0 0 1.012 2.004 2.357 3.388 1.384 1.413 3.102 3.169 2.253 6.5l.029.038Z"/>
  </g>
  <defs>
    <clipPath id="a">
      <path fill="#fff" d="M9.635 11.544h20.893v34.457H9.635z"/>
    </clipPath>
  </defs>
</svg>
