<svg xmlns="http://www.w3.org/2000/svg" fill="none" viewBox="0 0 48 48">
  <path fill="#334AFF" fill-rule="evenodd" d="M29.362 23.63c0 3.925-3.256 7.108-7.273 7.108-4.016 0-7.272-3.183-7.272-7.108s3.256-7.107 7.272-7.107c4.017 0 7.273 3.182 7.273 7.107Z" clip-rule="evenodd"/>
  <path fill="#fff" fill-rule="evenodd" d="M16.84 7.33a1.366 1.366 0 0 1 .715-1.82 1.423 1.423 0 0 1 1.86.698 1.365 1.365 0 0 1-.713 1.819 1.423 1.423 0 0 1-1.862-.698Zm21.754 4.641a1.366 1.366 0 0 0-.714 1.819 1.423 1.423 0 0 0 1.86.698 1.365 1.365 0 0 0 .715-1.82 1.423 1.423 0 0 0-1.861-.697ZM5.546 23.43a1.366 1.366 0 0 1 .714-1.819 1.423 1.423 0 0 1 1.86.698 1.365 1.365 0 0 1-.714 1.819l-.093.037a1.421 1.421 0 0 1-1.767-.735Zm28.58 8.402a1.365 1.365 0 0 0-.713 1.818 1.423 1.423 0 0 0 1.86.698 1.365 1.365 0 0 0 .715-1.819 1.423 1.423 0 0 0-1.861-.697Zm-18.623 8.14a1.366 1.366 0 0 0-.715 1.82 1.423 1.423 0 0 0 1.861.698 1.365 1.365 0 0 0 .714-1.82c-.316-.694-1.15-1.007-1.86-.697Z" clip-rule="evenodd"/>
  <path fill="#0F1031" fill-rule="evenodd" d="M19.408 9.238c1.339-.662 1.924-2.24 1.307-3.595-.636-1.397-2.31-2.025-3.74-1.403-1.428.622-2.07 2.258-1.434 3.655a2.832 2.832 0 0 0 2.43 1.638l1.401 4.92.025.072a.716.716 0 0 0 .852.412.695.695 0 0 0 .512-.777l-.018-.08-1.375-4.823.04-.019Zm22.346 2.865c.617 1.355.032 2.934-1.307 3.596l-.128.06a2.881 2.881 0 0 1-3.178-.594l-.066.042-6.22 3.582-.069.035a.72.72 0 0 1-.905-.28.685.685 0 0 1 .187-.91l.065-.043 6.22-3.582.085-.041c-.37-1.3.279-2.702 1.577-3.267 1.43-.622 3.103.006 3.74 1.402ZM22.09 15.827c4.409 0 7.983 3.494 7.983 7.803 0 4.31-3.574 7.803-7.983 7.803-4.41 0-7.984-3.493-7.984-7.803 0-4.31 3.574-7.803 7.984-7.803Zm8.536 13.203.07.039.068.047 2.23 1.764c.168-.124.353-.232.554-.319 1.43-.622 3.103.007 3.74 1.403.636 1.397-.007 3.032-1.436 3.655-1.43.621-3.103-.006-3.74-1.403a2.705 2.705 0 0 1-.002-2.246l-2.241-1.773-.058-.05a.684.684 0 0 1-.047-.928.723.723 0 0 1 .862-.189ZM20.05 33.086a.692.692 0 0 0-.434-.825.719.719 0 0 0-.887.332l-.032.07-2.274 5.82a2.879 2.879 0 0 0-1.5.22c-1.429.621-2.072 2.257-1.436 3.654.637 1.397 2.31 2.025 3.74 1.403l.127-.06c1.34-.661 1.925-2.24 1.308-3.595a2.768 2.768 0 0 0-.915-1.109l2.28-5.838.023-.072Zm-5.263 8.706a1.365 1.365 0 0 1 .714-1.82 1.423 1.423 0 0 1 1.861.699 1.365 1.365 0 0 1-.714 1.819 1.423 1.423 0 0 1-1.86-.698Zm18.625-8.142a1.365 1.365 0 0 1 .714-1.818 1.423 1.423 0 0 1 1.86.697 1.365 1.365 0 0 1-.714 1.82 1.423 1.423 0 0 1-1.86-.699ZM15.527 23.63c0-3.541 2.938-6.412 6.562-6.412 3.623 0 6.56 2.87 6.56 6.412s-2.937 6.413-6.56 6.413c-3.624 0-6.562-2.871-6.562-6.413ZM9.42 21.744c.082.18.143.363.183.548l2.654.152.077.008a.7.7 0 0 1 .592.726.704.704 0 0 1-.674.654h-.078l-2.633-.15a2.784 2.784 0 0 1-1.556 1.716c-1.43.622-3.103-.006-3.74-1.402-.636-1.397.007-3.033 1.436-3.655 1.429-.622 3.103.006 3.74 1.403ZM5.545 23.43a1.366 1.366 0 0 1 .715-1.819 1.423 1.423 0 0 1 1.86.698 1.365 1.365 0 0 1-.714 1.819l-.093.037a1.421 1.421 0 0 1-1.768-.735ZM38.594 11.97a1.365 1.365 0 0 0-.715 1.819 1.423 1.423 0 0 0 1.861.698 1.365 1.365 0 0 0 .715-1.82 1.423 1.423 0 0 0-1.861-.697ZM16.84 7.329a1.365 1.365 0 0 1 .715-1.819 1.423 1.423 0 0 1 1.86.698 1.365 1.365 0 0 1-.714 1.819 1.423 1.423 0 0 1-1.86-.698Z" clip-rule="evenodd"/>
</svg>
