<svg xmlns="http://www.w3.org/2000/svg" width="24" height="25" viewBox="0 0 24 25" fill="none">
	<path d="M12 9.65364C9.8 9.65364 8.1 11.4536 8.1 13.6536C8.1 15.8536 9.9 17.6536 12 17.6536C14.1 17.6536 16 15.8536 16 13.6536C16 11.4536 14.2 9.65364 12 9.65364ZM12 16.1536C10.6 16.1536 9.6 15.0536 9.6 13.6536C9.6 12.2536 10.7 11.1536 12 11.1536C13.3 11.1536 14.5 12.2536 14.5 13.6536C14.5 15.0536 13.4 16.1536 12 16.1536ZM20.2 8.45364C20.1 8.45364 19.9 8.45364 19.7 8.35364L17.2 7.55364C16.8 7.45364 16.4 7.15364 16.1 6.75364L15.1 5.25364C14.7 4.75364 14.1 4.35364 13.4 4.35364H10.5C9.9 4.45364 9.3 4.75364 8.9 5.35364L7.9 6.85364C7.6 7.15364 7.3 7.45364 6.8 7.55364L4.3 8.35364C4.1 8.45364 3.9 8.45364 3.7 8.45364C2.7 8.65364 2 9.35364 2 10.3536V18.6536C2 19.6536 2.9 20.5536 4 20.5536H20C21.1 20.5536 22 19.7536 22 18.6536V10.3536C22 9.35364 21.3 8.65364 20.2 8.45364ZM20.5 18.5536C20.5 18.7536 20.3 18.9536 20 18.9536H4C3.7 18.9536 3.5 18.7536 3.5 18.5536V10.3536C3.5 10.2536 3.7 10.0536 4 9.95364C4.2 9.95364 4.5 9.85364 4.8 9.75364L7.3 8.95364C8 8.75364 8.7 8.35364 9.1 7.65364L10.1 6.15364C10.2 6.05364 10.3 5.95364 10.5 5.95364H13.4C13.6 5.95364 13.7 6.05364 13.8 6.15364L14.8 7.65364C15.2 8.35364 15.9 8.75364 16.7 9.05364L19.2 9.85364C19.5 9.95364 19.8 9.95364 20 10.0536C20.3 10.0536 20.4 10.2536 20.4 10.4536V18.5536H20.5Z" fill="#1E1E1E"/>
</svg>
