<svg width="28" height="23" viewBox="0 0 28 23" fill="none" xmlns="http://www.w3.org/2000/svg">
<g id="Community-Events-icon">
<path id="white fill" d="M7.00391 6.86914H26.8722V18.8149C26.8722 20.1344 25.7986 21.2041 24.4743 21.2041H7.00391V6.86914Z" fill="white"/>
<g id="cal">
<path id="fill" fill-rule="evenodd" clip-rule="evenodd" d="M26.9409 6.96722V4.79514C26.965 3.40408 25.8186 2.26444 24.398 2.26662L9.31398 2.29117C7.92159 2.29303 6.79041 3.39351 6.7793 4.75753L6.7793 6.96722H26.9409Z" fill="#334AFF"/>
<path id="Path" d="M22.3592 0C22.5614 0 22.7278 0.149753 22.7491 0.342134L22.7514 0.383972L22.7512 1.88266L24.398 1.88261C26.0083 1.88065 27.3131 3.14897 27.3338 4.70861V18.4748C27.3338 20.1949 25.9095 21.5892 24.1529 21.5892L13.7599 21.5886C13.5433 21.5885 13.3678 21.4166 13.3678 21.2045C13.3679 20.9925 13.5435 20.8206 13.7601 20.8206L24.1529 20.8213C25.4488 20.8213 26.5045 19.8141 26.5479 18.5555L26.5493 18.4748L26.5493 4.71095C26.5271 3.59649 25.6166 2.69112 24.4783 2.65188L24.3985 2.65056L22.7512 2.6506L22.7514 4.21747C22.7514 4.42953 22.5758 4.60144 22.3592 4.60144C22.1571 4.60144 21.9907 4.45169 21.9694 4.25931L21.9671 4.21747L21.9669 2.6506L11.9975 2.65163L11.9976 4.21747C11.9976 4.42953 11.822 4.60144 11.6054 4.60144C11.4033 4.60144 11.2369 4.45169 11.2156 4.25931L11.2133 4.21747L11.2133 2.65163L9.31504 2.65199C8.16951 2.65352 7.22425 3.56035 7.17399 4.68104L7.17196 4.75778L7.17323 7.56206C7.17332 7.77412 6.99784 7.94611 6.78126 7.9462C6.57913 7.94629 6.41265 7.79661 6.39127 7.60424L6.38895 7.5624L6.3877 4.75489C6.40031 3.2061 7.66171 1.9341 9.22563 1.88548L9.31447 1.88405L11.2133 1.88368L11.2133 0.383972C11.2133 0.17191 11.3889 0 11.6054 0C11.8076 0 11.974 0.149753 11.9953 0.342134L11.9976 0.383972L11.9975 1.88368L21.9669 1.88266L21.9671 0.383972C21.9671 0.17191 22.1427 0 22.3592 0Z" fill="#2C3338"/>
<path id="31" fill-rule="evenodd" clip-rule="evenodd" d="M17.4657 15.363C17.4657 16.3828 16.5909 17.0844 15.0912 17.0844C13.4416 17.0844 12.7334 16.4725 12.7334 15.1509V14.9959H13.5665V15.1101C13.5665 15.9831 14.0414 16.3665 15.0829 16.3665C16.016 16.3665 16.5992 15.9341 16.5992 15.2815C16.5992 14.5799 16.1493 14.3596 15.3162 14.3596H14.5247V13.7233H15.3162C16.141 13.7233 16.5159 13.3888 16.5159 12.7851C16.5159 12.2059 16.0493 11.7898 15.1245 11.7898C14.1914 11.7898 13.6582 12.2956 13.6582 13.0054V13.0951H12.8417V12.9809C12.8417 11.8388 13.6665 11.0801 15.1495 11.0801C16.5659 11.0801 17.3574 11.7572 17.3574 12.7035C17.3574 13.3562 17.0741 13.7885 16.4826 13.9925C17.1074 14.1801 17.4657 14.6125 17.4657 15.363ZM21.6318 16.2034V16.9702H18.3075V16.2034H19.5656V12.7444H18.6075V12.1243C19.299 12.0917 19.5906 11.8062 19.7072 11.1699H20.3738V16.2034H21.6318Z" fill="#0F1031"/>
<path id="white fill_2" fill-rule="evenodd" clip-rule="evenodd" d="M6.30661 14.7187C7.65416 14.7187 8.74657 13.6491 8.74657 12.3296C8.74657 11.0101 7.65416 9.94043 6.30661 9.94043C4.95905 9.94043 3.86664 11.0101 3.86664 12.3296C3.86664 13.6491 4.95905 14.7187 6.30661 14.7187ZM6.30662 22.0569C9.19424 22.0569 11.5351 21.3743 11.5351 20.1798C11.5351 17.3523 9.19424 15.0601 6.30662 15.0601C3.419 15.0601 1.07812 17.3523 1.07812 20.1798C1.07812 21.545 3.419 22.0569 6.30662 22.0569Z" fill="white"/>
<path id="Shape (Stroke)" fill-rule="evenodd" clip-rule="evenodd" d="M6.28259 10.2113C5.05675 10.2113 4.063 11.1844 4.063 12.3847C4.063 13.585 5.05675 14.5581 6.28259 14.5581C7.50844 14.5581 8.50219 13.585 8.50219 12.3847C8.50219 11.1844 7.50844 10.2113 6.28259 10.2113ZM3.27872 12.3847C3.27872 10.7602 4.6236 9.44336 6.28259 9.44336C7.94159 9.44336 9.28646 10.7602 9.28646 12.3847C9.28646 13.4411 8.71767 14.3675 7.8636 14.8861C10.1953 15.5547 11.8982 17.6646 11.8982 20.1639C11.8982 20.6463 11.671 21.0505 11.3268 21.3696C10.9885 21.6832 10.5268 21.9265 10.0092 22.1131C8.97267 22.4868 7.61732 22.6664 6.28259 22.6664C4.94787 22.6664 3.59252 22.4868 2.55597 22.1131C2.0384 21.9265 1.57668 21.6832 1.23842 21.3696C0.8942 21.0505 0.666992 20.6463 0.666992 20.1639C0.666992 17.6646 2.36991 15.5547 4.70159 14.8861C3.84752 14.3675 3.27872 13.4411 3.27872 12.3847ZM6.28259 15.4331C3.61433 15.4331 1.45127 17.5512 1.45127 20.1639C1.45127 20.3876 1.55053 20.6014 1.77762 20.8119C2.01067 21.028 2.36513 21.226 2.82695 21.3925C3.7492 21.725 5.00559 21.8985 6.28259 21.8985C7.5596 21.8985 8.81598 21.725 9.73824 21.3925C10.2001 21.226 10.5545 21.028 10.7876 20.8119C11.0147 20.6014 11.1139 20.3876 11.1139 20.1639C11.1139 17.5512 8.95086 15.4331 6.28259 15.4331Z" fill="#0F1031"/>
</g>
</g>
</svg>
