<svg width="26" height="22" xmlns="http://www.w3.org/2000/svg"><g fill-rule="nonzero" fill="none"><path d="M2.971 1.571h4.452c1.006 0 1.92.587 2.338 1.501l.676 1.477h13.106c.946 0 1.714.767 1.714 1.714v12.451c0 .947-.768 1.715-1.714 1.715H2.97a1.714 1.714 0 01-1.714-1.715V3.286c0-.947.767-1.715 1.714-1.715z" stroke="#3D54FF" stroke-width="1.3" stroke-linecap="round" stroke-linejoin="round"/><path d="M4.171 8.16l.288-.774H6.42l.281.775h1.111L6.05 3.587H4.83L3.06 8.161h1.111zM6.153 6.53H4.727L5.44 4.56l.713 1.968z" fill="#3D54FF"/><path stroke="#3D54FF" stroke-width="1.3" stroke-linecap="round" stroke-linejoin="round" d="M4.92 17.696l3.964-5.413 3.541 3.214 4.602-4.765 4.568 6.964z"/></g></svg>