<svg width="26" height="25" xmlns="http://www.w3.org/2000/svg"><g fill-rule="nonzero" stroke="#3D54FF" stroke-width="1.3" fill="none" stroke-linecap="round" stroke-linejoin="round"><path d="M9.206 8.367C7.723 7.152 6.292 6.731 4.913 7.106c-1.082.293-2.077 1.167-2.63 2.245-.607 1.186-.719 2.592-.719 3.11 0 6.494 5.265 11.76 11.76 11.76s11.76-5.266 11.76-11.76C25.084 5.964 19.82.7 13.324.7c-2.331 0-4.504.678-6.332 1.848M13.736 15.77l1.897 1.843M16.866 12.863l1.897 1.844"/><path d="M8.857 8.882l.848-.848a4.08 4.08 0 015.77 0l2.546 2.545a.48.48 0 010 .68l-5.94 5.939a.48.48 0 01-.679 0l-2.545-2.546a4.08 4.08 0 010-5.77z"/></g></svg>