<?xml version="1.0" encoding="utf-8"?>
<!-- Generator: Adobe Illustrator 18.1.1, SVG Export Plug-In . SVG Version: 6.00 Build 0)  -->
<svg version="1.1" id="Layer_1" xmlns="http://www.w3.org/2000/svg" xmlns:xlink="http://www.w3.org/1999/xlink" x="0px" y="0px"
	 viewBox="0 0 330.2 78.9" enable-background="new 0 0 330.2 78.9" xml:space="preserve">
<g>
	<path fill="#72AF00" d="M299.3,13.2c-1.9,0-2.6-1-2.3-3l0.9-5.2c0.4-2,1.6-3,3.6-3h7.3c2,0,2.8,1,2.4,3l-0.9,5.2
		c-0.4,2-1.5,3-3.5,3H299.3z"/>
	<path fill="#72AF00" d="M286.2,77c-1.9,0-2.6-1-2.3-3l0.9-5.2c0.4-2,1.6-3,3.6-3h7.3c2,0,2.8,1,2.4,3l-0.9,5.2c-0.4,2-1.5,3-3.5,3
		H286.2z"/>
	<path fill="#333333" d="M228.1,16.9h-5.6c-1.9,0-3.5,1.3-3.8,3.2l-5.2,29.6H208l3.9-22c1.3-7.2-1.6-10.8-8.7-10.8h-40
		c-7.1,0-11.3,3.6-12.5,10.7l-3.9,22h-12.2h-10.5c-1.6,0-2.2-0.8-1.9-2.3l0.6-3.4c0.6,0.4,1.4,0.5,2.3,0.5h9.8
		c6.6,0,11.3-3.5,12.5-10.5l1.2-6.7c1.2-6.9-1.5-10.4-8.1-10.4h-15.8c-7,0-11.1,3.6-12.4,10.7l-3.9,22.1H87.2
		c-1.6,0-2.2-0.8-1.9-2.3l0.6-3.4c0.6,0.4,1.4,0.5,2.3,0.5h9.1c6.6,0,10.6-3.5,11.8-10.5l1.2-6.7c1.2-6.9-1.5-10.4-8.1-10.4H89.1
		h-1.3H75.1H62H39.6l0.1-0.5c0.4-2.1,1.6-3.1,3.6-3.1h5.8c1.8,0,3.3-1.3,3.6-3l1.4-8H39.4c-3.3,0-6.1,0.9-8.3,2.8
		c-2.2,1.8-3.6,4.5-4.2,8l-8.7,49.4h13.4l5.8-33.1h11.8l-5.8,33.1h13.4l5.5-30.8c0.2-1.4,1-2.2,2.3-2.3h7.9l0,0h2.6l-4,22.4
		c-1,5.9,3,10.7,9,10.7H117h15.3h12.2h3.4h5.4c2.6,0,4.8-1.9,5.2-4.4l4.5-25.3c0.3-1.6,1.2-2.3,2.7-2.3h8.4L169,59.9
		c-0.2,1.3,0.8,2.5,2.2,2.5h8.8c1.1,0,2-0.8,2.2-1.8l5.3-30.2h8.5c1.6,0,2.2,0.8,1.9,2.3l-4.4,24.8c-0.4,2.1,0.9,4.1,2.9,4.7v0.2
		h1.2h8.1h10.1h5.6h0.7v-0.1c1.6-0.3,2.8-1.5,3.1-3.1l6.7-37.8C232.3,19.1,230.5,16.9,228.1,16.9z M124.5,34.1l0.6-3.1
		c0.2-1,0.8-1.5,1.8-1.5h5.6c1,0,1.5,0.5,1.3,1.5l-0.6,3.1c-0.2,1-0.8,1.5-1.8,1.5h-5.6C124.8,35.6,124.4,35.1,124.5,34.1z
		 M87.7,34.1l0.6-3.1c0.2-1,0.8-1.5,1.8-1.5H95c1,0,1.5,0.5,1.3,1.5l-0.6,3.1c-0.2,1-0.8,1.5-1.8,1.5H89
		C87.9,35.6,87.5,35.1,87.7,34.1z"/>
	<path fill="#333333" d="M278.1,16.9L272,51.8c-1.2,7.1-5.3,10.6-12.3,10.6h-19.2c-7.2,0-10.3-3.4-9-10.3l6.2-35.2h13.4l-5.2,29.6
		c-0.3,1.7,0.3,2.5,1.9,2.5h9.1c1.6,0,2.5-0.8,2.7-2.3l5.3-29.8H278.1z"/>
	<path fill="#29ABE2" d="M220.6,10.2l0.9-5.2c0.4-2,1.6-3,3.6-3h7.3c2,0,2.8,1,2.4,3l-0.9,5.2c-0.4,2-1.5,3-3.5,3h-7.6
		C221,13.2,220.2,12.2,220.6,10.2z"/>
	<path fill="#D4145A" d="M8.3,25.9l0.9-5.2c0.4-2,1.6-3,3.6-3h7.3c2,0,2.8,1,2.4,3l-0.9,5.2c-0.4,2-1.5,3-3.5,3h-7.6
		C8.7,28.9,8,27.9,8.3,25.9z"/>
	<path fill="#333333" d="M274.6,62.5l2.2-12.7h25.7c0.9,0,1.4-0.5,1.6-1.4l0.5-2.7c0.1-0.8-0.2-1.2-1.1-1.2h-17
		c-3.5,0-5.8-0.8-6.8-2.4c-1-1.6-1.3-4.1-0.7-7.5l1.2-6.9c1.2-7.1,5.4-10.6,12.4-10.6H322l-2.2,12.6h-25.4c-0.9,0-1.4,0.5-1.6,1.4
		l-0.5,2.7c-0.1,0.8,0.2,1.2,1.1,1.2h17.1c6.4,0,9,3.3,7.9,9.8l-1.2,7.1c-1.3,7.1-5.1,10.7-11.5,10.7H274.6z"/>
</g>
</svg>
