<svg width="29" height="27" viewBox="0 0 29 27" fill="none" xmlns="http://www.w3.org/2000/svg">
<path fill-rule="evenodd" clip-rule="evenodd" d="M18.5845 16.0906L16.4379 18.5775C13.1138 16.7654 10.3432 14.1962 8.38855 11.1132L11.0718 9.12192C11.7185 8.64159 11.9349 7.81725 11.5986 7.11492L9.15285 2.00578C8.79064 1.24881 7.891 0.846307 7.02692 1.05463L2.37058 2.17506C1.47152 2.39307 0.890233 3.20031 1.01742 4.05423C2.69618 15.1438 12.092 23.8598 24.0466 25.4171C24.9671 25.535 25.8373 24.9958 26.0723 24.1618L27.2801 19.8424C27.5041 19.041 27.0706 18.2069 26.2553 17.8703L20.7481 15.6015C19.9909 15.2892 19.1019 15.4902 18.5845 16.0906Z" stroke="#141827" stroke-width="1.5" stroke-linecap="round" stroke-linejoin="round"/>
</svg>
