<svg width="36" height="36" viewBox="0 0 36 36" fill="none" xmlns="http://www.w3.org/2000/svg">
    <path d="M1 11H35V31C35 33.2091 33.2091 35 31 35H5C2.79086 35 1 33.2091 1 31V11Z" fill="white"/>
    <path fill-rule="evenodd" clip-rule="evenodd" d="M35.3253 11.6187V7.99673C35.3667 5.67714 33.3964 3.77679 30.9548 3.78042L5.03007 3.82136C2.63698 3.82447 0.692829 5.65952 0.673737 7.93402L0.673737 11.6187H35.3253Z" fill="#334AFF"/>
    <path d="M27.4502 0C27.7976 0 28.0836 0.249713 28.1202 0.570509L28.1241 0.640273L28.1237 3.13933L30.9542 3.13925C33.7218 3.13599 35.9644 5.2509 35.9998 7.85161V30.8067C35.9998 33.6749 33.552 36 30.5329 36L12.6706 35.9989C12.2984 35.9988 11.9967 35.7121 11.9968 35.3585C11.9968 35.0049 12.2986 34.7183 12.6709 34.7184L30.5329 34.7195C32.7602 34.7195 34.5745 33.0399 34.6492 30.9412L34.6516 30.8067L34.6515 7.85551C34.6134 5.99715 33.0485 4.48745 31.0922 4.42201L30.9551 4.4198L28.1237 4.41988L28.1241 7.03263C28.1241 7.38624 27.8224 7.6729 27.4502 7.6729C27.1028 7.6729 26.8167 7.42319 26.7802 7.10239L26.7762 7.03263L26.7758 4.41988L9.64162 4.42159L9.64169 7.03263C9.64169 7.38624 9.33995 7.6729 8.96773 7.6729C8.62033 7.6729 8.33431 7.42319 8.29772 7.10239L8.29377 7.03263L8.29369 4.42159L5.03126 4.42219C3.06246 4.42475 1.43784 5.93688 1.35146 7.80564L1.34797 7.93359L1.34999 15.2097C1.35015 15.5633 1.04855 15.8501 0.676327 15.8503C0.328923 15.8504 0.0427941 15.6008 0.00605348 15.28L0.00206621 15.2103L7.04435e-05 7.92877C0.021749 5.34617 2.18971 3.2251 4.87759 3.14404L5.03027 3.14164L8.29369 3.14104L8.29377 0.640273C8.29377 0.28666 8.59551 0 8.96773 0C9.31513 0 9.60115 0.249713 9.63774 0.570509L9.64169 0.640273L9.64162 3.14104L26.7758 3.13933L26.7762 0.640273C26.7762 0.28666 27.0779 0 27.4502 0Z" fill="#0F1031"/>
    <path d="M8.54947 0C8.20206 0 7.91605 0.249713 7.87946 0.570509L7.87551 0.640273L7.87589 3.13933L5.04544 3.13925C2.2778 3.13599 0.0352497 5.2509 -0.000183105 7.85161V30.8067C-0.000183105 33.6749 2.44767 36 5.46678 36L23.329 35.9989C23.7012 35.9988 24.0029 35.7121 24.0029 35.3585C24.0028 35.0049 23.701 34.7183 23.3288 34.7184L5.46676 34.7195C3.23948 34.7195 1.4251 33.0399 1.35044 30.9412L1.34805 30.8067L1.34813 7.85551C1.38626 5.99715 2.95111 4.48745 4.90743 4.42201L5.04454 4.4198L7.87589 4.41988L7.87551 7.03263C7.87551 7.38624 8.17725 7.6729 8.54947 7.6729C8.89687 7.6729 9.18288 7.42319 9.21947 7.10239L9.22343 7.03263L9.22381 4.41988L26.358 4.42159L26.3579 7.03263C26.3579 7.38624 26.6597 7.6729 27.0319 7.6729C27.3793 7.6729 27.6653 7.42319 27.7019 7.10239L27.7059 7.03263L27.7059 4.42159L30.9684 4.42219C32.9372 4.42475 34.5618 5.93688 34.6482 7.80564L34.6517 7.93359L34.6496 15.2097C34.6495 15.5633 34.9511 15.8501 35.3233 15.8503C35.6707 15.8504 35.9568 15.6008 35.9936 15.28L35.9976 15.2103L35.9996 7.92877C35.9779 5.34617 33.8099 3.2251 31.122 3.14404L30.9694 3.14164L27.7059 3.14104L27.7059 0.640273C27.7059 0.28666 27.4041 0 27.0319 0C26.6845 0 26.3985 0.249713 26.3619 0.570509L26.3579 0.640273L26.358 3.14104L9.22381 3.13933L9.22343 0.640273C9.22343 0.28666 8.92169 0 8.54947 0Z" fill="#0F1031"/>
    <path d="M9.64655 29.9533V25.6371C9.64671 25.2792 9.92243 24.9887 10.2625 24.9887H14.3626C14.7027 24.9887 14.9784 25.2792 14.9786 25.6371C14.9786 25.9951 14.7028 26.2854 14.3626 26.2854H11.7479L13.3103 27.9306H13.3111C14.0501 28.7099 14.9878 29.3012 16.0726 29.6071C19.3586 30.5338 22.7362 28.4818 23.6167 25.0234C23.7048 24.6775 24.0429 24.4723 24.3715 24.565C24.6998 24.6577 24.8948 25.0128 24.807 25.3585C23.7504 29.5086 19.6973 31.9717 15.7542 30.8599C14.4545 30.4933 13.3273 29.7829 12.4393 28.8466V28.8474L10.8785 27.203V29.9533C10.8784 30.3113 10.6027 30.6016 10.2625 30.6016C9.92237 30.6016 9.64661 30.3113 9.64655 29.9533ZM10.5272 21.3318C11.5838 17.1816 15.6368 14.7185 19.58 15.8304C20.8793 16.1969 22.0062 16.907 22.8941 17.8429L24.4557 19.4857V16.7371C24.4558 16.3792 24.7316 16.0888 25.0717 16.0888C25.4117 16.0888 25.6875 16.3792 25.6876 16.7371V21.0533C25.6875 21.4112 25.4118 21.7016 25.0717 21.7016H20.9716C20.6314 21.7016 20.3557 21.4112 20.3556 21.0533C20.3556 20.6952 20.6314 20.405 20.9716 20.405H23.5863L22.023 18.7605V18.7597C21.2841 17.9805 20.3464 17.3892 19.2616 17.0832C15.9757 16.1565 12.5981 18.2087 11.7174 21.667C11.6294 22.0128 11.2913 22.218 10.9627 22.1254C10.6342 22.0327 10.4392 21.6776 10.5272 21.3318Z" fill="#0F172A"/>
</svg>
