<?xml version="1.0" encoding="UTF-8"?>
<svg width="47px" height="47px" viewBox="0 0 47 47" version="1.1" xmlns="http://www.w3.org/2000/svg" xmlns:xlink="http://www.w3.org/1999/xlink">
    <!-- Generator: Sketch 53.2 (72643) - https://sketchapp.com -->
    <title>doctor</title>
    <desc>Created with Sketch.</desc>
    <g id="Freemius" stroke="none" stroke-width="1" fill="none" fill-rule="evenodd" stroke-linecap="square">
        <g id="Dashboard-Copy" transform="translate(-324.000000, -155.000000)" stroke-width="3">
            <g id="Group" transform="translate(220.000000, 146.000000)">
                <g id="doctor" transform="translate(105.000000, 10.000000)">
                    <path d="M14.5,30.5 L14.5,32.5 C14.5,39.1 19.9,44.5 26.5,44.5 L26.5,44.5 C33.1,44.5 38.5,39.1 38.5,32.5 L38.5,32.5" id="Path" stroke="#16A0D6"></path>
                    <circle id="Oval" stroke="#16A0D6" cx="38.5" cy="26.5" r="6"></circle>
                    <path d="M20.5,2.5 L26.2,2.5 C27.4,2.5 28.4,3.6 28.2,4.8 L25,27.1 C24.7,29.1 23,30.5 21,30.5 L8,30.5 C6,30.5 4.3,29 4,27.1 L0.8,4.8 C0.7,3.6 1.6,2.5 2.8,2.5 L8.5,2.5" id="Path" stroke="#111111"></path>
                    <path d="M8.5,0.5 L8.5,4.5" id="Path" stroke="#111111"></path>
                    <path d="M20.5,0.5 L20.5,4.5" id="Path" stroke="#111111"></path>
                </g>
            </g>
        </g>
    </g>
</svg>