<svg width="13" height="16" fill="none" xmlns="http://www.w3.org/2000/svg"><path fill-rule="evenodd" clip-rule="evenodd" d="M6.667 9.968c-.486.197-.935.303-1.262.286-.423-.024-.604-.21-.605-.281 0-.05.158-.207.645-.242.076-.005.157-.009.24-.009.333 0 .703.055.982.246m.909 4.292c-1.781.492-3.663.038-4.795-1.155-.802-.844-1.07-1.901-.738-2.9.67-2.007 3.877-3.212 5.926-3.212h.066c.764.01 1.293.194 1.38.482.05.161-.067.443-.31.754-.43.548-1.084 1.045-1.749 1.41-.421-.463-1.097-.673-1.962-.61-.962.07-1.302.536-1.298.95.004.451.441.932 1.27.978.502.028 1.101-.127 1.703-.39.089.346.061.801-.083 1.343a.352.352 0 0 0 .68.182c.197-.737.212-1.355.045-1.846.786-.441 1.512-1.027 1.948-1.582.409-.522.554-.99.43-1.395-.089-.293-.3-.525-.617-.69.024-2.648.494-4.477.916-4.48h.003c.062 0 .146.014.249.117.343.34.752 1.461.752 4.86 0 3.354-.287 6.21-3.816 7.184M4.214 6.438V6.41l-.006-.04c-.05-.722.037-1.292.257-1.597a.59.59 0 0 1 .432-.256.748.748 0 0 1 .646.205c.342.329.542 1.04.523 1.818a9.735 9.735 0 0 0-1.758.617 7.581 7.581 0 0 1-.094-.72M7.249 5.21A.65.65 0 0 1 7.755 5c.336 0 .482.11.562.192.193.198.297.58.311 1.138a4.688 4.688 0 0 0-.655-.042 7.21 7.21 0 0 0-1.027.08c-.016-.511.091-.927.303-1.158m3.888-3.494a1.045 1.045 0 0 0-.747-.321h-.006c-.928.005-1.249 1.39-1.409 2.432a15.79 15.79 0 0 0-.111.92L8.822 4.7c-.262-.268-.621-.405-1.067-.405a1.353 1.353 0 0 0-1.223.716 2.151 2.151 0 0 0-.5-.796 1.45 1.45 0 0 0-1.22-.397 1.301 1.301 0 0 0-.918.543l-.003.004C3.505 2.44 2.771.115 1.49.247 1.175.28.896.45.685.737-.303 2.082.16 6.076.59 8.224a.353.353 0 0 0 .69-.138c-.719-3.597-.558-6.209-.028-6.93.125-.17.238-.2.312-.207.707-.073 1.578 2.397 1.945 5.515.03.386.088.748.145 1.029v.003c-1.058.61-1.932 1.445-2.28 2.488-.417 1.253-.09 2.568.895 3.607.963 1.015 2.384 1.57 3.875 1.57.536 0 1.082-.072 1.619-.22 4.002-1.105 4.334-4.35 4.334-7.864 0-3.006-.305-4.709-.96-5.36" fill="#0F1031"/></svg>