<svg width="184" height="39" xmlns="http://www.w3.org/2000/svg"><g fill="#0F1031" fill-rule="evenodd"><path d="M17.256 25.446c-1.256.51-2.42.785-3.265.74-1.095-.061-1.563-.544-1.564-.726-.001-.13.407-.535 1.668-.626.197-.014.406-.023.62-.023.862 0 1.82.141 2.541.635m2.351 11.107c-4.608 1.27-9.477.099-12.407-2.99-2.073-2.184-2.768-4.918-1.907-7.5 1.731-5.196 10.03-8.315 15.333-8.315l.17.001c1.976.026 3.345.503 3.572 1.248.127.416-.174 1.145-.804 1.95-1.113 1.418-2.804 2.705-4.524 3.648-1.09-1.196-2.84-1.74-5.077-1.58-2.49.181-3.368 1.39-3.36 2.46.01 1.168 1.142 2.412 3.287 2.531 1.298.071 2.85-.329 4.407-1.01.229.897.158 2.073-.216 3.477a.912.912 0 001.761.47c.509-1.907.546-3.506.115-4.777 2.034-1.141 3.914-2.657 5.041-4.094 1.058-1.35 1.433-2.563 1.114-3.608-.231-.758-.776-1.36-1.597-1.787.062-6.85 1.277-11.583 2.37-11.59h.007c.16 0 .378.037.644.301.888.883 1.946 3.782 1.946 12.577 0 8.678-.742 16.067-9.875 18.588m-8.699-20.24c0-.024.002-.046 0-.07l-.013-.1c-.13-1.871.093-3.346.664-4.136a1.528 1.528 0 011.119-.662c.669-.08 1.213.092 1.67.531.886.851 1.403 2.691 1.354 4.705a25.188 25.188 0 00-4.55 1.594 19.62 19.62 0 01-.244-1.863m7.854-3.176c.336-.366.764-.543 1.31-.543.869 0 1.246.284 1.455.497.498.511.767 1.502.804 2.945a12.132 12.132 0 00-1.697-.11c-.823 0-1.72.071-2.656.208-.04-1.323.236-2.4.784-2.997m10.06-9.04c-.547-.544-1.215-.832-1.932-.832h-.016c-2.402.015-3.23 3.599-3.646 6.293-.121.791-.215 1.598-.288 2.38-.036-.04-.071-.082-.108-.12-.679-.695-1.607-1.048-2.76-1.048-1.055 0-1.972.392-2.653 1.133-.194.212-.36.456-.511.72-.3-.792-.721-1.508-1.296-2.06-.853-.82-1.944-1.176-3.157-1.027a3.367 3.367 0 00-2.375 1.405l-.006.01C9.074 5.968 7.175-.049 3.86.295c-.815.086-1.536.525-2.084 1.27C-.779 5.04.42 15.374 1.532 20.932a.912.912 0 001.788-.358C1.459 11.268 1.874 4.51 3.246 2.645c.323-.439.614-.516.806-.536 1.83-.19 4.083 6.201 5.034 14.269.076.999.228 1.934.374 2.661l.002.01c-2.74 1.58-5 3.739-5.899 6.437-1.08 3.242-.237 6.644 2.315 9.333 2.491 2.625 6.167 4.06 10.025 4.06 1.388 0 2.8-.185 4.19-.569 10.355-2.858 11.213-11.255 11.213-20.345 0-7.778-.79-12.185-2.485-13.87M48.442 14.155h-8.121a.176.176 0 00-.176.175v1.394c0 .097.079.175.176.175h3.101v8.991c0 .097.08.176.176.176h1.583a.176.176 0 00.176-.176V15.9h3.085a.176.176 0 00.176-.176V14.33a.176.176 0 00-.176-.175M54.067 16.878c-.898 0-1.839.374-2.532 1.005V14.33a.176.176 0 00-.175-.176h-1.425a.176.176 0 00-.176.176v10.56c0 .097.079.176.176.176h1.425a.176.176 0 00.175-.176v-5.403c.379-.495 1.12-.991 1.93-.991 1.02 0 1.455.44 1.455 1.47v4.924c0 .097.08.176.176.176h1.425a.176.176 0 00.176-.176v-5.398c0-1.71-.91-2.614-2.63-2.614M62.035 18.4c1.339 0 2.035.963 2.139 1.929h-4.285c.147-.966.862-1.928 2.146-1.928m0-1.523c-2.285 0-4.007 1.797-4.007 4.18 0 2.472 1.7 4.198 4.134 4.198 1.294 0 2.398-.412 3.194-1.19a.175.175 0 00.02-.227l-.665-.934a.176.176 0 00-.13-.074.184.184 0 00-.139.053c-.51.524-1.329.849-2.138.849-1.535 0-2.248-1.08-2.398-2.023h5.85a.176.176 0 00.175-.176v-.349c0-2.536-1.602-4.307-3.896-4.307M77.254 14.155h-7.092a.176.176 0 00-.176.175v10.56c0 .097.079.176.176.176h7.092a.176.176 0 00.176-.176v-1.393a.176.176 0 00-.176-.176H71.92V20.38h5.223a.176.176 0 00.176-.176v-1.393a.176.176 0 00-.176-.176H71.92V15.9h5.334a.176.176 0 00.176-.175V14.33a.176.176 0 00-.176-.175M86.074 17.068h-1.536a.175.175 0 00-.164.11l-2.227 5.591-2.227-5.59a.175.175 0 00-.164-.111h-1.52a.176.176 0 00-.162.242l3.15 7.647c.028.066.092.109.163.109h1.536a.175.175 0 00.162-.109l3.15-7.647a.175.175 0 00-.161-.242M90.463 18.4c1.339 0 2.035.963 2.139 1.929h-4.286c.147-.966.863-1.928 2.147-1.928m0-1.523c-2.285 0-4.007 1.797-4.007 4.18 0 2.472 1.7 4.198 4.133 4.198 1.295 0 2.4-.412 3.195-1.19a.175.175 0 00.02-.227l-.665-.934a.176.176 0 00-.13-.074.185.185 0 00-.14.053c-.509.524-1.328.849-2.137.849-1.536 0-2.248-1.08-2.398-2.023h5.85a.176.176 0 00.175-.176v-.349c0-2.536-1.602-4.307-3.896-4.307M99.982 16.878c-1.266 0-2.157.663-2.532 1.004v-.638a.176.176 0 00-.175-.176H95.85a.176.176 0 00-.176.176v7.646c0 .097.079.176.176.176h1.425a.176.176 0 00.175-.176v-5.403c.379-.495 1.12-.991 1.93-.991 1.007 0 1.455.463 1.455 1.502v4.892c0 .097.079.176.176.176h1.425a.176.176 0 00.176-.176v-5.367c0-1.73-.91-2.645-2.63-2.645M108.255 23.457a.175.175 0 00-.13-.116.182.182 0 00-.167.054c-.106.117-.352.243-.645.243-.528 0-.569-.58-.569-.758v-4.21h1.376a.176.176 0 00.176-.176v-1.25a.176.176 0 00-.176-.176h-1.376v-1.914a.176.176 0 00-.175-.176h-1.425a.176.176 0 00-.176.176v1.914h-1.09a.176.176 0 00-.176.175v1.251c0 .097.078.176.175.176h1.091v4.526c0 1.329.709 2.06 1.997 2.06.7 0 1.225-.176 1.608-.539a.176.176 0 00.046-.184l-.364-1.076zM113.02 20.143c-.958-.223-1.637-.421-1.637-.936 0-.507.534-.822 1.392-.822.858 0 1.693.342 2.128.87.033.04.083.064.136.064h.01a.175.175 0 00.138-.081l.633-.998a.176.176 0 00-.027-.222c-.785-.746-1.833-1.14-3.034-1.14-2.122 0-3.089 1.265-3.089 2.44 0 1.782 1.639 2.162 2.956 2.466.938.212 1.715.439 1.715 1.064 0 .574-.55.917-1.471.917-1.02 0-1.978-.537-2.435-1.036a.175.175 0 00-.13-.057h-.014a.178.178 0 00-.133.08l-.68 1.045a.176.176 0 00.021.219c.795.811 1.939 1.24 3.308 1.24 1.982 0 3.263-.989 3.263-2.519 0-1.903-1.69-2.286-3.05-2.594M125.568 15.74c1.106 0 2.14.558 2.7 1.454a.18.18 0 00.232.063l1.346-.713a.176.176 0 00.064-.253c-1.022-1.533-2.483-2.31-4.342-2.31-3.187 0-5.59 2.423-5.59 5.637 0 3.214 2.403 5.638 5.59 5.638 1.84 0 3.3-.777 4.341-2.31a.177.177 0 00-.063-.253l-1.346-.713a.18.18 0 00-.231.063c-.56.896-1.595 1.452-2.7 1.452-1.99 0-3.328-1.558-3.328-3.877 0-2.355 1.306-3.877 3.327-3.877M136.016 21.974v1.178c-.382.473-1.049.755-1.788.755-.93 0-1.58-.552-1.58-1.344 0-.791.65-1.344 1.58-1.344.74 0 1.406.282 1.788.755m-1.47-5.096c-1.283 0-2.38.438-3.259 1.301a.176.176 0 00-.025.219l.617.982a.176.176 0 00.273.03c.647-.647 1.357-.962 2.171-.962 1.029 0 1.693.528 1.693 1.344v.844c-.588-.501-1.39-.766-2.326-.766-1.365 0-2.835.838-2.835 2.677 0 1.76 1.46 2.71 2.835 2.71.911 0 1.714-.274 2.326-.792v.425c0 .097.079.176.176.176h1.424a.176.176 0 00.176-.176v-5.16c0-1.813-1.183-2.852-3.247-2.852M141.48 14.155h-1.425a.176.176 0 00-.176.175v10.56c0 .097.08.176.176.176h1.425a.176.176 0 00.176-.176V14.33a.176.176 0 00-.176-.175M147.259 18.4c1.339 0 2.035.963 2.139 1.929h-4.286c.147-.966.863-1.928 2.147-1.928m0-1.523c-2.285 0-4.007 1.797-4.007 4.18 0 2.472 1.7 4.198 4.133 4.198 1.295 0 2.4-.412 3.195-1.19a.175.175 0 00.02-.227l-.665-.934a.176.176 0 00-.13-.074.188.188 0 00-.14.053c-.509.524-1.328.849-2.137.849-1.535 0-2.248-1.08-2.398-2.023h5.85a.176.176 0 00.175-.176v-.349c0-2.536-1.602-4.307-3.896-4.307M156.778 16.878c-1.267 0-2.157.663-2.532 1.004v-.638a.176.176 0 00-.176-.176h-1.424a.176.176 0 00-.176.176v7.646c0 .097.079.176.176.176h1.424a.176.176 0 00.176-.176v-5.403c.379-.495 1.12-.991 1.93-.991 1.006 0 1.455.463 1.455 1.502v4.892c0 .097.079.176.176.176h1.425a.176.176 0 00.176-.176v-5.367c0-1.73-.91-2.645-2.63-2.645M166.644 19.497v3.156c-.397.58-1.195.985-1.946.985-1.277 0-2.136-1.03-2.136-2.563 0-1.543.859-2.58 2.136-2.58.732 0 1.549.421 1.946 1.002m1.6-5.342h-1.424a.176.176 0 00-.176.175v3.547c-.633-.645-1.456-1-2.326-1-2.15 0-3.595 1.688-3.595 4.198 0 2.5 1.445 4.181 3.595 4.181a3.31 3.31 0 002.326-.987v.621c0 .097.079.176.176.176h1.424a.176.176 0 00.176-.176V14.33a.176.176 0 00-.176-.175M175.225 21.974v1.178c-.381.473-1.049.755-1.787.755-.932 0-1.582-.552-1.582-1.344 0-.791.65-1.344 1.582-1.344.739 0 1.406.282 1.787.755m-1.47-5.096c-1.283 0-2.379.438-3.259 1.301a.176.176 0 00-.025.219l.617.982a.176.176 0 00.273.03c.647-.647 1.357-.962 2.171-.962 1.029 0 1.693.528 1.693 1.344v.844c-.588-.501-1.39-.766-2.326-.766-1.365 0-2.835.838-2.835 2.677 0 1.76 1.46 2.71 2.835 2.71.911 0 1.714-.274 2.326-.792v.425c0 .097.079.176.176.176h1.425a.176.176 0 00.175-.176v-5.16c0-1.813-1.183-2.852-3.246-2.852M183.19 16.894c-.825 0-1.668.382-2.325 1.052v-.703a.176.176 0 00-.176-.175h-1.425a.176.176 0 00-.176.175v7.647c0 .097.08.176.176.176h1.425a.176.176 0 00.176-.176v-5.27c.33-.515 1.201-.982 1.835-.982.174 0 .322.015.452.044a.176.176 0 00.214-.172v-1.44a.176.176 0 00-.175-.176"/></g></svg>