<svg xmlns="http://www.w3.org/2000/svg" viewBox="0 0 532 505.91"><defs><style>.cls-1{fill:#189fd5;}.cls-2,.cls-3{fill:#010101;}.cls-3{opacity:0.3;}.cls-4{fill:none;}.cls-5{fill:#fff;}</style></defs><title>teclogo</title><g id="Layer_2" data-name="Layer 2"><g id="Layer_1-2" data-name="Layer 1"><rect class="cls-1" x="26.55" y="135.17" width="481" height="351"/><path class="cls-2" d="M434.37,74.16V87.88a34,34,0,1,1-67.93,0V74.16H165.56V87.88a34,34,0,1,1-67.93,0V74.16H0V505.91H532V74.16ZM499.53,479.4h-467V142.89H499.53Z"/><path class="cls-2" d="M131.59,99.78a11.9,11.9,0,0,0,11.9-11.9v-76a11.9,11.9,0,1,0-23.79,0v76A11.89,11.89,0,0,0,131.59,99.78Z"/><path class="cls-2" d="M400.52,99.78a11.9,11.9,0,0,0,11.9-11.9v-76a11.9,11.9,0,1,0-23.79,0v76A11.89,11.89,0,0,0,400.52,99.78Z"/><rect class="cls-2" x="246.89" y="295.19" width="42.48" height="44.09"/><rect class="cls-2" x="309.15" y="295.19" width="42.48" height="44.09"/><rect class="cls-2" x="371.4" y="295.19" width="42.48" height="44.09"/><rect class="cls-2" x="433.66" y="295.19" width="42.48" height="44.09"/><rect class="cls-2" x="184.65" y="295.19" width="42.47" height="44.09"/><rect class="cls-2" x="122.38" y="295.19" width="42.49" height="44.09"/><rect class="cls-2" x="60.13" y="295.19" width="42.48" height="44.09"/><rect class="cls-2" x="246.89" y="356.27" width="42.48" height="44.09"/><rect class="cls-2" x="309.15" y="356.27" width="42.48" height="44.09"/><rect class="cls-2" x="371.4" y="356.27" width="42.48" height="44.09"/><rect class="cls-2" x="433.66" y="356.27" width="42.48" height="44.09"/><rect class="cls-2" x="184.65" y="356.27" width="42.47" height="44.09"/><rect class="cls-2" x="122.38" y="356.27" width="42.49" height="44.09"/><rect class="cls-2" x="60.13" y="356.27" width="42.48" height="44.09"/><rect class="cls-2" x="122.38" y="416.27" width="42.49" height="44.09"/><rect class="cls-3" x="184.86" y="416.27" width="42.49" height="44.09"/><rect class="cls-3" x="246.86" y="416.27" width="42.49" height="44.09"/><rect class="cls-3" x="307.86" y="416.27" width="42.49" height="44.09"/><rect class="cls-3" x="370.86" y="416.27" width="42.49" height="44.09"/><rect class="cls-3" x="433.86" y="416.27" width="42.49" height="44.09"/><rect class="cls-2" x="60.13" y="416.27" width="42.48" height="44.09"/><rect class="cls-2" x="246.89" y="233.92" width="42.48" height="44.09"/><rect class="cls-2" x="309.15" y="233.92" width="42.48" height="44.09"/><rect class="cls-2" x="371.4" y="233.92" width="42.48" height="44.09"/><rect class="cls-2" x="433.66" y="233.92" width="42.48" height="44.09"/><rect class="cls-2" x="184.65" y="233.92" width="42.47" height="44.09"/><rect class="cls-2" x="122.38" y="233.92" width="42.49" height="44.09"/><rect class="cls-2" x="60.13" y="233.92" width="42.48" height="44.09"/><rect class="cls-2" x="246.89" y="173.31" width="42.48" height="44.09"/><rect class="cls-2" x="309.15" y="173.31" width="42.48" height="44.09"/><rect class="cls-2" x="371.4" y="173.31" width="42.48" height="44.09"/><rect class="cls-2" x="433.66" y="173.31" width="42.48" height="44.09"/><rect class="cls-2" x="184.65" y="173.31" width="42.47" height="44.09"/><rect class="cls-2" x="122.38" y="173.31" width="42.49" height="44.09"/><rect class="cls-2" x="60.13" y="173.31" width="42.48" height="44.09"/><path class="cls-4" d="M32.48,142.89v337H499.2v-337ZM381.41,361.21a6.7,6.7,0,0,1-.05,1,110.23,110.23,0,0,1-220.46-1V185.81a35.09,35.09,0,0,1,70.17,0v68.56a34.38,34.38,0,0,1,15-3.41,35,35,0,0,1,25.06,10.57,34.92,34.92,0,0,1,25-10.57,34.39,34.39,0,0,1,15,3.41V185.81a35.08,35.08,0,0,1,70.16,0Z"/><path class="cls-5" d="M346.33,150.73a35.11,35.11,0,0,0-35.08,35.08v68.56a34.39,34.39,0,0,0-15-3.41,34.92,34.92,0,0,0-25,10.57A35,35,0,0,0,246.1,251a34.38,34.38,0,0,0-15,3.41V185.81a35.09,35.09,0,0,0-70.17,0v175.4a110.23,110.23,0,0,0,220.46,1,6.7,6.7,0,0,0,.05-1V185.81A35.12,35.12,0,0,0,346.33,150.73Z"/><path class="cls-2" d="M342.89,158.61a33.75,33.75,0,0,0-33.71,33.71V258.2a33.08,33.08,0,0,0-14.45-3.27,33.57,33.57,0,0,0-24.08,10.16,33.56,33.56,0,0,0-24.08-10.16,33.07,33.07,0,0,0-14.44,3.27V192.32a33.72,33.72,0,0,0-67.43,0V360.88a105.93,105.93,0,0,0,211.86,1,7.79,7.79,0,0,0,0-1V192.32A33.75,33.75,0,0,0,342.89,158.61Zm-14.44,33.71a14.45,14.45,0,1,1,28.89,0V316.47a62.93,62.93,0,0,0-28.89-12.57Zm-48.16,96.32a14.45,14.45,0,1,1,28.89,0v14.44H280.29Zm-48.16,0a14.45,14.45,0,1,1,28.89,0v14.44H232.13Zm38.52,158.92A86.78,86.78,0,0,1,184,360.88V192.32a14.45,14.45,0,1,1,28.89,0v120.4a65.27,65.27,0,0,0,6.94,28.51c7.8,15.36,23.16,29.28,50.85,29.28h3.52C266.42,379.32,261,391.79,261,409a9.64,9.64,0,0,0,19.27,0c0-37.14,34.62-38.48,38.52-38.53a9.64,9.64,0,1,0,0-19.27H270.65c-12.81,0-21.33-4.09-27-9.63-6.07-5.87-8.91-13.34-10.31-19.26h85.44a45.87,45.87,0,0,1,9.68,1.25c10,2.27,24.36,8.86,28,27.64a49.26,49.26,0,0,1,.87,9.64,90.08,90.08,0,0,1-.53,9.63A86.88,86.88,0,0,1,270.65,447.56Z"/><path class="cls-1" d="M342.89,149.64a42.73,42.73,0,0,0-42.68,42.68v54a43.12,43.12,0,0,0-5.48-.34,42.22,42.22,0,0,0-24.08,7.45A42.2,42.2,0,0,0,246.57,246a43.35,43.35,0,0,0-5.48.34v-54a42.68,42.68,0,1,0-85.35,0V360.88A115,115,0,0,0,270.65,475.79c62.67,0,114.11-50.84,114.87-113.43.05-.62.05-1.12.05-1.48V192.32A42.72,42.72,0,0,0,342.89,149.64ZM376.6,360.88a7.79,7.79,0,0,1,0,1,105.93,105.93,0,0,1-211.86-1V192.32a33.72,33.72,0,0,1,67.43,0V258.2a33.07,33.07,0,0,1,14.44-3.27,33.56,33.56,0,0,1,24.08,10.16,33.57,33.57,0,0,1,24.08-10.16,33.08,33.08,0,0,1,14.45,3.27V192.32a33.71,33.71,0,0,1,67.42,0Z"/></g></g></svg>