<svg xmlns="http://www.w3.org/2000/svg" viewBox="0 0 47.92 48"><defs><style>.cls-1{fill:none;}.cls-2{fill:#010101;}.cls-3{fill:#fff;}</style></defs><title>block-icon-categories</title><g id="Layer_2" data-name="Layer 2"><g id="Layer_1-2" data-name="Layer 1"><path class="cls-1" d="M47.89,24.12a1.55,1.55,0,0,1-.25.84A1.55,1.55,0,0,0,47.89,24.12Z"/><path class="cls-1" d="M.25,25A1.55,1.55,0,0,1,0,24.12,1.55,1.55,0,0,0,.25,25Z"/><path class="cls-1" d="M.28,14.24A1.55,1.55,0,0,1,0,13.4,1.55,1.55,0,0,0,.28,14.24Z"/><path class="cls-1" d="M47.92,13.4a1.55,1.55,0,0,1-.25.84A1.55,1.55,0,0,0,47.92,13.4Z"/><path class="cls-2" d="M23.34,37.06a5.14,5.14,0,0,0,1.2,0A5.14,5.14,0,0,1,23.34,37.06Z"/><path class="cls-2" d="M23.94,41.49a9.21,9.21,0,0,1-4.15-1.32L4,31.81,1,33.4a1.69,1.69,0,0,0,0,3.1L21.67,47.44a5,5,0,0,0,4.62,0L46.9,36.49a1.69,1.69,0,0,0,0-3.1l-3-1.61L28.09,40.17A9.21,9.21,0,0,1,23.94,41.49Z"/><path class="cls-2" d="M47.82,23.6a1.86,1.86,0,0,0-1-1.11L43.8,20.86,33.55,26.31l-5.42,2.88A9.21,9.21,0,0,1,24,30.51a9.21,9.21,0,0,1-4.15-1.32L14.4,26.31,4.11,20.85,1,22.49a1.86,1.86,0,0,0-1,1.11A1.58,1.58,0,0,0,0,24a1.61,1.61,0,0,0,.25.86,2,2,0,0,0,.76.69L8.38,29.5l13.25,7a4.86,4.86,0,0,0,1.71.53,5.14,5.14,0,0,0,1.2,0,4.86,4.86,0,0,0,1.71-.53l13.28-7,7.34-3.9a2,2,0,0,0,.76-.69,1.61,1.61,0,0,0,.25-.86A1.58,1.58,0,0,0,47.82,23.6Z"/><path class="cls-2" d="M24.57,26.08a5.14,5.14,0,0,1-1.2,0,5.14,5.14,0,0,0,1.2,0Z"/><path class="cls-3" d="M47.82,23.69a1.51,1.51,0,0,1,.06.43A1.51,1.51,0,0,0,47.82,23.69Z"/><path class="cls-3" d="M0,24.12a1.51,1.51,0,0,1,.06-.43A1.51,1.51,0,0,0,0,24.12Z"/><path class="cls-2" d="M47.85,12.61a1.86,1.86,0,0,0-1-1.11L26.28.56a5,5,0,0,0-4.62,0L1,11.51a1.86,1.86,0,0,0-1,1.11,1.58,1.58,0,0,0-.06.44,1.61,1.61,0,0,0,.25.86A2,2,0,0,0,1,14.6l3.07,1.63,4.35,2.31L18.75,24l2.92,1.55a4.86,4.86,0,0,0,1.71.53,5.14,5.14,0,0,0,1.2,0,4.86,4.86,0,0,0,1.71-.53L29.2,24l10.26-5.44,4.35-2.31,3.1-1.65a2,2,0,0,0,.76-.69,1.61,1.61,0,0,0,.25-.86A1.58,1.58,0,0,0,47.85,12.61Z"/><path class="cls-3" d="M47.85,13a1.51,1.51,0,0,1,.06.43A1.51,1.51,0,0,0,47.85,13Z"/><path class="cls-3" d="M0,13.4A1.51,1.51,0,0,1,.09,13,1.51,1.51,0,0,0,0,13.4Z"/></g></g></svg>