<svg xmlns="http://www.w3.org/2000/svg" viewBox="0 0 48 48"><defs><style>.cls-1{fill:#010101;}</style></defs><title>block-icon-classic</title><g id="Layer_2" data-name="Layer 2"><g id="Layer_1-2" data-name="Layer 1"><path class="cls-1" d="M38.54,27.22c.37-8.18,2.79-22.7,2.79-22.7v0a1.52,1.52,0,0,0,0-.2,1.49,1.49,0,0,0-.52-1.13v0L40.7,3h0l-.2-.14C38.12,1.44,31.61,0,24,0,16.12,0,9.42,1.54,7.3,3h0a1.49,1.49,0,0,0-.63,1.22,1.47,1.47,0,0,0,0,.16v0l0,.11v0C6.95,6.07,9.21,19.5,9.57,27.22,3.74,28.76,0,31,0,34.47,0,40.91,9,48,24,48s24-7.06,24-13.53h0C48,31,44.26,28.82,38.54,27.22Zm-.22,6.35c-3,5.87-13.68,5.6-14.38,5.6s-11.3.18-14.35-5.68l0-5.24c4.77,4.18,14.43,4,14.43,4s9.35.33,14.43-4h0Z"/></g></g></svg>