<svg xmlns="http://www.w3.org/2000/svg" viewBox="0 0 48 43.31"><defs><style>.cls-1{fill:#010101;}</style></defs><title>block-icon-featured-image</title><g id="Layer_2" data-name="Layer 2"><g id="Layer_1-2" data-name="Layer 1"><path class="cls-1" d="M44,7.28H36.32L32,1.6A5.14,5.14,0,0,0,28.48,0h-9A5.14,5.14,0,0,0,16,1.6L11.68,7.28H4a4,4,0,0,0-4,4v28a4,4,0,0,0,4,4H44a4,4,0,0,0,4-4v-28A4,4,0,0,0,44,7.28ZM24,38a13.3,13.3,0,1,1,13.3-13.3A13.3,13.3,0,0,1,24,38Z"/><circle class="cls-1" cx="24" cy="24.65" r="8.8"/></g></g></svg>