<svg xmlns="http://www.w3.org/2000/svg" viewBox="0 0 48 48"><defs><style>.cls-1{fill:#010101;}</style></defs><title>block-icon-price</title><g id="Layer_2" data-name="Layer 2"><g id="Layer_1-2" data-name="Layer 1"><path class="cls-1" d="M24,0A24,24,0,1,0,48,24,24,24,0,0,0,24,0Zm3.31,37-.1,0-.37.07q-.49.1-1,.17l-.1,4.27h-4l-.1-4.28a9.15,9.15,0,0,1-5.21-2.35,9.65,9.65,0,0,1-2.59-6.26h4.84a4.52,4.52,0,0,0,1.12,3.21,5.12,5.12,0,0,0,3.94,1.63,5,5,0,0,0,1.08-.07,6.65,6.65,0,0,0,1.38-.31,4.35,4.35,0,0,0,1.3-.69,3.7,3.7,0,0,0,1-1.1,3.1,3.1,0,0,0,.38-1.56,2.66,2.66,0,0,0-.93-2.21,8.89,8.89,0,0,0-3.06-1.31L20.59,25l-.15-.06c-3.7-1.22-5.53-3-5.91-6a3.69,3.69,0,0,1-.09-.76c0-.11,0-.21,0-.31s0-.09,0-.14c0-3.74,3.38-6.78,7.23-7.05l.1-4.28h4l.1,4.34a12.67,12.67,0,0,1,2,.53,8.13,8.13,0,0,1,2.47,1.42A7.11,7.11,0,0,1,32.06,15,8.13,8.13,0,0,1,32.84,18H28A3.91,3.91,0,0,0,27,15.62a4.07,4.07,0,0,0-2.17-1.05,6,6,0,0,0-1.32-.11,8.67,8.67,0,0,0-1,.06,9.83,9.83,0,0,0-1,.23,3.29,3.29,0,0,0-1.09.58,2.83,2.83,0,0,0-.77,1,3.13,3.13,0,0,0-.28,1.37,2.42,2.42,0,0,0,.8,1.94,6.07,6.07,0,0,0,2.54,1.07l2.13.51.89.22.47.12h0c.57.14,1.12.3,1.65.49l.32.12.51.2a10.76,10.76,0,0,1,1.48.72A7.06,7.06,0,0,1,34,29.55C34,33.14,31,36.15,27.31,37Z"/></g></g></svg>