<svg xmlns="http://www.w3.org/2000/svg" viewBox="0 0 48 43.47"><defs><style>.cls-1{fill:#010101;}</style></defs><title>block-icon-venue</title><g id="Layer_2" data-name="Layer 2"><g id="Layer_1-2" data-name="Layer 1"><path class="cls-1" d="M48,13.18C46.94,6.24,36.55,0,24,0S.94,5.8,0,13.18V43.47H7v-11H14v11H19.8V31.28h8.35V43.47h5.94v-11H41v11h7Zm-41.4,11h0a2.06,2.06,0,0,1-2.17-1.93V17.43A2.06,2.06,0,0,1,6.6,15.5h0a2.06,2.06,0,0,1,2.17,1.93v4.78A2.06,2.06,0,0,1,6.6,24.14Zm8.49-2.33h0a2.21,2.21,0,0,1-2.17-2.11V13.32a2.06,2.06,0,0,1,2.17-1.93h0a2.06,2.06,0,0,1,2.17,1.93V19.7A2.21,2.21,0,0,1,15.09,21.81Zm9.06-.62H23.8a2,2,0,0,1-2-2V11.75a1.9,1.9,0,0,1,2-1.78h.35a1.9,1.9,0,0,1,2,1.78v7.48A2,2,0,0,1,24.15,21.19Zm8.72.62h0a2.21,2.21,0,0,1-2.17-2.11V13.32a2.06,2.06,0,0,1,2.17-1.93h0A2.06,2.06,0,0,1,35,13.32V19.7A2.21,2.21,0,0,1,32.87,21.81Zm8.49,2.33h0a2.06,2.06,0,0,1-2.17-1.93V17.43a2.06,2.06,0,0,1,2.17-1.93h0a2.06,2.06,0,0,1,2.17,1.93v4.78A2.06,2.06,0,0,1,41.35,24.14Z"/></g></g></svg>